<mxfile host="app.diagrams.net" modified="2022-01-26T07:01:35.864Z" agent="5.0 (Windows NT 10.0; WOW64) AppleWebKit/537.36 (KHTML, like Gecko) Chrome/97.0.4692.71 Safari/537.36" etag="sYDeh_js_0i9cyzPsKiO" version="16.4.6" type="github">
  <diagram id="Dsa9O1Nl3jEzwS4JXUUl" name="Page-1">
    <mxGraphModel dx="1422" dy="762" grid="1" gridSize="10" guides="1" tooltips="1" connect="1" arrows="1" fold="1" page="1" pageScale="1" pageWidth="827" pageHeight="1169" math="0" shadow="0">
      <root>
        <mxCell id="0" />
        <mxCell id="1" parent="0" />
        <mxCell id="G6uqmPO4Gl4WN2USTSYM-1" value="" style="shape=image;verticalLabelPosition=bottom;labelBackgroundColor=default;verticalAlign=top;aspect=fixed;imageAspect=0;image=data:image/png,iVBORw0KGgoAAAANSUhEUgAAAggAAAFGCAYAAAAPRmfiAAAAAXNSR0IArs4c6QAAIABJREFUeF7svWeUXNd1JXwqds4J3cg5g8iJmQSjmMAkiZSYREnLSp5Z4/lm6fP3x5Ise9nWcMbjGXkULIkSMwnmHACCESByjo3Q6Jxz5frW3vfeqteFanQ3uhpoAK9kuhvVL9x33r3n7LtPckSj0ajYH1sCtgRsCdgSsCVgS8CWgEUCDhsg2PPBloAtAVsCtgRsCdgSSJSADRDsOWFLwJaALQFbArYEbAmcJgEbINiTwpaALQFbAimQQKK31uFwSDgcllAoJPgdn5H06DqdTnG73bH74J7mvil4PPsSl6AEbIBwCb50+5FtCdgSSK0EjOHHT/wHYx2JRKSpqUnq6+vF5XLx+2AwmDKQYAUdHo9HCgoKpKioSNLT0wlM8HeMAx8bKKT2fV8qV7MBwqXypu3ntCVgS2DEJGCAgWEJYJD9fr8cPnxYDh06ROON3T0M90h8vF6vlJaWSkVFhWRmZhKcjCaAAPnYIGUk3vzIXtMGCCMrX/vqtgRsCVwCErACBDwuDDRcC5WVldLW1iaLFi2StLS0GHtgjCV+4ljz6c+IGoYi8e/mfOPGMC4GwyCAuTAMggEN1tcxVKNtfU7ruYkuFOt4k419qPe9BKbQqHxEGyCMytdiD+pMEjgbP66tkOw5NZISSAYQYJCPHTsmzc3Nsnjx4j7xAaD+zZzEcWZOw6Dj+8Q5box7MoBg7m1cG4bFMD/NNQEiDFhwOpwiKizijOAk8bms/07mvjjteA1+HPp5k61De22O5Mwc3rVtgDA8+dlnnwcJ2ADhPAjdvuWAErDGIcCg47/jx48TIIBBgEGFkfb5fLwW/o14ARjIjo4OHp+XlyeIJzAgAd/19vbyWDAQiUY5GZgwA4WLA+dmZWXxvriWx+0Wj8erwAkAgg6eVMABX8VRgzH2BsAksgR9xgJQY4IwdWmdKMCB/h0AwRxvQIoZpw0QBpxa5+0AGyCcN9HbNz5bCdgA4WwlZ583khKwzksYVdD8AAgtLS2ycOFCGuijR4/K/v37aaDHjBkjkydPlsbGRjl48CADGGfOnCmzZs0icIBBDQQC8sUXX/DfYCGMy8CwAuZ5ElkEnLdv3z5ee+7cuRxHT0+PrF65SjIzMsThckk4EhYYblUpLypgFZwWwMBvo9FY3IRhKAwoMVkSdG84nRxbRAdpOvR5ZCpwh6iIy+2KAZJk7omRfDf2tc9OAjZAODu5peisMxexHLkSlwnc4mlPc/qdk58x0HVSJKaEy9gAYWTkal81NRLA/DQMAlwMyGSAcYeBfuONN2TLli2yYMECmTFjBoMX33vvPYIIGPXc3Fy59957ZcKECRwM2Iff//73kp2dLY899hhZBBhkxBqAacBPkx0BgIEPAhbBHmzcuFFOnjwp119/vXz11VfS2tIqDz/0kKR5vTTk/oBfXF6PuDxucbnc4oYboA+HoAACxm3AAu5v4h4iobBEoxERh5PXiEQVKIL2IDkBXBCJEDh43B4FbpxKZ9gAITVzbaSvYgOEkZZwP9dXRi5uiOPA3eB5RdmNzIfLt7+R9RkXF3O/R5/pOiMzcqOohnr1s6UxhxR9bTTjUAc3iOP7C1IbxKkDHpIMcJ2tvAa82SVyAAylcTFgFw+AgJ8w9shquO666+Syyy6jMX/qqacIDHAOwMTDDz9M4ACmAS6Cjz76iGzD97//famtraXRx7VLSkpkzpw5ZBrATJw6dYq/T5s2jRkNW7du5XdXXnmlbNu2TXq6u+WuO+7kPchYhEOSlZsjM2bNlDHl5eJyuAT7feV5UPqhtbVVdu3aRRcIwMG8efPIZhyrrJSmxibx9fbKlOnTpKy8XA4dOiit7e0819/bK/m5+dLV0UHGAueVlpWJEyyCDRAumFVgA4Tz8KqokPEfILaBAdolaP4dFVB/yiOYGqCQCAgGAgi4e/xj8UwmfGtUShJBpmbgp12YuxZNfyJCHEozFApLWVmpFJeUUBEiejwtPV0mTpgomVmZseO7u7u5u4Jf1uvx8PtwOELF6kLOuNMhEeSQ6/xx7ICg2NMzMiTg90t2dg6VutOl8ssVgDLSUTnw8T/ov1iK5IQ1Havevypkg/+Z80z+PP6uArvU1cxl+zLAw2VwFPUbPW2GmV1e/AnPwzK5oG8ZiYQlbGIQmproYqipqZGXX35Z2js6JCcnh/Nv/vwFsn3Hdqmvq6PRR5ritddeKzt37pTjx47LrDmz5e233pIpU6fK4499Rz759BM5cfyENDQ20iVx//338TywBTk5uWQXPB63rFixQnbv3i0nq6rkzjvvlE8++URaW1rku499R/bs3i179+2jMW9qb5Vbb/saAUuGF1kWCiBgPgYCfvnow49k957dkpebR4Zj8ZIl0tPVJV98/oVMnzpNGpoaxOXxyJIVy+TDDz+SltYWsh+7d+6SsWPKpSi/UGqqq+WKKy6XG2++WdIz0tWK0VOXK6TPNB7unL6gp83gBn8ORWQDhMG9kpQdFQMHKqSHiyPqiMTWSNzUACCA8kvFR+/0B2Ww48BFhx3FzKCCKtaL4LrYESRhEgZ1r6E/G32ioRANOoz9V19tlqqqKsnMzJJFCxdKxdgKef/9D6Suro7+1AmTJsqaNWtiQV+HDx3mrmruvLlSWlJKRQgFS/8pgYFDnPwdICRKX+3hg4e4e+rs7OTuzESge5G2hmMgMvhydWobrkEfMQ1/hHQuxAZQ4e/1icvt5n2gzL1QyoxiR966M3YdKFCKkEV3VGT7aZ9k3w1WpDGQasCHeWFJqu/x1qmZiYMd3oV+XDQSllAYQYrHpKmxUZYsWSLdPT1SdbKKQPTAwQOyceMnMn3GdGloaJD0NBVzAKM/b95cGvRJkybTcP/+978jMH3o29+W9z94X9rbO3jOgf375d777pOurk7WW1i79m4a8XfefluWLlsmNXW1XBsPPvigvPnmm9Lc2CR//aMfyZbNW6Squko6urtk0/Ztctfda+Whb31bMtMztOFG6mWY6Zm//c1v+epvuOEGjg8xBR++/740NTTK4995XI6fOC6vv/2mXLZ4sezYtVMyMjNlxfLl8sq6l2XqxEmybMlSeeO118h0PPrYY5KVna1AtZ67ampZ5tZw5vSFPmkGO/5zuBRtgDDYl5Ki4wxAUL47WgCJAkQ71I7dQZIPX8cZhGHfGjcY6sdhcrO14dBjNZexOEf0DjoBJIwQQIDBBECA0e3q6pL3339fcrKzZcLECVJRXiFOt1v+v7/9f+XutXdLe0e7bN68Wf7Lf/kb+mrhSz1wYL/U1tTKipUrScOCbcBOD7RpRka6+H1+KnIoyNLSMnF73HK88hiLz+D88vJyGm5QrniXYBOwGwSAwAdGv7enh9eA4YdCzMrOIjBobmmm1S8sLJS0jAzp7Owgrdzb0ysZmRnidrlIKeNeGRkZ9AtDkTrptx0ZgGBek5X5iCnvS0FxJ6dmhrpaTjseAAHMFABCY0OjLFq8SCKRqHR1dorH65Vdu3bKupfWSUFhIY043ABpaV754IMPZeWKFfLll1/KlVddJbfccov88z//s2Skp8uNN94o615+WWbMmC7RSJSuB4BfuAFOVVfL9777Xc67P//5zwQkTc3NcrTyqDzyyCPy9ttvS2tzizz2yCPy6ovrpKyiXLIL8mTdG6/J1ddcI/ffd59IJMosB7g7EDNQ31Av//Nf/5X//vr9XxeP10MW7bmnnpbuzm75yU9+IpXHK+WPf3pSlq5aIQePHJbc/Dy5+sqr5NmnnpZZ06bLiqXL5ZmnnmLw5aOPPyaZWdmCAEYDCmyAcBZT7SzU+VncRQE5u5vj2Ypu6OcZfzb9k9wZKnoNpljt1vHmncrzYIhrq6FNsdE186zPBtHsXC2T0KQvcYQ6fRo75wh2xRgxafKEXWaKxxqTNgAClG8oTMr2vXfflfHjx9OHOmniRO7+/8cTT8jSpUupLI8fOyYPPfQQ/ah79uyR5pYWAoMrrrhCWpqbZd/+/dy1TZ06VebPm8e89a3btkqaN00uv/xymT1njnz4wQdSWlYqVVWn5IY1a3jMtu3w6fZIcXGxrL58tUycOJHCaW9vlz27dnFnBcYBgWgrV62S7du2y9YtWyQUDsvKlSvJRHzx+efS2NQofn+Aj1dePkYa6htk4qRJpIjz8/M0QEjCIAx3V68ZhESAEA4jAM7DqRhzncRpraFP+lF0BtYf5M+dsFMxJYo16oehGcbY4wDhOF1UcDGA4ofh9wcCNOpwjc2ePVv27dtLQOh2uaW+oUFuuulG+fSTTwUM1bJlS+U3v/ktDeyaNdfLU395inMVgHfT5k1yy823SGZWlnz66aeyfPlyzrmqqpN0Uxw8dFj27d8njz76qLz11lvS1tIiD3z9G/Lc08/KmPIx4s5Ik4+/+EyuuvZagpLnnnlWykpL5f777+dawrWefvppOX7ihCyYP5/sxKxZs+XQ/v2yfcs2ueXmm+VU9Sk5cuyYXHfjGnn3ow+kqLhYrrj8cln3/IsyZfxEWb5kqby67mWZOWumPPjQt8kwGPdaTGNcCkB0GHPptFNtgJBKaY6ea5kIXwJo1mqPCmJ+QTdDHYfJRDs0QFDjJn1t2banem7Q+GuyQK1TxWio39Qngu8AaFwucSJTCalMjqi4HA4BkW6cDH0kPVIAwfhH/X4a/U82bmSEN+QJJTxl8mT5y1NPid/nozEoKiwkGECqGHb/AAjt7W2ybOkyCtbn8zNoDHQqlGDVqSoq4Pa2dqmurpbbbr9dXnzhBZkxc6bs3LFDHvzWtxjDAIq3o6NdTpw4IYsWLpJly5fT8CB46/MvPpeS4hJJS0+T7CzFbjz//POkjPPycmXjxxtl7d13y7vvvkPDgLQ2MB24b052jrS0thLgAHTAT838cZO3nkqq3+Srx3LVHRIMBLlTxNxknIXyc6gYCGt8xWCX1Zkm7AjOkdOVqhoIdsDKteMVt9cjoUBA3Kg7ABmncDwGIABMNjTUy5IlS2lgt2/bxoBCgBMAwdlzZjNeBnEBLqeLcwHGtPJopezctYsBfh2dnTJ+3DhZuGihfPrpZ4xXwNwC3Y9jx40bL/v37SNjgHtMmz6Nc+mtt9+W7du3EyAADPd0dcuq5Stk6+avyDi40r0S9bpk0tSpUlxSLO+++TbXy0033STjxo0jA4aASLg7wGyhRsOqlSvp+Nz21Rbp6ujkvJwyY7pMmzVTPty4XnLycmXGtBmy5Ysvpay4RKZNmizbt27j2lu+ciVlbv3YDMJgF5LluFQbgTMMYdQyCANFbfcXXW6+H+j8s3gtfe2fUapD8JkFw2HxBQLS0+uTjs5uaWluldr6Runq6SY4CElUwswNUkAhyhzi+Oe0eWECivQhVk/C6XNIaT8wFdZIgmgU/kYVNGlYAMNlGK8C3CGBgE+ysjNJ52PXXFSYJ2PLSiU3I0M8DsUkqJjLuC87lbYsLoWo9vWHuTOrr6+TgvwCKlkoM4CB//7EE/Kd7zwmra1t8txzz8qdd94lx45V8icMO6LD4eft6OiUzZs2yaHDh7lzQjEbKNnbbruNVDBo2bVr18qLL70kc+bMphF/4IEHyTjAtQFqGMb71ltvldWrVhFEIbgMaWw33HijjB07lrKGcn7pxRfl5ptvlorx4+Qf//6X/B0GAIAGLMUHH3zASG/I98CBA/wdLANyx0dih6sQYIw/4K+BYIDKHAAFIAhpa5yLUV3pb4gGlNOhH2XWB/gOdzEO8nwWCvJ6GcQ3e9ZsmTJtmoSCAEReBdKH+HxnvC3iUXQdBDRrWoiMhTQvWa3uzi6mKGLnD4DY29sjnR2dBOAAkN70dPH19EivzydBf4DBtm63S9IzMqW9rY0uLBZOSk9n8CxeHuJxTHBtTm4OG0Q99/zz/B4xCGVlZYK0xNysLOnt6JbWzg5xpXnEm50lnjSvAB91YVwuN+egtVgTYh4APDCGvNxccTvdDFTs7uoiI5CGwEO3Szp6uiUYCUlmRqb4u3okzeWWDE+a9HZ3iyctja62PvEGxnFmMwiDnMH6sEsdIJjiHKYoiNJlqkOaqTFOY2cCXSxR4gYYGKBgrd6F78z31qAv8715S9aKYdZ7WM/HOKzlUpMFkVlBSjASITioRYrRkUo5VdMg/nBUMnPzxJOWTt0EhYyART4/latTHC43FxUWP44Bna+C3lTzExYtId2vgtnU8ynlz10gj4lHqvNPmrUwBgA7F3IYDnAB+neCD4dEQcHijEhIBGMLR6S5uUncTpEpE8bLwtmzZExhoXjBJuDeCLYzPkbuei2zeQhg6kwrBuP39fqoKFGVDpkLCNj68osvZPXll8uvf/1r+c//+T9JfX0DA7y+8fVvEECsueEGugcqjx6l7xeUb3lFOQO8wBiAxu3p7ZHbb79daqpr5NPPPpW77rpLnnn6GQZZbd22Tb79rW/Jjp07qXiRCQGwAXoWbgbIf9/evbJp0ya55pprpLCoiLEMCHgEg3DLrbcy/uCJJ/673H333aSbkeqGyPXPP/ucu0co0YMHD5F6njptKn3Bsbk1LPkp4EkkoHPR4cc2OzjMG7/fxyh77EhBMXP+OhyxDoSmzj/Xo+kfYMoC6/XJ+edEm2PwTmqumU6G1uqALMqjWSqeE1986jesVf0d17AOJsV44jEZmtmwTBbrxiEmN30ttV5Fdu/eIxXl5XKZLl5EBmFYsk0yW6MRCYZCzERgmuOiRQqIxO6jYLipKWDkBrlQTpEI6xSwwJDLpVpGu5ziJoWnuzRCbi7FREI/QCfhWOz2P974sbzz7rt0Z4ERQJwMgiMxn6KhsASDAXG43eLyuqlrwli3WP0sloT4Jx1Yi6weyE83f8I4oS/CgSAZRAb0Qv9gHHDhRMKsp+CKOugGhC5AbI3JVkjEYDaDMDRsoHd5Z3HS2Z0y6hgEE1VuQIEBCQYYIFAMOwEoZytIML9b65rjO+v5UHBYaLiH+R1I2dzLqsCMOA0oMMoRSBr3YKqbpZ56ooKxggkw+B29vXLoxAnZd+iIBMQladn50ut0iTszW5xeLxWgOxISVxj10qMSQZQ79LPXo9iEiErFw46HYMAVB0uqvStKu6pOcVQ21D+qHz0WKBdxJModKXaHXi8C4HhlVRwlit8Qie/iuUz7c7kl6PdRkbuZaaHAB+jT7o4O6e3skByvVxbOmilTK8ol0+USVzTMBE0YoSip8YR2s8NWxArkwegeOnhQ1m/YwIDB7OwsmTN7jixfuUL+/OSfpbJS0bhTpkxhoZj1H61nZoPP72NA4vTpM+Tw4UOUD5gEUKuXX3EF4xRqa2qoIOfOnSd3rV0r//OJJ+i+AINw3/33y1ebN8vOXTvpDoCChO93wvjxDFSEcfziiy95bchv7pw5DIh8/7336LJABgPmHPy8KJAzZeoUMggfr9/AeAVQyshRR/U7pLZB4FDsnF/DiDsgCwCmSBtt+MCRfobsD9DJCJADHviP//gPufbaa+gOwQcgEmDM5cIY1JwzxXqwDlShHswNZSzArlhz3fFvrEHzkyBfl/w1nQ0xQ/A+2bRIGz+uLYubC/cIBkMqZTWKZkgA6C69s1XBnCxOhPnudnMszCABULEEIgJcbNjwsWRmZsjKFSvjHQ91WuvZqdFkZ0W5+2ep5ZYWWYIqiKYGQOxeWHd6PiOTRQMjpr8y3qcvg4j4ELMJiG0+eJxiP4xRx3UAnFvb2+gWwHzHx8QKsbohQByABTQDGEANTKgL+mB65f4080b/wnGrWClNvGC96xcW21T1cY8Okp4Ztn5I3RsctVe6lBkEU4HM1C2HcsHuD/5mKHooT/iLEfULBYMdIXZz9N/m5DCFDdQvCovAtzx9+nT2SIdShq8agUG/+tWv+O5RjASKGAE8OObqq69mWhGqmkF5o/qYFUwY8IKgN1DZVobjTAxCTyAgx2pqZdehw+KLOiUzv1h6wg4JOt3iTMugIcXO2xUJECREIkE5dvy49AZDMnX6dHG63Nw1qXQ8pQxBXyoloXZo+B47QCjHgD/A58V/UBrYacMwWcESzgNl6HajnGtQ3C74nQEu3OJyqupsCpRAicG4gElAKp7agIJZCPl6xd/RLq6AT65dsUzGFRaKizsIPYNjpVUt9QCGpQDUjhEgD8oOYA0KGPOjsLBAZs+ew2dCJgIKw+CzcPFiKSjIl5pT1VJ57BiryIE9wLtvbGggFZtXUMB/FxcW0gWB+QM5zps/nxkFf/+LX8jXvvY1gsLxE8YTkBzYf4AZCrhvbm6eAgcOByO+EagIZgEKHfOvsKBQOru6ZPv2bVTE8+bPk6LCIgIWzEkocPyOc0E543yMEX8zzNmwAII2QnFDKXL40CF58403aUiQ247Kflgzv/4//0euX7OGgAcf5MD/5c9/YWAoUvHmL1jAaHrQyyjEM2nyJObymwyRqVOVWwTA7bPPPhOf3y/XXXctI/IB6jEn8Q6wuySzoHe/eD68Oxg6NhXSwIigIxCgsURGSXdXNyP6CZAxPwlaFOhXxk3PPbPLZp0LtVaU0XXIhvUbKGcEjyJqX8V3pF7rIt4BMSrQJwAIrHGhwVQsCFSzg9zMeNwSCqpnISi0ZK9geIxZAqNHlK4YROoEDTzimxoF7MwzxTo6GsaGQBFxRMbhqM5kmq0GojEjr/7SFyDgG7ol9R2Zqh2vBmLVhTGpanA6oNEdgfcw4D0vtANSP1X7lcCoYxAUiI5yx4GJhp/Y7cCvCz8a/tu7dy+riOXn5/N37IiBlPETiwHKCv7fv/zlL/w7FDCotr/+67/mtVGyFH5mGBEU9cAxy5Yto28dPmcYDYAG3Bv0L5QJFiaUG3zFACqg7Uxqm1pcyd9aKBKR5vZ22XnwkJxoaJH0gmJxZuRKIOqWqDtNAqR8Re28o0FxRYISCQVk584d0trWwV2tG2yFTh9AUB13SMi7hyJxoQGMohehOOmmiJV6VSgfPkYoKyB8KETsqqBsQTMGQwFJT8tg9oQ4XBIOg7IU/l09s5fAgHXblTNDuRCiEXE7wHoEpfHkcZlQlC+LZ8wQ8fsk6OslIFEpDzqyQTdzGZYiNrst7W4xqgtKEoYE75+KFsYEtQYcDoLHzOws7iyh6EzNA56riyMBCIGVwfvFcT29vQwOxPVg2JE2hh0/DChBl74faXBNX4dCaqeMHR7SMKE7TTAcJGAUOxiMrKxsnVMOyaooUUXBKgnDeKqv1a7SvO8+mQVDUGoG7PH6nBth5uODggargbk0ccIExlK8++67csedd8qM6dNJcW/6cpPsP3BA7rjjDvrKESQHtgWukpdfQcrdDLnrrrWU+Wuvv870uraOdjly5AjXXFZOtrzwwgtkbG648QaCDKybiG4eBNnAKNJ/TsraqWpDaOYC38F3j2Pgx0ZaKs4no8eMlvh8h4y9Xk+s8BSBJMGzqt5nWIkNGzbwmitWrOR6UEbxDFp3sEYrIYgT8wcAob2tlZUUjfw72ttZywCgFKCwrb2dABH6BvoIukxZXwV4UEeBxcDCYcnNzZGy0jLp7OqU+rp6ui1KSoqluKhYsyZKd6JaIpgLzCf0e8DmycgAcsF/0HNwCSCglr0fyBL1lYWJS+J8tAZpGPeUGalZ51oXWrCDmql94pPOMHkHK+shzP+L7tBLGSAY46aMn4vgAJMXu0Uoe9C82PUAlWPnCIUNPy4WGoABzkH9cigwKgjd8ATVxHAd5M7/wz/8A5U/DD++w3VwPyhIAAcozWeeeYbRxsYVYRQ87gOAMX/+/EEBBH8gKEdPVsmOg0ck4M0Ud26RBBweCURdEna6mLePPAGXhMQFgBANSjTol61fbZFDhw7LpMmTJTcvX8aPHU+lgNQ+LGiMC2wJAMJE0sFKXunpGVJ18qRk5+Rw59xQXy9jxpSTeYEMUXBl5swZfF7slKtraujDLy8fJz0+v9TU1Ys3PUMmT57KACRFcwIWmFUOvRxWBXwkLJ6oX6I9XdLTWE+Q0NvaIm0NDVS8YD5iORiafjQGdTiL1tR3R7oY3CekZK2+cJeino3BZ+16GHYNAsgKadobeou1630+BnwZKrynp5v+2iNHjzJifOL4CarefDgiAAP4Gww2DBd+KheUArS4HwwmrgsDhnth3mGMxsVgKHvS9HosPNYNgKHiW3BN0vCxiovKbTRU/RBj5eBqiiDgNECWAs18sL6yMjNplGbOmsXvfvyjH8nkKVMok6+2bCHb8O1vf5vnfvb555w3iEpH5DxYFABmGG0Ebi5evEgOHTnCeYpYjvTMTGaNIPARayY7K0vthEMh+rEhq8MHDnIuIwIeTCDm46mqKgZrIuBuzpy5BBAAHRg30v8QFIp3evTIEb5nrNnWtjYGdsKtdPLECV4TmSAwujB+7IbocMr6DeslLS1dVvEaCiAYutzMSyshHmNeBpi0vI45BuWGARDYrKlZ10GIUC4vvfQS2cmHH3pYrr76Gnnttdfkww8/5NxBnMott94iuTk5HBfcO9jovPb6a3QFLZi/gBkz2KggwBbyR0rs17/+dW6aAHTx7IglQSou5st9993HoFi8d7A4kCH0wZ/+9Cfqvx//5MeUEdd6goG2AgTr4zMtux+vQdLN0iA9DMPRC5fMuUNVAMMQzKhjEAxAiAXmOBxc6FhQUDBgEjDBARTwQQ48gsvgKoBCxcSHawG7PeNewL/hkoBxB1LH+VDAcFsY1wWOgZKEiwHKHKk9uB6ACP4z7VJXr15NxQKXRJ8FkwT54lkAEA4iZenIcYlkF4onr5gAwRcWiaD2OaL9omFxiQIHYBEiQb989fmXsm/3HgFly0I6GZnS2dVNd8Hs2bOksbGJgAguAOzywX5gd5qfly979u4huzJh/AQWSpkxfYZs/mqzjK0YSyUBuUCRQPEjkAqGadz4idLR3SPV9Q0ybeYsmT5zlmTn5KpKj9xum94Q2Efo2IVoWLwSFHe4/H4bAAAgAElEQVTIJx211TK+MF+uW7lc0mAI4YpAQJVRmZoWPatUOYug1UZENYgJBPwqiI8V3lT8Halk+Lm5Qw2TwmaVRLpUFEOA7+GSgQxATyPoKlZFEY1n3G7p7kakuVe5b8C2BAJqJ2qobPhcEZQFOlxAj6vqiLifCWCFG4SBY251vrXlraqBoY4nXR4y41IAgewG2B4yN4r+5edsd1gmyI84L0rwu+7ldVJXW0fDs2jJYpk2Zao8/8ILcucdd8ikSZMIxD//4guuqUcefpiGeNfu3fw31hJiNfLy82lkwOxhLa1avYouqw8+/IDsC3bqKMQzbeo0yc3LjcXHECAgiK/ymGz+chNBKKLyp82YQSYMQIW73IZ6mTlzFhmdjz/+mPEacDGuWrWSu2YYSrhjEAgIUAa6HYAC2SQY/4033MDgT7w7sGCYzHB/4B4IaAVAUNg31RZMucBgrNva22TR4oV0Tb36yivy5JN/Jtj6b//Pf2Ocy4svvkimEgBh+44d8tijjzKLBfOppblF/vV//S+u9YcffojVP7GhAWhAOiMAK54d/RtQlhn/RvDrW2+/JatWryaogj77wQ9+oGotaB35u9/9jjoUwbe//OUvpaS0VBdE7Wt9bIAwDOs6UqdeygBBrVVV/tZ8EJULgACjblLLkNKG71Vp0nnMG4erAEpE6VEHFwT8uAg8+8UvfkFFiMWIqHX4mgEWDFMB9A23BBgE7DQAEAAyUFTHuDug7Gl4J0wgZWdFytZsidguJBoVnz8gu/cdlD0nTomzsFQ8OUXii7gk4vIKwvnwnA5nRLEHEhBHJCjRkF92b98hHc2tzNc/fPCwnNANWoqKirlLwjNMnjyFu1QE6+XnF1ARwbjAgEM5QSlinIiIf+9dFRCH3Sp2aKAsDx08xJ0iqMb8wiLxh8ICkn7Z6tVSXFrKICaTqsZaCdZMMAQtIthMguIJ+gkQSjLT5cYrVkumxyVeXYgGhtx4Okki9KOIh7Ivph9XgwAFQpTdNLn6KI/Mssc6oBMyoi8fkdY6GA6/YzdpMjnMvDMd5wI+HwvXIEoc7zng80swFKSCNQGqJigOcAnGnK1yacAVPcx5rCPLCVy0f5fZA9rQq+wTjAuARvmeAdjINugdP8YWv/ZZaB2tUMB20N0RiUhdbS3jC7CjnDRxkpRXVPB+//ff/51ldceNH0+3FDI39u7Zw1Q5MEpYY2AOIAMweqCvkaeP3TKK5mAdTps+Xbq6u7lusFtHPA3mINwY+J4uk6hIaXGJZKSlyVebsbYdNFITJk6SEydPML4B6wybA6zHyZMmsajVN77xDQIUFPHBGAD2QadDbgDtWNeoDQBqH8wZAALiSCBPrF/Q9Ch8hbGh3DY+eM+nffpkG5yFzKNCFw3cAxA6ehFgrOiPgJocyFSB2wrugmeefUauvPIqygX6CWzNFVdcSTYJcTJ//8tfUtZY40i3hb5DHAWrebLAVrnce889LH6EuQXQ9P4HH8jd99zDQkkAW48//jjZGcgMAANjwPe4LlyvYFrgjklGTyVdm2cAVDaDcBbzZSinXOoAAQs5FlikFSVQMJAydimY3DDmmNz4HswCfHwIDIMihpLCDgk+PuyE/umf/okIG8oMwAIGEfQlPgAAMLa4HqhJLBTQrohBwLVwDexEwC4YpY14BSB+kwFhAIl5x9YFgpoHO/bsl30nT4mnqEw8OYXij7ol4vRK2KF2sU5HRJzRkEjULw4JSCTklz3btktLQ5MsWbSEqVI1NdXcRaL877ix4+gXnjRxMqnSymNH+V1Nba2cqjolk6dMJpXp8/USYEAG2C0w8LGnVxYuvIy7M4CuwqJi7sInTJwoPcGAhD1umbtwIQPvkBxNo8poZ2WkVF672m05QYlHQpIejUhbdZXkuhxy4xWrJC8jTbxgRhzaNaHjIoxRTrYWnCy3NMgPx6BXiUVRWcGH+t0SuGayAAzLEAtms1yLt1fnnfbR8QbJRsjdvbVmhcEIg3wcdVuVumruHAMU+hr9xbgM5RbqNognURkN+B/TDcnAqN4Qv/ntb2XN9dfLuPHjWDSJAGHvXqZ7Ynxbtm5lXQdUzGOFwMsuo2HDrhXz68abbyLohVtmig5YxHo9jOJAjK7vZaoeKnnPmTVLLl+1mqwg4oE6OjuYeohz0SQIGQu4FoJP4TLEOkU/AgCCTz/7jLUqEEiKAlYMVC0qktLSEpk3d54cOHiQNSauufYaPqNxMQE4wxUCNyTWPJgd1CMws0BBu/j/G6x7IfE9MIYCQbx+P9mWa665mgYfIBO9El555VVZu/YeFcvx8jq6CeD+++Mf/iAPPfwwmUxvWro0NtRznSL1FMWT4OK58sor5OTJKrphwLqAPb3hhjVSWKjSal999VWm2n7jm98k4wM2BaADetLE5uD5kbEC18yPfvQj6ghT+2Coc2pQx6eaoBnUTS/Sgy5lgIAFCXCAhcxgJuQD+1W1O7PjhzIBasbOAMoC9CZAAYwiQAOMN0qPYrePzAQYewRMwRUBdL1u3Tqej8I4YBUQbY1oeDAGCMbCfdHcBAoTOxVQmgjGgiLFWLDDwi7emhfeJ3JXGx88C2of7Dt4WHZXHhdHboGk55dI0OGVIGIQHC6mFsIgASBEowEChHDYJzu2bJHKg0dk2pRp0tDQKFlUlgAshQQD8I0behspjnA7gI48eOiQzJ0zV2pqawiELr98NeMSsHMBrYoucAA7yHPHLgvK0e32Sn5BgTQ0N0nI6ZAZs+ZIVk5OLP2JRoU7YF1n2fSNAIMAut7vk/a6GinPyZIrly6WopxMcbsdLLwDX35rWyt37iWlJawsmMzYDQ0gWFbIGQGCYpKUwtdpgoMFCImL0ER+J1F0FxJA0P6KvppTB5CBcQFAQDnpsePGMhsGLgb4upHpAICAOYX1hrWFOYgGWQDZGz/ZyGNhlJBZhIJTY8ePY2EdxLlk5+bKkiWLpaigkPjLCbbE4aSbAowA2EAAjpKyUq5J7G7B/gHMgN2DsQVd/s1vPsBxYA1DR6AXATYDiHEAG4IYB7jbAGTgfrz6arUzN4ASrAjABdYT0k8BVhAHpGorIDDUdFodptfBIQyoPHHiOPXH0qVLxONBumeIFTRffuUVBneOHzde/vjHP9JtCQP9zjvvkiVBVgnmLp4Jz4nPju075Kmnnia7g43O9dddR32EUshgECZOmsiAZWwGwKRef8Ma6k28D1RThFyg2yBXbILQetoABFbt7FOnIcXG1QYIqRPopQoQGMCm/bqY+AYgQClhhwLKES4GGDYgXvyHnQMWEBYYfkKJYMcPpQAaHQGMAA1AzMhQgDL54Q9/yNx1KCX4J9H0BEoIFNwDDzxAUIASpfCtAjjgOOw2VJ3zKgYEGTRu3np/ACEQCsmxk1Wy89Bh6XV5JL2wRCLuDAYphrBrjirl5UAdxSgUQUAi0YBUnzwhJ4+d4O4HimPixEn0Q8KPXlY2RpqbmrmLgL8XwAZKFWwKlDHKsuJYKCaAItCphw8f4Q4tPy+PLAl2Hng2xFcgqr5i7DjWiEfxlLIx5eJ0KnaDbgVQ5ayBoGemBggojAQGwd/WLKH2VplWXiZL5syWvKx0CQR9DJBET4IDBw7yGa686kq2X7amh8bkF+2b833G1dTHDx8PljJ54GqnrAtGmdQ3c04iNWplI2I3NR0tLaPgDv90F4mSCcCHZfxmAQ9FKWrGI3ZKn62safydIh3Tj/zgDvnt735HWh50NYwNDAw6ZsKVg/WAeYZmQQCroPNLS0rosqqrq6ULACWp4drDDv7Y8WOM9SgsLiItXjamjEV0ouGopHm88HVIS1OT7N6zRwUp5uTIrNmz6O7AOj146CAZsssWLIhF5oMphG9+7x7VvwA6AZuEHTt2cJ1iDUMvgM0AEJ42dapy1ejeJ9ANaI2cl5dP2p+AQLOUydby2TIICIpBGecjRw6zSdfyZUt15lBQPnj/fe7yb7/9DsoFbgWvN53Br93dPWRrsC4BisAOHDmCmh4iNTV1sm/vPjKhcJuikBbWP5771ltvkba2dqUzw2H5aP16mTJtKnUlvsPGBzoNGx1cE7riD3/4AzdVf/VXf0U52gxCitbXSF/mUgcI9BXqDATIGosFExk7F9BloOXYcczjoasABhA7egAC+PlwHBYRkDMMOgwlQMZPf/pTGs6f/exnVHQAFFgYoDjBOmDxoAIe7oV7mroJxt+JccGNAfoPhXPw92QfK1jADqihtVV2HTwo1W3t4sjJE1dWroThYiA4QKEm+OlRhCAoUfFLFGABBZMi8VQ5BMyZPGgoXSguKAe0lAU9zPQ7pIfST67rnTuETYfAwoTCIfrkkUKG8Sn2QX2wA4YfFteCW4EBfKyJoECByTxQzwWFqoomgf9whf3SVlsteW6HLJg6WaaOrRB/d5ccPXqEpYSPHq2k7FGx8MYbUH54XGy3FpedCm4Y/Ly3Hhm3wtqGq8taiuP0yY/XBWVQJKrP/a0vMjGkXV9PbbT7Wn2FL/D+4mMy798KWAbWGdq9EG90F3ej9BcuPvBF+39GJSTl2dBHed1uZu8ASMPlxOp8OuvBBFnCKCNgkG5ABlA6SN/j3yyS5HKxl0N3b08sWBPWDSyWuRPiQzxOt3icLhpRBNdiHAgwBBBhDRTMV1YrdbB0r3E7mnluiiypgFkH6y1gHQD4Ih4BYBcfxNwgPoQxKHreb/j4YzIgq1ev4tzHmDV/oMFecoZqqOKGPCqPHiaDBgYBzw+2D427Pv30E1m1ajVLfm/bvl12bN/JNQlWE4GDn3zyKXf5YCvhYqiuPsWg2UmTpsj8+fPkyy++JFuIXf+CyxawIBdSUPFcOB+u2OMnT3CzhMZN0Imo5glAAh0HebzzzjvcOCHuCiyQcT8M6TkHe/BQwPJgr3mpHjd4RTlsCY3aLAbDJpiIcPwE6oWxhlHHvzH5sXvAB4oLOxrsGgyVBuYAjAIQNnY/MOo4D0ga32ExAWyAZsP3AAlwPeC6+IDeU7ntqDWgDCruB0SOv+GeyT5WgICdd7fPJ0dOVcn+4yekLRyW9LxCcaZlScQBow6Q4GLQlurGEIAaUV0SARt0VD7mBHZ0+MCAI/sBRhxKNJ7GplK5oByZ8+1CZUS9+zSbf11kyRRaUWUYAAJ0oRTdREp1o1b/0yF3FiUKgBARiQQl2N0m4e4OmVpRJnMmjJfC7CyprT4lW7ZslW1bt0ttbZ0CYhMnyKqVq8jUnO5iUC0tBz3vLTnXFJs22vSq98lPM2mBuoCOxjc08poFiSVZnAEgmHuoOakPNPJUnP1pRXp4q0FGxqtLmh4cFjlYA+XOVsHGhJpMuhog6HHCBfXiSy+SxmemC2tHCA0o3iHem6qcqIoOmcqH6hXoioDMFgHYDLOiFoMrLbnypiQwqP00lP3V8UY00jrI06w1fIdMBxp4FgRyc20CJDA1FOWHGXQZFi/qdbCYmMosMXVCsK6x9tV3KlBx/foN1BOXr17Nc2KA2swBK8MyyHd4mh5wCAETAAKCh5csXcJy5VhX2MSgTwjiOOCCQdvvqqpqyhDsHjYe0Em9vT6yIU1NjXLqFOpVuFhPAinMzU2Ncvz4CYIxxE4B+KMyJnQSgj0BLk6ePMGUUPwdz40NFJ4bwZyQD/Ql3isYSAAN6LpUxbqcJo+znb/DNnEX4QUGrSiH/+yjDiBYlY353dQgMJkNMSVl8fUbhUA63JIBYdIlzeQ3u2ezMza55vg3o8kt51oDxUwJZ5OtYI0/SHwN8R2k2jOhWFJLV6ccPlklladqxI9CRGmZ4k7LEqcrjQWKtMqViACIKMVsivpA2VIhoziRzr9X4zQ8tOrVgCBAPq8urwwFSn+vjsQH2DC5/PgdAU3YIapeDDgXFR11qoLeWsYo9Pj+T4IBn4RDCKb0iTPkk5K8LJk9ZaJUFBVKphuNXLrlVFU1XQvwLyOVDuDr+jXXM2K+r4tBz/YhKZDEFaJPNj90KWbICM/X2dHBHSxAHYNdm5okFAzImPIypt4p2anSvK2tLVJ9qppGDvEepWVlLHQDVgmyQLAYitVQ8oiMD6lSzShag5S+8oqxLJesEZcyjtGotLW2UkkjkI7R4kk/iUJIzpSc1bLvW/gujkIst8Tz/O63v2Vdg/ETJrDioRm/mYOsvc85owp1KbClxsm1hbRR1nUIca7h7/w3GDEe6lC1+aMiYTRKQiqnWbP6WpivJhYJzJZZewAGAAiQM4GtLseMe5pCYoh1MYBEjUnVuSC74cS4AuymiY0B0hyZxhqrWsgzhs/c6NdmAALqICxdtkRVJSXoV3OCQJ8ZLOzpqtaqlivGaTJ04jpRaPBVgCnzZLTcVWwQM3TCEXF5YOhVhg6AkWFbrNk3Zg5ZC4dZS8ef1Rw700lDWt8pv/vFdcFLHSBY32aiwcffkqUUGoNvzrXu3qy/J4sVSLyfUXbWa51GLeviNclmnrmHqUaKtYFmTR1d3VJ9qk5q6xqkrbNbevyoQeAQmH8EB6q6eagMp7bTzCxUHLba5WPXS1e3KoNsFC7BhE6nYzRDMMgaASY1Ed3rUIUuVkmPWQVMS1DlXNGcBdcD26AZBUX569xGh0iYDVx0nfZoWNI8LsnK8Ep5cb5UlBXLmOICyU7zkjZWyh8Bnl3c+cCfjEwJBKkh9ex0gDDETnr92U3DJND9EhC/L0A3ExgjsEczZs6gDxdR+b30785mRgeq76ENra+3VzZv3iR7du8hOJg3b75MmzaV1QURQAcGB64sULbMyHC62PAJzX9Q1CojI50VOadOmaoq+OmiR2C9Pt6wgWDl9ttuY7e+2Gewi/0cKFjMm//9v/9Npk+bTjAFgxIzJOhrYKmeR0OmLFds56/WqnI7aMulCnTSZWCajaHhkALiYAdMMyrT1AprhzULNDOmyhMr+GwAvCotrO6iWCOFfhSDoMep3WHKfYYaCKpsOK575PARFiBDTRNmIllATuLaP+u6E1jzoaBUHjksLS1NLCAFYKNSY+MghhsXXS/E9FtR/SNUqmu8l4laowQNzKZVz4IOjWoDoAEbjmEHUNW3xQBZozOtmx6zWTIgwXYxXCA4YrA6IwWPMyoZhGQG26DoxAXcHyXWH0Cwnp/sXHOeFXD0RxX3d+8YQIhnr9H44zowWq1tndLQ1ML/urp7JRiOECQQIJiXr22m3ptp378GCFTWSsmYw42PFUrS7w/Ivr17JCcnV7ezVa1lUdQGlKTSMHoHpncappGPUfista4DEwlbiEwUQMhIT5O8nCwpyM+RsqJ8yc/Nkcw0L4sjqeZPYPDVA2AniXxtKD1kSnAX0ydITu/YhmIAzwAQzLtCP4bKymPMUEFK6G1fu03mzJ3DRksYD5Q3Bnj11VcwpQ/GA7Eq69evJyUNpgNgBrtARHvD8KsCXV/J3/7t30pOTjaf9FhlpezcsZN+eMS3IIAUnfsga4AEpASiwyOyYsAefPe732Vhn9EIEGCkAWTw3ujT1zt0s/ZgZM2c6wMQdFMhK5hnSizDMwBs0RhIuytQiEp3ZWVjJY9H9VMAmwVjp3swqFRMZSRjRk53MiXTpffPsbVpehNYOw9qVgPHE9wA6KISJkoaT5wo81BcTZfOtgKBPuv6bAtTaYBw7CiCFJs4JxRAiEpPd490dLQzCwsuAQDPlpZWugYxfzLRPhmbAgJ4V6zWA6oqohAasoG6urrp7gT4BxvC7CDT3AmMVXu71NbVSk5uLl0IhkGFvEwpZgBX3J/nZ6vy37aLIQVWdaQvYQOEuISTGfqBWIDhsAhWgGAU4/ABgqoZTzcGaViV/tjrR4BWUHVitPhpDYihYoxRw9pvzqwCsAeKb0gMzodC7u3ukXfefYepUthJI94CAY3YLaGdcGFBAeMv4Lc1gVO4J3ZmRiErisF0dlNm39hwtws0sVO8HqdkpHslze3mrjDubdYAQe/zDJjB7sc6t+Pv0UrrnuXqomFQoAafYDAsJ46fZBQ+ouGRzYLUzs1ffcVqdC63Uw4dOiDLly9lwRwoUPhw33jjTTZgQgEpFPZBYNiTTz7J7oaIKkf63d/8zX+N9edA+uixymMyG6mlNTUECUipRdAXXk5rSzNrU3z++ecSCAaZjw6FHEd3Zrc9wHMPBUCdpQhxGmoLgMZn7w7NEJhMFkNtq/lpKRdhcfWptdLHb8GDWdyKxl/F9Ji4GfybbJnuqYD5bsA5WS1cu0/AqerQyh0xA2g1G6aPYWvixEBSHWiL65rdMkBggQZxcVedfi1WUDBMgEAGobVZlixZRCCEolKfbPxEDh85LNdecw2zqPbu2yc7d+6SjvZOWbZsKVO22eeFLqyQbNq0mVlcRYXFLHaGOIUtX20hO4bjkKmEOZeDWi06qBu1J44eq6Sr7KqrruJ9DHuAuCykQZpMMVNHBmDBBgjDWDzn6lQbIPSV9FANdLL3dLbX6O+8M82FvjEIqiCNoUGVq1EFBeIDm9anMZolAC/5PbQbwhJpT12tr4ffsbtA8RUUrUHgGRgF0OdIg4IvHDsofI8iUKjkhh0LdlJo/IKPbhVEBWUYDAMQ4r5PFaiI4bJVbIL31nAbZBJ0pHni84wEQDDvC7uygD9I1wAixidMmigV5eXy5ZebZPKkyZKekSa7d++UBQvmM7Ib4AktolFEBzs7GKDx4ycQWPz+97/jdyZ99vHHvyvpCAb1+2Xb9h0M/lqyeImcrKqS5uYmBmOWlZfzpaCUM/zAiDpHatp3Hn+c14p9+hijM8yqcwQQOCfpvtKGV4MEAxb6DMNiiJMBeUIFizIDeDUAISnD1ycNRU1qc78YcNeuBlX1j73HY3PfgJO+gaoJYEWfb/p5JHMhpJJBAEBoJUBYzPgXGO5nnn2Wu/+f/PjHsmjxYnl53cuCJmyYJ0hzfOSRh5llhXGA7frTn55kttaNN97EMtIIanzmmWcJ8g1ziNoJk3VK557du9mIC0wD0sAR1H3vvffGCrsxhfQgUkjTCHgBuL75zW8yldsGCOfKyg/jPjZA6Mc0JtkZDFbM5wcgaHBANRdTdZbwIu7F9COYVL8zvX19HZShs+7SDMvAWzikq6uTDWGQ+4xmNwyQRxvdQJC7YBRwaWtpJaWOYkY5WdlSWlZK6jszO1vRrip7Lza+GEDQXhCkCZpYCfMMfSsZqH9xR9jPS0o1QFDPqcAYS05HhWlcyAlHbQgESmI3hh1YRmY6AcJlly1g+2UACgQjmkwYFKJBkCXqa6DiHBreQFm//vrr8nd/93cEV2hmhBS1mppaWbZsOaPGAUhWLF8h5WPHagMXVSWLt26T3bt2ycOPPEL//mgGCKe9roR1lxSr9BPtr3gu9cH7Nv9Z73Ha2kx2A8v1lW8+yayyApb+5pwayOCrIKWAQTAAAXMRqYiffLKRWQoPfutbzDB4+qmnWQkWQYvvv/+BPPbYo7JoEdpDOziffv7zX3Aeo6IkSjIjE+G1V19V9RucTjYZw/xUoELk4483yocffci23Uh3RIE51DpAqqMBXWAWcU2kPgKYoBQzMrhsgDBYi3Iej7MBwsUDELgBiwGEeH8JPmFsexV/4wO/+wQKV4vK2oq1q7OLxVfuvOtOBtvRX4tqiNrHixHBn4k00I62Nu5s4HNme+L0NCkqKWZJZ8QtKApXF5NBK2Pty4WrxBRSio2ZjEOsu1PcMJwTgKB3nIZqRqCXiNTX18mG9R+z+hxK74LqR0EeyOvUqSoWy0HhHwwbmQhIKUOKH3ZYABOoxInmOg8+8AAbB/3ud7+Xf//3X9PIY6eNuhi7du1mQ6HGxgYGi6FhEXZ3iLswDZxQbGjrlq2MQUCuflKAELOkFoGdQ+bgPKq883PrwaQwDgkgWNamblVfeeSIZhCW0N2HWIP16z9iRdd77rmHKYdPPfWU3HzzLZKZmcXW4g899BBrFeDWqKL6/PPPSWnpGK5TAFe4E/bu3SfHjx3jPJw9Z7bctXat5OXm0cX19ttvs3bC2rvXssgS4nB+8IO/klmzZsdqkGDtIh5n3Uvr5LKFl8ndd9/N9Mmh9EQ5Py/Nvuvg88GHL6tRH6Q4/EccDVdQikN1JtAaX+/2h5D9f4YH6QsaEHz0wosvyNq1dzPewNyDPkiFTNROmxHVYbogcA52yG0d6FXfztRM9JkvL6+QQoAMVIYLhSQjHX5KpJ6pojgxesJULBzC7E0tg9AXIOApYcDr6+pk0+YtMqasjPQsshTgz+319dDXu2LFcnZuRGwG3DAbN37CvhdQvGAF0G0P7XgBBOCGQKvtBx58kMfAZwul/tFHH8r+/QdY5veKK6+UqVOnEHzl5uQyMBGfXbt2yv59++WOO+9g++4BP1Yf/4AH2weclQT6AwhDAgXWO1srcKrW38rF0EoXAz6IN0JWzEsvrZO7717LAEIUpwIgQIwOmD80xrr2uutUZpFEyQBkZGSxgRV6OEyciCZW1czAQVwI2sDfd//9dCXAfYiA2M8++5zttgF0d+3cKT/68Y9l6pQpzHDAMWgWte6llzjvb73lVpk+YzrjbYaTtXFW78A+aegSGHgXOfRr9reJi56Nkz1lt7+ULpTgFuCjp+pN9w3MQl7+Cy88L/fce68U5McBgpK2BUwwLU25Clhghj0w0LUwJG2tbdxhIxoavenhnwQbAXpTRUQjrYq5GeJiHXtdjGgIz5RygMDHUwDMTGsEaDY3tzIzAZHaaJeNqnTInQcli2yE7u5OUquoOokaCWAd0F4bCjc9PZMuGfhy0RoYwYtMm2MqWlT1A2luYiAimImxYysoCxgH/A2NhxBohvgP1GMYO24cc9ntz8UogTMDBJOa+N57qtTyvXALjB0nv/nN/6X7IC3Nyz4KDz30MEEmYpNQU6O2toYurcOHj8of//BHKSwqpFvr/vvuI/hAbAs6N2K+Yr7t3rVbPvzwQ1Z8RTwCjvne978nyGN6QBgAACAASURBVOwBS4B/4/5gI7797W8ROCO7CK7FEXMxXIyv+3w9U6rMxiDGbzMIgxBSag5JcC+k5qKxq1hdDJ0dnfQtQgEhLer0jzaiMSZBMwqa3TBZB2AMABTgB8V/oC/RYQ+7aBjXjEz0l/eoGu7aKCv/8OAeLk5npiCLIYZ94gDBRK2D2kWMAZQnPojFgLE3efGsaYACQMhPN4FvaCbE/HJ8HyZoYp44a+zjfA8pY+zyYPBN9T6V164AApoRsRYCqgpq94tJXRuchOyjLiwJnA4Qjh09wlgfNrtCnVS/Xz78cD1ZqTvvvIMsFprJIYsB4HzhwkWsswFWCnEKoP7BajU01EskHJXiklK6GAAAqk6eJNOFDIXFSxbLhg0bYmm2iEHA+XA3oqHV7Dlz5E9/+hMzeZCC++tf/5p9NNCwahmZtBWqq+VZsycX1pu6oEc7SP2aime0AUIqpDioa4wsQLAOAa6C5194noFLeblgEBI/cRbBBPXFd92nO72xKUc0fnNzC4P4Ko9VMoIfnegmTZ7Evhiol28C0JIVsjqziFIIEMyNLEwCi/CgMA/6VrDXBKom6gI/lrQ4tj3G33ThKZOOl7irMvn+zNPXle8Qk0FAwqZAzj4FhMBqsG22vj/6Xdifi1EC/TMIqKPhQs+KUIhNzGC8ERQIRg7Bgvv27SdgRdYM0mDhGujp6ZXp06cxfRaN1TyeNBbvQrly9DdB0Gt6RjrTHBF/cLSyktUvwVKBJTiwfz/jXeCKwJxHJk3F2LEEvMheAOBF5lL5mDEyf8ECDaDPofW5GKfAuXimc/iKbIBwLl4o7zHaAELMksboeIKFPjESCiyYqHEEOYKah98TAXtQYsjFRu8LpA7CDYHdCdKnjME8k3hNMyO2Sx4s7XDmC8b/aoIVTcEdXW7aVM0zFe0wThaI0YZelfVGeWo3+wQk21ExSwJ/o+GPgw2TcmY6B5pSuVjPuJ+pCth/qeVzNhntG42IBBIBQoCFtBDTs3jJUomEQ2QQYKzBumEOYZqCZcL3YOPwnVuzTmmI90FgcBAdXuEGVHnRWJVpGelch2iihTnK6+l+MZiHfUCwTjMGC4ZGW6oEeZhZEyyupMFyv9khIyIr+6JnLQEbIJy16EbxiRcGQIhvwPumpzE5gfEK8Q6POJYtto8ekRPHT7A6IcACXBCqOhvK9abpmAVCjT7vx7AXcDWwlr7174lU52AWRd8k/Xg8KFuIBzl+U2TH7Patufam+E6sNwOr//WfTkceBobf9FbQsjENxmKV7bT7BTtEAgUXGnTZn4tPAgkAwe/jzh8MwZKlS8XjRg8JgAI9UcFYscwyEaQy4+zNoOYqmC9jxAEUMNcC/kAsVsBUmuRSQUVUAAQwZCwipdarmeec02C5NBBW8RAK7LOLJufwYBbZxffWLrgnOoevyWYQztnsGE0AAQ9trcsQD+o7Y8wqwwv07NS/G8aBKVzNLaQ+EXWNXgeIf0CUNgq2ZGVlq9a7WhFFoqq0Ln32BAh9GxjxLlaQwEDIIXysYEG7EUxfC2sgo/Uw7qB0cZ74rfsBCJaxmfOMVGPuC8twDbvA+hKxOI0hPtMQHt8+9HxIoC9ACPh9BM6I3wHNn56RycJOCAjGR3VcVdVFARyZJMwOrGCndLt1bezVMcLeCzjb9DMx69X0wKCbT5dMjs0zfa1EiaSqINT5kPQlfc9zqDZsgHDOZtpoBQhxsKAK2en4hGT590kAghGfYQPwE2mTqCgI3yki/HHJgoJ8KS4pYeofAqsQJIiqeir1Eg18VIMZ8zkNIAwh+JHXSAAIyV4zlWtCox51brxDYX/TIwY2CGQs2atnyK0/7Rx7x3bOVt+5uZF1jTt0s6YjrI8xZ+5cpghbY34QzKpcVNr669bacCfwS4UmLfXUVRM0fLDrV1ONB2kmy8lURZVlpCemmZuWqpSxNZaiktLnRrb2Xfoqx3MjDxsgnBs5j7IYhEQL2hckGOt6GpswAECgSlLlF3W73pB0dXdJY0MjU6rAKmRlZrFdMuIU0LwJqYFpnnRBW18T3Gh2NjGgbBRZ7OcgXlo/7obEM882yzepsU9IsUy8lw0QBvHeLtRD+O6t/6HnSliOH6tkN9PCwiKmEiqAoMpDw+WkYgV0eWsRxh+oIFhrbRPVEyUaRVt3lV7rcsNNpbtY6gDZ/IJ8KSkplXRm68SZPjUsa56TErLNIFygk81mEC7QF3fGYY82BsE62L7uBgUXYl2iTnuq/nOlzcyFElRNpVQgFppVhZly1dzSzOpw3V1djJpGnYbs7BzJz81j3QAAhVicgGYU+rAJQ2USkmEhhWBSN8nMbm2w17RTyVIn+9FyJU54VRdEgU785pCO9japrq5RQa0aOLMCqT6GrZ4JCJR+QGaBzhlWlUo1q6cyhFQcAq7LOANT7yMaZVxCUXGRFBGI6I6tRAH6/6W8KNRoEfwlOA4bIFyML/0cA4TndZpjXrI0x9P20ZYvTI2E/o3oYAGCUmCmVLMqLR0MBlgjAClc7R1t0trSKr3dvSxkBAo2KzubaZNZmZmsL0CwYKVZGZCVsEKMre9v4STDAoM15oOZigMp4eRUwmCubB9zoUhA+QliVUpVe2njHkC2C4y2RquW1FrFuOm+JjpIMe6zsjRZMUG8xq1g1gCzGkzgsGq33oc9MEyCDRAulJk08DhtgDCwjC68I1K4Yx3g4VkHIQYQBlHW1yiuhOv2xyIMptqaNVBPUaiKSWCwng6iwg4J6V1oMdxQ38if/kCAqVioeogccbggUNIY+dosMoQKjoY9jelCC516Juxz2t9S8E4MODDXHgzwsBmEC2/5DjRii4tBEQSqS1ksS8G8czM/YsGweu7G/q0yEOJgwnJj+hn0vy1xL7GjNQsRW5/WeWYDhIHe4IXzdxsgXDjvajSOtC9AyBuNQ+w7JlCsobD0+nzS3qYqNyJ2AZoS+d0IagRgyMrK5E+ABUZ8k3bFpfrp7jf6n9we4cUkgRhI0A3ObSB4Mb3d0fMsNkAYPe/iQhzJBQUQzG6LvlX1gQsCDZRQ5hm9IJBCie/ALIBRoAsiO1sydalnw0jwZFspX4hT9iIZsyVux56HF8k7HYWPYQOEUfhSLqAhXUgAwaQaxhhTkwmAngnBIMEB0ibRZKkDHSfb21WfA7ebYAGFmQAYPG43yxnTp6vrGcSAg62sL6DZaw/VloAtgTNKwAYI9gQZjgQuRICQmIrVx6ZjY+YQVpFjS+rWVranhksCbgYGOGZk0P0A0ID/mGOuUy7tErLDmU32ubYEbAmMKgnYAGFUvY4RHYw1Dx+GzPw7sRpfssDA/nL4YTxNkCJ21+bcxGua8wcTdDhSQlAMgohDBzDSzWAJwDIpjmaMCHYMBkM6EwKsQoegeyVaMiOoEoVi8vJyJTc3T3Lzctm22bSjPj37wRKkGC+6EC8+wyJOCpxwjFYXhgn6ShoIZgotqcqMyvWh/1+y80ZKuPZ1bQnYErj4JGADhIvvnSZ7ImtVNbQLRkAeS65qoGAFDH387Cb/OeGnORfNYdDvHa1isatWldVUHwB8VEMYd+zf+G6gDowjCiJM1Time1kqGWrj26fAkKWZFOSHYjR+n48uiO6ebmluamYFu96eXuaGl5WVSXFxEQs0wS2BCo4ECuwrAXmYDAgWr1e16pGihrbOobACLjg8FGbVO+XGUOfT5LtUDwnkp1sbQeF7yjwUb+qEa+LaCmdY7ntpTHf7KW0J2BJIhQRsgJAKKY7+a7CAEJqoOJ3Kr64NuTHg+I4tiC211a1sQCLAwHH4rqurS5566in55je/yVRBc771fpCOlUEw5xoQYb1nH4M2EmKNAQQLezCUuAHNPiBlsre3l0WZ0BeipbWF7ALkCiYFnSZLS0okMztLgbAIUi5ZWIFPZZo0mQ1/OBLhdyh9iwJOaIRjZKbOU8wCyt7yV3aOVBXrYmCApaf9kp6ZyWL6ptMjYiVs18dITCb7mrYELnIJ2ADhIn/BlscDcwBjjGA87OqNG8AYf/NvK1Awp7NlsWYFrO4GuBieffZZuf/++6WgoCBWe8AKEHBfA0hM4xcaSX09K6tgZQ9GjEkYbkkC04JZhAYZ48RPdNI7fuyYBIJBVmrEdwBeOdnZMmXKFDaTAmsAZgDGHcceOnSILMSUKVNl6pQpBBr79u4jIzFnzhwpKiqKsQVosdvQ2CCVlZUspTtt2jQpKCiMtYPGez1+4oRUHj0quXl5smTJEsnMyCAbYe09cenMePtJbQnYEhiWBGyAMCzxXVAnwyBj1wvj4vP5ZMOGDbJq1Srm/qMewJdffkmDdtlll8mMGTPohoCh7+7ulj179si+ffv47wULFtB47dq1Sz777DPZv3+//PSnP5XJkyfHQAdAwd69e2Xbtm1SWloqS5cupYE0HxhVGLRjMKiBAA0ojKqqN6Bm5WgGCNjtgwwIBoIcK8AA5PHxxo18VjwPnv3gwQMs+1wxtkJWrlwp48dPINOC8zdt2iTHjh+X0tISAoRJEyfKCy+8IJBdT08P5fHwIw8z1gGMQVNzs2za9KWcOnWKzacWLVok8xcsYEomMA/kvWXLFr7DluZmufzyy/kf3B0AJQOmZQ4XOF1Qq8EerC0BWwIDSsAGCAOK6KI5wPQqwE73o48+YnDhv/zLv9Bwv//++zQ8MEr5+flyxRVX8CfYBICHr776ij8rKipk3rx5NGAff/wxjd1bb70lK1askIceeogR/jBQaMOMawKQgDUAoICxMkYfAAWAY926dWQecC58+FZwMHoBgmJTTNAjGAMY+9defZXG/a61a2XmjBny+Ref05ADkB04cIANo8AI5OfnEZTt3r1bpk6dKvPnzaeMcM1f/P3fy2OPPiqtbW3yH7//vTzxxBOSk5vL6x46eJDnTJgwQRqbGpk5sXzFCroycC7eKQIpVyxfQdmjSdV9991HNoKuicG4UmyQcNGsd/tBbAkMWwI2QBi2CC+ICxjKHwZ769atsn37djII//iP/0ifOQw1jDgCDcEWXHXVVTFGAMABhgkGHMwCjoHBA+Mwf/58efLJJ6WkpER+8pOf8Fq4F3bTb775Jg0UOswhVuG2225jmiD+jmt+8cUXHAuYBxyHa1wYDIICByZJAIAI4Km6uppsCpiACRMn8tkAqPDMu3bulLnz5rGWQktLC3f7+Pu4sWMJEhYvWcxGUm+8/jqNOQCYx+2RBx58kAwBAMK27dvY1hoAAB0ra+vqZNWqlTJmTDnHg4BR9JIA2HjxxRfZoOqee+6hO0l15GOLzDN/bIBwQaxne5C2BM6JBAbSFykchN3uOYXCHMqlTIwBGAQYGsQNgBL/1a9+Jd///ve50wS1jUwE/H3z5s2yfPly+rjBIOzcuVNee+01uhpgzK6++mrugHfs2CGffPIJDeODDz4o11xzDd0SMJgwfmAYABpAtR8/flxuueUWMg4wYHAroM4AQAIMG/4GgGDNoBi9DEK8jS7eA9IhUQe/vr5ePvjgAxk7tkLKyytk7549MnHiRDIIkCHAFGTqzUiXrV9tIRgAOKqpRQe+iMydM0dOnDjBV4tgxfT0DPnRD3/IQEi8ux07dkpV1UmyO5D5kcNH6CKaOGmScsk4Hexc+fnnn8u+ffvlvnvvldKyUtWECoGP1k+qFr4NKIayFO1jbQlcWBJIlZ4YxFPbAGEQQhqJQ6z1DszvMPY/+9nP5Ac/+AEN2DPPPCM333wzd6JwJ8BfPnv2bBpy7HbBOGD3i50tdsRwP8Dfje9eeuklgobHH3+cwAHGDCzEu+++y+vjOOx4b7/9dp6HexhKff369XRH4N6JLoaRkAWvOVyjZuooaAqBzH1UpL6hQd577z3KBMBg65YtdAfARbB71y7GdsycOZPpj6FgiAApMyuLroN1L6+T+fMXyJ/++Ee56uqrpLy8XN57730yPAxUZIzBHqmtrZO5c+dSnq2tLbJq1WrKzeVxE5h9vH6DfLJxo9x8y82yYP4CycjM0KDLNOYxKY8pku5wZZmiYdiXsSVgS2AEJGADhBEQ6ii7pJVBgPGGvxoMwi9+8Qv54Q9/GGMQbrrpJn4Pg45AO7gTTEAjvgfTAHbhyJEjNPTY+S9btkz+7d/+TcaPH89robKgAQjvvPOOPProo4w1aG1tJQjANUwNBowDAKGhoYF/QzAjd8KD8ZUPR8bDNWqmRLMBCDqNE8+BOICyMWNk2tSp8umnnzLuAM9bU1Mtl19+hZSVlvL5AA4A0hCzUVtXK3t276Esn3r6abI327dvk82bNsv3vvc9un4KCwsZ0Lh79y6ZMnmKdHahwZTI6tWrJTcnh6ALLohXXnlFblhzA2MT8GGlR0vgpxbwwK6Gwcp3uLIc7H3s42wJ2BI49xKwAcK5l/n5uKO1joGpX/Dzn/+cLgYY5tdff53sAHauMHRwF2AnjGPh9walDfcAAhyxU0VgIeIQEOCIOgiIqIcxA6DAB1T5G2+8QZcEwAWCHxGkiL+DPTAgAS4K+O9vuOEG3u+CSHMEXWCKLBHRKAYBsgEoKCoulsWLF8vOnTvIAkCGYAVmz5oljY1NsRRTPHttbS0ZAoCDWTNnyrvvvcfzwDBAdjNnzZRDBw8xVTEnJ5tpkVUnq/ierl+zRiaMH0+gAbkBnKzfsEEWL14kkXBErrr6ajI7fUBXrGhSimahDRBSJEj7MrYERqEEbIAwCl/KCA3JWr8ARgVxB2vWrCFFDVYAhh7MAAw50vQAFLDjh0FHlD6YABim6667jvECiB+AQUQQoklzhAGDoceOF2wDjNbYsWPlxhtvpCGEnx7gAqAETAPObWpqkoULFxKAWI3ZiDEJqTBqSXreBwJ+aWtrp7zADCCOoLamlo2gKsaOpSx7eroJEPAfCizV1dfTLQNDjyyD3t4egiuvN43gC10k29s7pKurU9rb2gkQEJyId4Z004L8fIIuAIie3h4eY2JNIHcEScZkamVmUrXwUyHLEZrv9mVtCdgSGKYEUqUnBjEMOwZhEEIayUOs1QzxO6LpAQhgUBBrgJ8wNjDMptohxgNXgClwZOIHcDy+M82a7r33XgIDfI9z8Tcca4oyWSssWilvBEUiwwGZEWAVLgwGQZdoTnhZqFWAgEJV3lDVc8B/wUCAMkS6oZFDMBhgFoSRNwIdAwHVZtqJjAP8ke0VojwXjIA3LY2lnquqquRYZSVln1+QLyXFJSyMVFBYyCwGb3oaO05aezqcVkkxVQvfBggjuWTta9sSOL8SSJWeGMRT2ABhEEIayUOsAMF6H7gMAA6MUcffrADBgAJTaRF/Ny4LuCWee+45VlIE2DB/s1ZPNPeCocN9YKzMvRJZggsZIMSeMxwmRqAMFVaQSCQaL6+MxkyWZlkEXzrS0fRPUKAMvRdMIUWkKKLBlu7pEI3SpVFXW8v4Dp/fz8ZRyHzISE+XwqJC8Xq8KkhRt6WOAbOhxnicSUnYAGEkl6x9bVsC51cCNkA4v/IfDXc3u9RkY0lG81u/Q6AiAAIYBBNtb65jdWn09525VjLwMqpdDMmElcTtQMNvXWTsBRGvodDfM8blgRslabakMykAuMBGwLXR0d5OVgi1LpBpkp6RISXFxWQXABqY7qh7bZw2/D6xCQlawQYIo2GZ2mOwJXDuJWADhHMv89F2x8QARuv4RgIgJLIEiUBixIBBDKWM0BsYFEBI7p5IHFFStscYcQ0OuHZ1Iye4IMLhkPj9Aenu7mKnSaRdwu2RnZMj2VlZbCCFnwAPScGCNdthsPEKNoMwQpPJvqwtgVEgARsgjIKXcJ6HkKxOAvet/VDRw2UQkrkRrCDhogMIFhKAr1q3YT7Ta7e6c3ic9V0kASLo7YCOkMpdgf9TqZRtbW3S2tIiHZ2d4na5xJvmleysbMnMyuRPuCBQsZENnSz36fMOzgQWbIBwnlevfXtbAiMoARsgjKBwL6BLW1mEgYY9WICQ7DrnFAj09yAjadQSjXeytMI+KZL9rEDrdRKBWkIdhkQwp+I8VOwCbhUKBMSHDIvWNmlvb5Oent5YzIlhFvJycyUtPZ0gAo2dYi2ijQz7AwkjKcuBJuJo//tQlasty/7faH+ytGU2sqtgqHN4GKOxgxSHIbxzcepgQYINEM7wNgYLEAZ6oWcCCLoOQzKwFZUoW0nrVAq2eUaaJXoxMKvE75Ou7m52mETJbcSQINME6ZT5efl0Q6C4ktUNYYZqAi7jQRUagSQyHAM926Xy9wTlmmjLTtO9trGzAcJoWxs2QBhtb+T8jSdZUOFAozlTkOJA516Ufx/QCgzyqa3XSbZILYGO8Suq4EdkOgAYGCCH+ASkP5osCPOekb0CNwQCG/Ez4A/QzQAmISc7m8GNqE3BOgtOk1GhMjDMv/s8zVCzIwYpigvusCTAIJntx2FJ9a8NFOKvfLAGypbZyCyTwco/BXe3GYQUCHGkLzFUkGADhJF+I8mv39976s+Fg5gEsAsxNkAzFCb1FNUuUY+iu6OTZZwDfj8BBWIasjIzJS8/T4qLisXjVbUqyFIQKFjMnA0Qklp8w+cke5MKdiV8bGOnBDJU42TLLfXKaKjvYBgjsAHCMIR3rk61AcK5kvTw7jNkgGCpu2AFCQAIJiASugAlnlGMCXUV4IJoamqkCwLYAsWs4IIoLChgkylUgyRA0L4H9eMcapThiXBkzrY8vrFXZ7Jb5vA+UrMN3WkAoT+R2HIbmWkcu+o5XM42QBjhd3k+Lm9lEFBe2f6cXwkMJWXUxJzEUipV6UbGL+AHil35/T4ChJ7uHhZmQkYE3BcACsUlxWwUlZGewSqYpjgU/n7JfrRCtRq0/hiERHAQ08U2QOgDEPoDWqe5aGy5pX7Z2QAh9TI9V1dUlLFaFX3fIxR9QoGekRhUVKS9o4OFku67914pKCwYibvY1xyCBPqLkezvEipmQQUbwgnhMBdwWB0SKtCxt7tHOtAToqNd2js76YYAA5GRkckulWVlpZKWlk4AYdIt+x16qpR5qq4zBBknPbS/ZJQkgMF6vvU0RyKqONOYTkMT+OJMUGSAiMnhPn8qz08caj8yJEAYLe8/lc8/mq5lA4TR9DaGMhajwDVAoJJPQliaSn6JuiMRfuuFhqs6Ytfpfzw8TufaP/fc83LvffdKQYEqtZzyj+5JoIBQfMaaMZz1/YxONQjLKBtzi5i1HfwqGfSY+rv3UB7G8s7MaYw1QACj/kK9/iRgMXYu+QIFEFACms8c6Ys4XW5+FQmFOMX8oSA7dKLhF9wQqLXQ1dnJ+xQVFUrF2HEEi3BBxMo78376pszBjP+z30e2yijZQYM2DokvNt6B86zvnfREy4A4ZRLmjX7sPgDhjKAAf4xNRnWa9Sv+SZfe5u0sWSU8WJ8bK7A1AFrpM7B+3g97hCRZD+ZdJQz3jNO5v2vFJ3P89CSyA82lAIJ5Tv3rQPNmKGvsUj928Kpv2JKyXQzDFqH1AlAMWMRYOdDeBiA4+e9wKKSCyLxu7ugQVBYNqj4IbCQE33GMCXbwb8yfd6LBEHoIqHQ5lROvZonVOIdDQRGHU7q7umTdunVy9733SG5ubnyAMV6QV1IGKBZJDwpbRcNzHAkfjlWXJGY0vssh4UCI3RHZJhpVAyNhjo8NkNCzIIaP1HUjIe1bT7i2yu9XRtHhcfFa0XBUnG6nUjb4D5cLqwZJRiMjC4BypILWithS4wCywfgioTCLDrEPg+49gSGYZldKkAnPjfuF1P3QswHPBLngfI5VKzyOj8DOwXeFd06ZxgCBfk/o/aCrLbJxlset3rXlncQRhLpmFMY/GBIHrsm5Yf5zaoOgro1LoNNEmKYJsotIOBhil8ra2jp2AAVYQHvvaVOnSlFhESs5ul1ugg/KHcWc1IXUFSFUt0P92zwLZaTtn8UGxF7naQDDIB5jBHVJa7xfwfv1qHthneC6bjVnzD3VBNXP6lZzQIL6mpA13SYWQ2TkyXei3kEkEIynl2L8BpjhXJdlXFbjbYRq5MDnwtoDSHMoWbGZR1ii0TDnF94nmns58F4J1FVFzViKaxTrVjXr4rjNPA2pa8b+CygdoReEfjyHiEs/U1DrGMwFPGIwLEIdgedxqTmSuNEw6zlkZG0BJdBT5jXhvWB+o0AX3gXkEzbryrJo9XyPyQ+6AXEz+BmKcCk66d5SoNbhxeDtT8okYAOElIny3F4oGhG0F26pb5DW+kYJ+wLigfGLOiSE+vzhkHgz0qWopETyCwppWJubmqS9rU2CwRD9y6CHsaicogABWhQXFRYyvQ1le1tb2/gf7sPFTCWJ7oJRSU9Lk+KSEhqoN998U26++WbuJrGztKIEHIsP0uVwPFLo/L5e6WjvYGodOh1aP1DnaC40tqJCcgA4nE7paGuTmtpajgNK19oZ0u1xM2+/sLCI7ZTRLrmluZmR+Hy+hA+qBpaPGSOe9HTxZmdJe32DtKHZUcDPZkpWAwSZFbNTYi4bJ/l9fmlpbWXPg3AozOvTk+N0isfjljSvlw2rCouK2JkR10UKoV+P2zRowk/IGuOGHx/nd3d2SV1drXR1dVOm2H3jg3vg72jrjBbbaelpvDbeJZo0hcIhBbT0wMORKMeBY/HuIf321hZpaWmV3p4eZeS1AcI793o9bPJUUFAo6RmZEu7tlSbIpKtDwrChsC8ul5SNKZf8kmKJwKC4XRK17CJh+NkTIhQUX69P/L0+aWxokLqaWqZOlhSVSGZ6ujjDYWVTiHgM6IyyomNxaQlrL+A6GCuejw2riBIUuDS3RBvsnJxcGsEuVIpsxvM1x7plmpgKk4FRVl7O9+3v6VFVJTs6tNx06qY2xgAy+bm5kltWRoPc29YujU1NBDwmmNNcOz0jXUpLSiUXHTQ9bvF390hLYwMzQTDnDShWXI6DJa5LK8olLSdHwoGAdHAttovP59M2UwEanIt5V1pWKnmFRXxuX3cX9bOq2AAAIABJREFUx93Z3Sn+QIBzDSmqAKRYC9m5WWyfnpGZySBTzP36ujpxOpSxJHhFA7FwhM280HU1O79AXC63tGEcaCfe2cF5EUtfBU5wOqkLiopLxJOZSfm11NdLd08P35OShUPCkRANP+d+cZFk5ORINBQWX0+P1NbU6JgW9WycfzowtrCoWAqKCgme0U+kubGJOoTg1kxo/dIzszJkzJhySc/OkYCvV9qam6WjtV1n24hEnA7JKcyXsnEVkp6VhcGfW318sd7NBggX5puNhkNUHFWHj8rJI0ck1NUrjlBUXGbTE42KO80jY8orpKSkVFxOF4PMQAdDgWBBxulfpcagdOFHhrFALj2UfH19vfj8gdhuVuXSo02xh3RydnaObFi/XlatXs3r9wUI2sCJ0ICPHVshmZlZ0tOrAt4aGhqpIPt+oCDdMnPGLMnJzaHCampsYotjRNbDF+5BXr5DCIRgVGAMoaxxbHdPtzQ21Et7B5T66Rw0xj1p0iTJJwiKSG1tjTQ3txB8hEJh2i0YZyhgPGhZ+RgqSJwHhVh1qlpaW1touKh0IxGe53K7JDcnlwYf8sbfGhshvwYaTux4sOszBp8ZAbl5UlZWxhbPkMnRo5XS1d1FhYn3BQOgWkhHmDlQXl4uWVnZ4vP7pAHAsLWV4+ybvihMSyyvKOe1ocgb6uulqblZ0HlTbVTB0ACKqfcIWZQWl0h+bp4EfD6prq2WprZWCYCJcjmkratLisvL5ZobrxfBbg0AQe+OCRlN7QVNd0TJbkTE39sr9dV1UlV5TBpqajlPPeKUMWWlZJtUFoSThqWiokIyMzIkEAxyzgFcgAUDWDTggF0po8Jji4qLJCsri8cBELa2tanul9i4wgCJSEZ6muTl5QsABeQNl0hdXZ00NTcRIJsul3wnDuH7AJAtG1MmTqeL8q0+dYqFpVS2hpI05g0qTuJ9lI0ZQ2AKwwZjCPABA2f0KkcSiUpWdraMGztW8gsLJBwMEgTh+njfBnzgOPwPDBJAbFFxMWWCuYxxACBgDWB9hKIRGnBM2IysDJkwYTzBNwJKcd2GhnpxiosyZN0KwcYhxA6fY0rLCHw9Hq80NzVyLG3t7XqNq+fEnMO7AagfP34c40y6ujqlvq6ex/p8vTFWkGwgAldzc6W4qIhtx8HwdXZ0ysmqKtUCPaKuqYBTVNxuD99LWUkJGUBU98R7hxyNi0yRRKoLalZ2lowfP4HvBzoDgLC9tZ3v1BcOSk8oIFn5ubJwxXIZM2E8QWzfzzm0dBemSUk+6nMoNtvFkKqJEwGVHRJ/e4c0n6iSYEeXeCJR8YpT3OJU7gV8nGAB1Y6bisqU6KUisjKmhsN2UOkkugJIdxq6VBfoUbtztSv46KMP5dprrxVvWpreVZxm8zWTiV2ggwqRuywU9EnwZ5qgOeyi+AiaAoWhg1KHMjYGF0ZZKXoHi/nQwOsdcn+ihvJBPwIYJ+zgsBOEMMCYkJHlzkONE4oNu2fszHp8vfwORhb3LMjNEyeNPlwD8fbO3BtDhthZhTUgMG4Ailn5cPGrYkKcyq0TFQmC5qdM4MqAiyTedlspYTUuGDaTgUBWApS/bqNNlwL7Kqh3qo5ToAAAhUpazwMe69QdHnEv3awpFAlLQKIScjgl4IzIyfo66YlE5Oqb1khGQZ6ASFcyUj8pMY5DfSLhqDhgYOC6CYakrbZWmmvqpbu1VepPnZK66mq6IGDoy8rLxO1ySk52Do0XDE+QVD1YZ1VvgdLUYzP3NBbYMCg09mZcmJfahWXYJsWyKDdQLNPD0N2QDeRuidUgW4b3az3euNnowlHHx963JY0UwBWyh2wxX8gWZecQDOB5MG8Nm2TmiHG54R1g7Jif1iwTBoNmZRHce9xucWF90LuI67klFI4Q9EOuuD/mJIJIsS60KlAGXXsPsM4JTGLPiLmm3UgEWWEeT7CK8erYFlzAnGcNsTDrWr0n5cbDB2CKs0SrGI5Ze+n4buhK0/OUA9TMkh4r51NsvhqJq0gfzFOsWm9WpjR1tElNc6NMmj5dJs2dLc7MdO0nMprAZhTOyvzYAOGsxHZeT+KuEqlnTc3SU1UnaaGIBLu6Jc3pEi/838ZPxwWn6c4BRsylZ6WNkwUiKeurqEhxUHH0+nzy7rvvyupVq7kTTFZhL0YX6h0YjjGKkHSjZWwxRa5357gHdnM4DvfCbh+7T7AL6DHgzcggnUifLBQ9fJt6d5zskUEqQHEiPbMEzAB2xNGwovQdDhppuBFA1bd3dUpHZ4dSkh4XmYvSsjIpKiiQQK9f3NSWaodI8wjDbYkHVMYlZreUodNGXslaBRRSCeKdhoIETiYLAN9B2ePaHIPx3cc0brzuAK5jQBSujF2oCRLE94xZwPcwLi4X70tDAr+0jpGAkcX9EVsQdjol7HJJxOuSky1NUtfdJQtXr5DC8jKJePDkACpKexgDzt0ewVaEcxBHRTu7pPn4SXH5g9Ld0iJpToekeTxSXX1KqqpOcscNehxsB9woSJnUAhE3DI3GsfHfohLWYInxJzB0eBYwKRoUkOWiEVIxGn14JD0HldwVeMIxMaOtjRWuqQyhjmVxOrmbx30AEHE+DHNMxhow495ICYUbCmm/MMQEsS6X9HR3Sy6ApUO5AQ2l7yYjA0YsRPcfvsfuHmCus6NDcnKydRqpgzUquMbArDU1///svWdwXNl1Lvp1RjcyARI5ZxIEc46TqNEkaUYj+yk+S/K7fvIt2+XyD4dyKP+9rvJVle6zy0/yu/aTZI00ozRJ0uThMGeCBAgi55xDNzq/+tbeu/sABElwRvKt0VOrRiTA7tPn7LPPWt/61rfWgtuTolIES0vqGJGIAIiSkhL4UjzJ4V1afGrYGIIvBVS1BkEidQt4WvVMmh+tNsLsXQHWeg3JrEW4b5kCEWZG73mTUrKr5lt8P69PUhWa6Vthf6w3Tf6u9AsJf0Vg4bAhzLV02DExP4Ox2WnklZWgYmsT3JlZK7QzdwhG/5da8I/Rl/8WIHyMbpY+VT54zOOP3u7A8KWb2FJeCQ+jjrhNBGMMgh2ibr6TYr/X1a4LIIguUtGQNMCBSBgn33kXxx46LgwChUZSLmcNL8ShqbNRkawxuoqxMA9vQmTF6JOG3eSfNeXJ9AE1Ed4Un+TXSWMv+BfRPzQgFGRxUTFcIoZTjtlEhDHRP9HxKRHU5MQUXn3lVXz6maeRl79JASM652gMo+PjuHjlCjy+VExSb7AwD4/HBYfbhZnZGVRVVeH40WPC1qTY+V2aFTBO26itTeXFCvSjNXlyE7TA0Cr+1GGWOGlGcHTcdjWdUf2OtK9iEBL3Sn8PDa38XgRkSnAZi6rcsLAiItwkgxDVERnXXqUyTPSnHBZ/diDKagXEwQz5ggOIZqchqzAfaRtzJMVAh22YA3V7dfWEjqQJEOyhKCZ7etHTfANFGVnY4PXCxnOKRpWmIxwSTQzz/P7FJXF+qb5UoalJV6emeAUkJNMMul20vmYRhWoQIMxXov8CL17R02bPJRychSVICvQUU6BQhXqndX3l2jRFzlsk94TRsV5L+RjviwYDpMmZ9sjJzhGtDlkvalxutbYib1MeigqL1DoT3JAZi0Zkb4pGkuJW+T7Iupw+cxYN9fWor6sVpkUYJhDkhvGDF3+MsrJyDI+OYHh4BKWlZfJ8MY24adNGHD50ENmZWQoAifCQ+5/XqbUAWgisflT6A7OGCZZllcFIsCyWShn1aSVqViCNzIPR0CggthawUMHAKitlBQH6uwXorZITEYjHnHZEHDZhuRaiIUQ9DqRTX1FQDFdGthKdfpTX/aosPsqxtQ2wAhcl2tTi2Y987F/RAX4LEH5FC/mfeBg6D+Z3u6/dQO+ZKzi2fRc8dMxU7tv4oNPE0BAoY7LWa7XfShpQwweap3PlEWigBPmTmXDYsRQK4p2T7+HosWNIY/QXjsIRjcNtZ7LD8oDKYfS3GnbCUrS/ImCg4RfKNIyp6Rnk5ueJIyA4oAGz2xX9Or+4iMHhAXR0tqO0uBhb6huQ4nQjIzVNnCFTEb60VCwFlzE6OYElOqDUDHg9Prz26it45sknUJS3UdaKoCYWjmBgaARnL1xCamY2liMR5JUWorSyFL40Ly5fuYyR0VEcOXQYhVkbkBLXI5KtRQ0WA6fN8EqwZK7dZHWMidTMjMEbpkGhYkOUY5QUgLbzBnApb2YE+jqNpHlkE+UnqkLkMCYm13cj0fdAH1twJcEZELHZEHI5sOixI5TpQ1reRniyM+HwuGGPqxSDSqYk9wg/zmDaQYAQAwZutuD2hQuozS/AxlQf3CJSVIBHzYxQKSc6PAr8FucXMDM9I4JQgoSNkof3SX6dkbFJqShvakT4KuUioFVvWwEOoohkqkABicRarYKvJn2R4MV1akZ2rOVjxsklNAOyADaEwiGJ4N0pHrVPqd8IhbEpPx8LC/OYItO3vIwzZ06joqwC+/fuE/Fm/qYCqQiZnZ1GerpX0lxktgLLIaSlZSEQCOHc+fPY1rQV9bU1sMvzTOqfLIoN3/ne91FZVSOaGOpe9uzZK4xGR0c7rl+7hkOHDiE/L0/W2UG7oMt0TCpJbRPDIKy0EmY9EwTY3RhFS0ovkf7RqceETdGpKOvP8r36ubGCEbPGK6yOVGitLuGUHJQAhIAtBj/FVxleuDLT4c3Jgzcz56MBBB3IJFIeOp1jKpDuCIAe0P4rdkpVlSWqzISV0lUrD3i834S3/1aD8Cu6iwQIywE/Oi5dQ9/ZK3h4x174aNFJGctzR0OinN4qgnXFGVjY78TvrXlYkyu3foifCSKGaf8CpuZnEYhHcL21FZu3boHP7UFB1gZs8KbDwZJKgpZ1khjWc6HBZUS8ML+IH//sZ3jsEycQikTw5lvvIDM7G/kFBZKLvXDxknibsfERNDU2orayGrFgCI219aLY7+3txfZdO3G9rRVnLp7Hgj+IrOwcfPa538H777yNZ574JIryc4VtEdYhGsPA4AjOXbqKrNw8LAZD8Gb5UFZVimg8ilu3WkXfceTwYeRnbUA8EE6ur9WR6L+vBcLkdxbrt9K9qpVWtlCXeq54v4ra7/Va0cJijWjsbmBRomAyCPwMNxF3kB0IuB1Y8jgRzUqFL18BBJvLJWJYGjddY5B0zPr8CQ54/wUgnL+A2oJ8BRAkPaUvSvIxxvAz9w6pDvEHlrGwuCBCzNm5WREYZmVnIyMzCx5vioj0KBIUel9xF0n62SwwUzlMkywHV6rztVNUflGDpXs4v8R6WaPJRHpCsVJ9AwO4fvMGSsvL4HZ7cOHSRUzPTGP79u0Ym5zE7du3EYnGcau9FXu278HBfftx4/oNHDv2EGx2B643X8Hu3dtkH39w8hSmZxZQVlaFnTv3oKe3D41bNqO+tgouWxQ2YZbiWA6G8f0fvIiaugYR/FL8u23bNolAO263Y2RkBIcPHkR2drbYAhfLeBWfooFdMiRIXr4FLGhGJQkQ7r7rkjh/nQ+7STfo50ATGGpXWJGBOZyVpVv1FVEHsOwA/C4gnOqCJzcb6ZsK4fZmrjrYgxlfSdnplB8DFan6YtWIdujqQX2wY1qMbIJRYSDES2Z1EveOMAj/P339FiD8im48aUkChNuXrqL/3FU8YgEIpIbJIpiueAq8K8OwvpdVi5AsLTOfpe8IOoC+yVE0t91C7+ggBkaHkbVhA4rzCnBo916UbSqAIxwTJsG5qufOus5Bi6SoOfjg5GlhKjbmbUJ3d6/kfV0eD5YWlyRtsH3XdrS0tqCyvFwASkdrK3Y0NsG/sIjOri7s3r8PvcODcHg9mJiZxRtvvoPPfuZ/w5UL5/H8p55Bfm4mnNJHQpWBDQ2P4eSZC0jNysHMwgIWAgvYmJejatCjYdTX16O2pgYeh0sBILO867qwO99kpV7Nvybz4yvvmTX6/5Bfd4+PqSjNwcibm4huxQEEXA5MRENYcAEF9TVIz9+EuMMJaRWghY3WgwoBwd8LQDAMwnnU5Odj01oAQe/MOFkL7SFsDqckyMKREBZZWjczjdm5eSyHlpVanlMmMzLhFVbBBY/bBScZK+59qaVnCi4Eb1oq7OzvoYWsJupLMgaWVIIBLXddIUuDoMQkzTjidhtm5mZx9fp1uDxuVaY5O4Op6Wk0bN6M3v4+qWA4fOiIdBxtamxCaVEJfvqTn+Hhhx4RpubChbPYd2A3giEKYGPwB8Lo6OjFxk2FornZsb0Jm+uq4bbHYIspUMr1+s73XkBxWTl6e/uEeaioqJCzZyVRYUEBtm9vEk0HAwqXCA2VV1PMj3olo35z4cZDr9de6E6cD7gh19r31kOs7ippKnUSv9enRxC77ARm4kFMx0PILC5AfkU13N40jcQ/HEcuAlHRSETQ3d0tFVcqHaoFuRb28wEvXR1Dpwp5A5iGYtDDqhURGAt6/TBH/Xh/5rcA4Vd0/1jBsBwI4PalK+g/f00AgleScopBiBEg0Ejr9rnrBweydS2puzUAAtQDORVYxLkrF3H1VgsmZqeFyt+xZSuOHzyCDJcHjnAcKTYHHHQUD/gwqfJElkVFMdA/iKvNzXCznHHTJszOz8s5shab72pobMCNlpuoLCtHqseD9pstAhAW5ubQ1dODPfv3oaO3G6NTk5hZXEJ7Rzeee/Z5XLt4Ec898xQKc7OFfpVGQTGyEVM4dfYCUjOysBhYhsPNcrZNcDlsyMhIl/JBX4pXHJERdq5Kwlju8nqe8rV4hrtvFFvCQiZTBXd/txUY3uv9+n3i2JP5Xjq/gNOG3rlpDPjnsfXoQWwsL5HqBpfeX0o8mPQ2sg0NQJAUQyvaz59HTUE+cr1kEAyzJUlx5bJ0Tx0BJTwVafqjkBcjKoKFYDgsJXBMK7FXhIhSbTbVeyIjU8ZTMwrjvmF6YmhgCOm+VBTk5cOp6WweUqVEzPkaHZvpRnW/B1RTMma55GM2Ec+2d3VicGhQylWzc3IwMDiAxqat6OrukpLCbU3b8R//8R/YvWs3SotL8dMf/xQHDx6Syo1zF85iz94dWFicRV//IGZnFrC8HEFVVR0mBSBsQ31dFVLYmwgRYQRC4Ri+9x8voLyiGiNjY9IfYVtTk4gZWTWxcWMu0lJ9Sl9CgapUxOg0kgYJZj0kXSXPqJnFkVwfy6296+LcTa9wdy+n78E9Ho87mEfrY2LZ1jF7XBiE0eAi+hamkVtRiurGRnjT0i1VDOt5Vu68PAIEVtVcunRJ1qe4uCQh0jb9Le63Y+7173JWdrsIpdnzhUyZ3COtcVFI4qN8w8frs78FCB/hflkpeClxJEC4eAX9F65JisHLuIJqdQEIOrqTnGwyL7ver18h0FpFv5JSZYohbAdau9px8vw59Az1o6CoEJ946BHUlVfBFgzDFQU8cAhIEQZ4nTZY0ulKYSifm5mdx9vvvC3tfffs24fO7m7JLTJKojK8sakRFy9dRF7uRmzIzETHrVvIz92ISDAktf+VNVU4feECqutq4fB48MprP8fvPP+7aGluxlOPn0BRXi6ccoJKZDU8Moaz5y/Bl54JVmiVlBajuqocbum8lywPZRMalnMlDaiJzzSNq7iF+yz5ambn/p9ZeTvWc3zrKdzt/UYBpsABo39x3IzOHDZ0To2hd2EWu088hNzSEkTYGIolcNKY7y4AgbcwCgzevIXbGiDk+HxwUYgle1LnWrVuTqZHi0FMroGkykT855CqEikf1ACE4lHW+3MfkPpl7jYtI02idfZEuHrpigjl9u3Zg4KcTVJRoY6shXHCplufqvutpayI/k8dSX7SXTnHJibw/gcn4XS7UFZWJsCgfstmdHR2YmNOLjbXN+BHL72EkuISNDVtw89f/4XU9budTtxub8PuvTvR29sl1SfelDQMD42jsLBENDjbmhpRVVmGFKcdTi4qqL9Zwo9/8jKqq+swPTcnDY327qUGQQlPuVcjkZAID03ViqoWoBZB3d/EeqiHTj2nFtFFAkoRqK1YnpXsQjJFYGUf7v3A3zdKXpUes96pxG1gMtWm9uhIYB49sxPYWFmGmqZG+DKYYtDPp3z4Aal7rUHgsLKrV65KhVZdfZ2l6mM1+7Re63r396n9r/9vxZ8f/dgfhyP8FiB8iLt0hwuhk2KNsz+AjivX0HfhGo5v34MUsuSxCGIOkSfKA59kEPQXr8MGrtAgWNXc2jnyEGKoHXZML8zh9KULaG5rxZamrTiy7wDSXCmSVnDH6QK0EEkr+yW1fd+X6qQoAjTYJHK8ePESHG4niisr0D8wKOwIARLp0+rqKtxovi65QUaLQ/19WJybF2PHSKpucz0uX7umtBkONouaxf59BzDU34v9e3YjOz1NVXxogzA1OYOOrh54vKkIR2PYwNkChflwcl1FMChNXcX5UCxpgEwyLrVaNnXBd9VhiOjQ1ICbboFrLNKDkQyrgMn9qOJk22slZrNJakikAZJOsqFjcgy9i7PY+/gj2FBShKjNDie7I8tGs9ChUnmiGQQDEFpuoePCJVTl5WFDqg920v06SmInRHb+0yl9ie7VeiUjTP0b1faa38n2wiyR473g+YUIBCew4PcjbIshEAqJqr+t7baIXLdv245tNfXYlJ0jTaESq5vAIcnvXHNr3jWUtfR9QByL/iVcuXpVum7SmVCXUFCYj/GJCWzMzkFFaRk+eP8kIuEQ6usa0NfbJ102JaftAJqaGtHT2y0liykeH2xwIndjvjQbqqmtRv6mXLgdNjhEzh/DwkIAZ86dR1FJGaZmp5GWnoHNW7YkemCovh5qv0rZrDTe0gBBpxt55QkGaA2AoGtTrJjNApLWAp5mUQ0bcY8H/j62wLrsPDVWvfCaHDZVQcN0IEV+cbsdQacdo4F59M6MC0CobmqEN/OjAwSCJTZlunb1qkwvraurlSCC9o+gizonU8JKlibF64XXy26gCmHz39iHQoS1WkArjc1Yxip7Man5MBVKCTsiKE6QW/J5Nj9aWqMlfqVvByuB2ITK9Ijh88VmciIGZrfTcFjansv5RaPyPCWYUEuPigQiXJfNvq9RX9cbfgsQ1rVMyTcZcLASPcekjWmENOqtdgxdbcGOihq42BOf2oR4BEuhZSmdEmMr+2wtKdzaJ5N8v7H9aoeYpi3SMkUo4RhCsRg6+rrR1tWJ2oZ6VFdUwBaOSbQmeN3im1Skdf9XooxMK/a5idlshiVNASeZgxBSbU6k2Z3IcKcgzZcqLY1pPEjRhZcDoj+gUWTTGFJ3k9NTWAz4pbkM2wmzKxzbwOZkZ8ElJaGMnFXTJ9ahB5bD0t+d9dx2pwOuFA8Wg0vwh0Oq1bD0MuC1sE5Dz4GQFv/mcbWUda0pFEw+dcJ+66hN5cbXWCOL8lCt4f1W0nqQ+7w3MR9BldBleH1IszmFHeAr5LChfWIUPYszOPDkCWQVFSJqs6kUg0F85utWAwSW6nV0o7/5JgozspDudtFqiuBzIRCAw+2WTnhcY1tclWZKG+a42j+qakMxO/JvulkSwQH1J2pOiF32eoRVLY4I+keHcePmDYyNjErjrE25uagqKUdDba30WWD1hRxvjTECdzI+q9fuzrWUmRuSDotJS2YyANwGjDwppEzjfnO6kZWWiqnxSYSDQWSmZQjgYTkil47NujKzMrDkX8T8/AIcdidSUnxwe7xSDZGWloqUFDds8aiuZOA+jWF6bh6p6RlYjoQRCAXh4/4Ph6XNurTuYhmgBlJOad6lAgeT8jOuR8s81awMUwli2nev2JMGHltZSePIEptAb+D7eZY1qhLuYh6YzqPeZHlxCV63Bx6XGz7O1uAza7cj7LRjjABhahwbmWLYvhUpWRkfjUHQaxUIBHDt2jVkZWWirrYO/Lmvr08Ym67OTgwNDSXAwOYtm7Fjx065B2S2BgcHkZOTI2W7YoNtNvR0dwtwKK8olx4g7JkhYtpoVPq7UFTKv7PbJ39mt1DaJc68MWCDqTZ2U+Xv2ZuDfTKozWKDsatXr6CiolJadVOo2t/bh527dknqiWBnoL9fWrzzXLq6umSoGkuLed99qakCblmWmygZvt9tvL9JX/c7fgsQ1r1U6o18gO+YJkBBHdFzKISl0QnMtfdhg8MtVQM0DIPTE5hYnEPMxWJk3QxFO7N13eu1pv9pQMAHkgDBxWhElzrOB/yiQWAP9oy0dCkVTMihHlB7kFweHdWJL1aRGuMhP7UC4Si8kTg2elJRXVAMZ0yX/wniTho/c61JGtjQwQKblGJf3h/TfxqwruIqKRRVaAULwQDaB3qwGA2rVsMO3dGQJZdxFZnxtqzQFlk8/drrzqiC5XdURrMJkupsx/+teIlPskQTCbu6mluyfsq83wom1gYKJlCh6Y8EgyjdmIeStGyk0GHDJgDh9viIMAhHnn4CGQV5iNptwiAktK+rAQJXkOsRiyM4MY2pzh6kRGLSVZEMxfj0FLqH+pCSmY4Qo0L2z9CXIwAhZtIBihgWcGBhswgQVN8A1d/B9LjwO2KY8S+ivb1d2gKTYUr1epGZmo6i/ALRJAiNLo2t1EsnHO7xZOp1W62aM5/X99mkWgyQRjiCqD+Axpo6+NxueNj42Og27hwRojafsAMmKWhqkPS+VieutUXKtZPJoYPkflzgDJL5eUzOTIlwknM0Yg47IlxAYR4UsNdtNdUflm2i0gQWgGBZkUQqzdzwFRo6dZAVqSbrgdfCu+Zm3w/nmjVmF0mXG+GlZdgjMdE2VZeUwUOQwDkODhsm/AsCEDZVlKBq+1Z4fhUAARCW4Pr16wIua2trRftERoGBB3t4XLlyBf39/eJgmeJ57rnnEq2j29puyewL9k4x5bnvvv2OtMs+ceIxfHDyA6m0kpbjnHeStwm7du0WO/CTH/8Ye/buFedOvdm1a1dRWFAozvt683VMTHBWSVQajLFahkFPR0cHfvrTn+CRRx7B3j17cenyZamgefJdTOXiAAAgAElEQVSJJ+R9fMZbWlrleAQp77//vjBebEdO0MF5ISyN5XUK0JUH5D9PMPlbgPAhAILVDaiHOAYbS2NogGYXEOgfgXMpCGckJlFyz+QoImku5JQVwc6IzUQA6ynlshg98+wqm2LqkNUoaEYjUlvOyko7nbeayiaDddhFT5veZBvB9V+4OM1EwxXVdc0KlmKBEGYHhhGZnsf2mno4OWgvYfDv4jQt7EVCDW1MsVrUVdUIyugJmeuwYS4YQFtfDzKL8+HbmCPdBRWMYASruhIqLKQtrmZtTKR/t+nZ+qsTrWnlOBYssOaqrTCq67Gw92ITVCRNqnY5GMBwZy9yHB7UbMhDatwhQE8xCCPoXpjF0WeeREb+JnE8Uua4+usNg8A8t04xYNGPpf5hBCdnJO1E49c92I/RxRnU7doGpNDIK0CmgBv3mwYI8mcS6snf5Hx1903pc8DOAIpMXwwui2BwfGpS0s/sWkiAkJ6SChdBmJlBkdCS8HutIGrVissXJr15UoynLj4JY7QA0IghbcDs0CiGWtqxpaoGmT4ffHa3VMsYkHDnvbUuZqIg0fK2ZMmwMAA2u+gy4i6n6I5CiKJ3eAj+WBgFFeVAiluqf2K2mAAGsfNmw+nrl7SbtgumrNY0TUp+cXL/yDGSB0pQ30mq3FzDffL9mrVar1WwswkcQWMkjpnBYUz3DaOpqhYprKZxuqST4rh/Hn1T48irKEXlti1SjvuRNAj65Dj87fq16zILpaa2VmaFkAVgZczA4CC6u7pw9uxZie537NiBp59+GkUlxZidmcXU1KQwnozcyRZxTsb58+dFlPi5z38OP//5z+XZZ1UUwW5XV6d0d+V8j//xzW/isRMnxLnzmXn55ZdRXVMjtqanp0fmWPBeTExMyOcp4H7xxRelB8ajjz4qYIJ9RZSPt0kJLGeH8Jxv3Lghw7/a2toEmJCd4bmxpfzRo0cE6FA8K5/VTdbWe68+yvt+rQBBdfBaV4z8Ua7hjs9a6eFf6YH1wUw/ROP6GPFKn/tQRKKzpb4RpEaZD45j3r+Evqkx+MryUbp9CxxUda/FCNzjRE3ZUwIYaIDAtWUUIh3gaJgoiCS1qlue8u90KFL6th6/dddzSM4PMDS+SXMzKo37g+hpbsFwWwd21DTATTnE/QDCiu+iE04CgsSOWZ0K0JE6Ww4vxcJoG+pH1a4mbKgqQ8RDSlxrLPQAITO8SF26mo+QcD2r0ysm32vyi1xbGSWtGvpIRztrbt/iJO/lzx5s/1ki43gcC4vzuMnyzoUQqrM2IjVulzQDo7OemUn0+uex7/HHpFkSB+Ek9AcGF+kvFwLAAhAi03NYGhhBdHYRPodTWK7OoT4s2KI49OQJINUjk/govVNTHpMHtNQbrAQjxsFYqhP4ncvhkAAGtsuWGSROgXBIdadowKJusnmWEk3I9dfeAS9XAYQVYCGRxycTpB2wBPvKE8/0DODia2+hrrQM2b40pDosAOG+4tW73EkDQoVAUDl5m9up5mbYbegdGUIsw4utB/fD5uW6KqGpSe+p0md1bHWfNEsp7djNDbQ8vBa2is89tSOmR8fqM5QEhqyXYjfu+ZJGlw9mJOy0cVFgqLUdt89fRlNFDdKc5GUgzZJYVTU0N4ncsmKUbWlASlamGnVtBe4P9oDIuw1AIPVfU1Mjkfbbb78taYBz584hEgnjVustmZBJncLvfPazOHj4MK5cvoSenl4pyeXzzIFpbA9/5cpVYQH4vjfeeAOVVVU4cuSIgAZG9C2trWhoqMcvf/FL7Ni5A01bm6T88bVXX0VFZaVE/n29vdi8ebO0KGeKjmwGUwjf/c53MDw8LAwCy17JQLDRGBk1fmdjYyPOnD2Lzs5OmdpLdqGoqEieFw6t47TMvXv2YNv2bQK8+JL033+SX/21AQRD693tQj7MBd611ahlsRJ0olXMZ/n76mNYz2M1oLkb0EjqyxPxqDREsgfDmOrpx/itTpRv2ARnNAZ/KIieiRH4KgpQsqNRAwRrnLOOJ0QDiqR7szzstA6cZKc5AnZT5MOpei8wl58ECIoYva+puO8JGTMi8SW/fimA7ust6G9pw/aqOqTCAY/+XlPjfcdBV0fd2kqaY97tJPgx5tsXImG0DPSiav8O5NSWI5iicuZsbS331IT9xtHoRkfmuGuJFFXExjSxA/5gQABCijtFCclWfSBJXxu9glrZj/7canW6zSb50BunziJzKYzqzFz44nbQKBMgjC/7MeWIo2bvLrg3sFGSU649YeOtW2QVQKCjpA5hg9uHNKdbms90jA5iGkEcevoTiKd6RGgWN5O2LVUMq7CHYuHFByXz1wmHx/LbcFC1NQ4G4fWkKF4hGoObwjYz10FSVmp36tmCidHCdwAEOQFrPmDN3IBFTKbYD6ky6BvC6Z+8iqbqWuSkZiCFzJuk6FYyD/d9AKxvkH2so3O2dQ6H4PC4sMx0H4Hc2DCC6SnYdvwQ7CluRKTbqUqVJeyLFiYqMal6MMz0SSs8M88uGQYlGrUhHA3LOibnrZinXOtDFPSwnPHaQEEBs/UBBL5LNX8D3BE23mpDy6nz2FO9GRs8qUrTwhRLNITJ0BLS8zciv7oSKZlGg2AouQda6cSbTYqBuXlG6mz3/tOf/kxYgXfffRfZ2Vno7elFZWWlzHD5whe+IBF8Z0cHLl+5Ijtty5Yt0kuhtLRUAAAZgaefegovvfSSTJY9cPCA6KVaW2/hvffeQ1lZKdputWH/gf1SsktG4dzZs6itqxUWgFUV7NxJFoPTNrfv2C4A5PXXf462W7fwyU9+Ujq+fupTn0JxcTE62tsFQFDESlBCwLBtWxNef+11GZhG9oDAgsc/fOgwtjZtTYybJ8OQbGH+4dZwvZ/6tQEENVnw7q/1AgSjNlU2aOUGvntDG/W91hyk9e/WfzNnaAU0InK6S65e5a3USx4U/TdG77ZAED3Xb6Lz/BUc3LpdIjqWAgpAKC9E6c4tcEpdeHLq3t1X6M5rFWNpWVci16nJSZnZXlZcImiZBpYUPI0IxVAq9aAFZRbmIeEoV0TF6902liCAEw/9AfQ038LAzVtoqqhGht0NT8ymWQTlQZKrpgzUSn+bnDWfCHjkTfp8TISpZzfE7A7MhYNoHepF1b6d2KABAsVuAogYo+rI14i9VKI7eX0mh77iirUFdtpd6OrplOE+NdU1SmgZCas+/WxcpFMsak8l+92rC7Os7P3IszXtsRHr2SQyaj51GumBCKoycyXFwGmMYbsNC+yomOZBTnUFnFkZkrqiBiERnd0DIAy2tKHv6g1UbipEltsrEVf76ABmnBEBCLF0r8qra8GjSTUk12plRGu9Z6sBHisaGNm1t99GbvYGoV3ZhMbMTlgN0A1hcW8BreUJvHs5iro3Rmwajwt4P/Wz17GrfjNyfRlwR2ICEPSsUGM0HuAhMP281WwOPnN02I4UN5bDUXkOCRD8GSnY9tAh+X1YFlalUVTDbovYU+MstVWTz6yVUTO2i/uag6FGx0eRl18gQ6iU8l3tUbkPWiUvcz/kmEpPYd2WCbsoa3Vvm21dmDBngXAMeyQuDMKt0xexo7Qam9w++R27KQZ0N0XHhnRkFRfCm/GrAAhxERGybbUAhLo6ESC+9tprGBsdxfsnT8paMOXAf6Mm4bnPPIenn/mUPE8XL1zA+Pg4Dh8+jNbWVnHSk5OT4pA/ceIEvv/C9wVYHDl8RCoNbt68KSXbjOqvXL6CL33pS+jp7ZH15Oe3bd+OzQ0Nwg74RSzZK7qD8vIK0S9cu3Ydb731Fh46fly0Dbv37BYmgOwEQUjOhhxhPahN2L5tm1xHQWGhsBAT4+OiPdi7b6+wFlItRPkKu5UmZpysf7t+mHf+WgHCWhG4ccT804x9vZvzX2081rrAtd5jvtegav4sE8r0d1q/1xwzMaxIK1vXAhGJ31koQVUBzU53USAQRPulq2g/dxnHd+6RiG45HEbvxChSKwpQtlOlGJL5wXt5kJWxkwFK1vXjNd1uaxNaas/uPVLrbdAlO94ZIEJ1Nq+Z75dBQGaogP761WWU69lIKleqHH2YDEJzC3qbW7G9ohaZdrdEZ5LbtbSW1tDgTj+zehlkfZVxN2WMZA2oqWDulnnc2aAft4b6UL1vp2IQ3KrJj0NAAtmEpIjuDmC55vAZ7R9EqW/H6dOn0NXZhSeffBIb8/IQDoXEsPuX/SIW4nqyY6CpeLgDECfaBt9jNa3nYZ0XoSfuLS8t4uqpU/AtR3SKgQABAhD8TjvCGT6klxfBxdwupxgafnqViGl1imHwZhvaL1xGdX4xclJ8Ig5tHezFnCeOg0+fEEpcxK8xUwOSjPjUrbl3pLkCfGm1989fex1lpaXYvmOHGF5WnYiDpF4hwmSYsgcGOJi0w3334uqJQXcgPnWuTHmNdPbg9GtvYFtVDQrSsqTyRjWh0kOhVgC8+35zok8Hu0xyzHEwHpGhWS5visxuYHOdvtFhLGa60fTwYam8obBXNd0hsOS00+Q+XQ0E5HQSS206V2kHHwd6BwZEzV9VU43a+jo42UnUZhd6mutKhxJY8ktFhgwOE6eyMu0rVSj6UuP3XMuV6xHhXBDqUeNxDLa04/bpS9heWIF8dxpckZh0/Ay5HVhOdSGenYa0vFykiFLfDIK7H3q++/qzaqH5+jVkpGdIhE19FKfXsnqBYsWmbdtw9coVNGxuwK1bt/DM08/g0cceEyB87tx5iezJKLBnxyA/c+2qzM0gQPjBD38grMLxY8cFPLzx5psYGR6Wbq2nT5/G733lKyKSPH/hgugGCDQy0tNlbZku4DoTpDB4o3MnS/HSiy/i4MGDaL11S9iJXbt2SRUFB+lVV1UJQCCLsGv3bly6eBHFJSUCbMggUONw6ODBFSkGNc/kw6/fOnZ24i2/VoBgjKbVid/NUa+O9u9G91uNvfnMarXyWtoH3jDj4BOtM/Uy8POiVjejUK1qdwtgWA0Q+LM0QSKcNADh4hV0nL+CY7v2wBWzSQ14z8Qo0ioKUL5LpRiUQ75fk5A7AQK/RibcaSaA58tN2tzcLLmvrVu3YtPGTVLyww52nR2dGBsfk94Djz32mJTnmPVfaw0eZOOsBgg9N1qFatxZVS8pBgo0EwBB7+WEUPIOBsHciJVsqAC7OKdDLmFyblaU9dk5G+DxeUUZf3uoDzUECNVlCBMgCPVqhzNRs6FZJAv9vfoarRGviYR5+9/45RtCA1ZXV4uKOTMrE+2dHRKDsSFQd0+3TADkQ00qMuFbEqVoK73N2qWSFsLBOApGlgR0NhuCgUVc+eAUvEHFIKSzWFUDhNlYBEtuJ/K21MC3aaOK5tYJEIZabqPt3CVU5xdhkzdNIujWoR7MuuI48PRjiGX4ZOS0SVupqNPCnD0AQOCactgTqVtOMSS9yvLbufk5jE9SuGhDe3uHONs9exTITTA069qQ94h6jcJfV8eMdPXh7C/fRlN5FfK86UiNUdiZjNQNC7Cur1UYVo1jttmwGAxgYHIcYUccG4sL4UulM3Tgdl83gj4X9jxyDE6PW8XwRuRLvYKR0d7F4K8GW+rhV//19vfj1NkzEhRsbtyCqqoaKaMja8MItLenR3qDHD12FNlZqlTPzuoJPY1U9rup+CBgSZTA3H8FRCysG1L1tdxG+5nL2FFYiaKUdDhDEdFacFjTrAuw52Uju6gA3vS0jw4Q4nEpsZYqBq1BCIWCePPNt4QZoJ3fuXOnlDNSxMjqguPHj6OmplZKXunw6eAPHzmCVJ8P7R0daGlpQV1dnXzuxRd/iNGRURQVF0kAQGahvqFBOraePPkBnnvuWWRlZUsq44MPPhC7mpLiEaaBIkL2UmDPhS2bN0s5JSsqfvGLX+DZ557DlcuXxUbzuymQ/ODkSTz/2eclPfHDH/4QR44elXNhdUZaerpcC4/NdMi2pm2SqhOwyz4JvwkMggEIxmEbR56YvMZoTSYBqnKyhAPW6YG7sQNWZuIOitJSv24cKd/DxRa0bPnPPAbmd/yZ7zNo2zAQVsZB5beTDxANs9Q3c2CLfxm3L1xG58VrwiAQIPgJECZHkV5egPKdGiDIQ5kcqbz246gHJhi2ImEZlIUwrMiN5pu4eu2q0GeM0I4ePSo0FR8eCl+IhrnJSe0SiZp6WnVPdB22BYyuJCDXPjOxT2a+hGYQCBD6mluxo6oeaXYlmKPSWa40wVRYmsCsQwvBPcGRvEPjY7hyoxnL0QgqKqtQUVkhlRpkZmr37sSGyhJEPE4x1Eww0LGtvg5VT37n9awGCIblOPn+e2i92SI5zIMHDkiu8Odv/BK5mzbh2vVrKCwqEpU0DUHj1q0WZJNMH63A+Gs5AAsokL2vmRNp0MKpjYElXDr5AXzBKKqyNiLd5hTVOBmE4YU5DAUW0XB4H3JKS1SZ4wMDhEJsTEmT+9Q20o9ZdwwHnnoM8QwfIpwAmpwOsGI975Z+SzxPlnXmdRiAwNQC2xQ/9MhDWAoEZN+yzpu5Y6q2SQ1TrU3a1Qqv7p1KTCT51tisypOqpy2O4e4+nH7jbTSWVqAgNROZNrdKg0kFhh5DfX/fuOIddAYs6ZxamMPl9hYMTU8iuzAP5RVVyN2Uh7HpKcRSXNhz+KBoE9izksbdVKok90iSpbF+gVVcTDG0sWnsQ0CA8MHp0xgcHsKm/DwcO3Yct261SWRM/Qqfddqyuvp67Nu7X9Xsrx7magUIdxZw33s1GFghjt7WNtw+exk7BSBkKICAGKZCfvQF5pFSmofi+hpkZGdrFkNf6/okDyvOgXdpObCMZgKEDRsEwJMRePmVVzA2NiYggYEQ/84GSSxXZGT/6COPSkTOKgL+jszL6NiY9DKQHgjl5eLs1bTaKWlcRODPngT8NwJBzpGhg3e53ZiamBBwwVJF9jdgk63RkRE51saNGyVNQaaM5/Ozn/0Mx44fl3HjTFdwhgQrHQry8/HXf/M3cg4DAwOiPWCnWfZEIGvx/sn3kZeXL8wGKyRMPw95Hj7uDILQw7FYwuFycxoAYKXJzd037+fPpHZW5nktDpkdC0MhVae6ClwYFsD6e+lS5VS5Gz4s5qGxghRBZSwJJIUt7VAjcu7md3ekJFQqT16k2gxAsK0BEJbCIXROjiKzvFBqgTmgSN3cdTAIqr4sqVLWOXLdqkbOk+zBjeZmqZulYeBmZikPhTMU11BlS9UuKTL+W4LCtYo4PwRblRAqRaJAKISOazfQ/ME51BWVwkcBWkSPtpbpgtpQm9HI+nbeNX1s/p05Xc5+GBnGtdabmFvyizqYD1ZuXj5iKU5sO3YIOVWlAhBo/USBsDq9YLpEr4EQ1mIQmIs9e+YsWm7elGE7t9tuS+6wZ6AfNbU1+OWbbwrw4theGh+KkqxOLMFsrcPZmKVPRopx6a6mAIIfl06egjcUQ1UWGQQOo4ohbAN6pibQPz+DPY8/hpyy4o8EEChy7RgfxKwrhv1PPop4pk8avDBVo150aMlNsh6AYN7NLnLBwLKUe1WUV8jYZY/XK3XpSwG/RLsEt6UlpSgvK5P6dIIF62tdAGFN9Jdk4ch/jA8O4a2XX0V+aiayHSnCILh0tY2pcXkQnyVHlzJYO+aW/bjUdhN9EyOwpXikWVJxaRl8mRnILy3B/iOHpSmYqPiFIhYl4v1qCxIMg0IG6mNqYFEUvX19OHvhvDSEYoqDynoOlqKtZfMdtrjmPAyq68vKKqWvB3UIwh5q7ZEczxxc/3nf+2v2gq666G29jdtnL2FnYQWKvZlwBlXjLTZKap8dR2ZtOaq3N0pUnJhpcJ++DGs9OuwxwCZt7ETItAAj+YaGBiwtLYojXlhQJYSc1cBono2LuI8pKCwqLBTWimWDvH46dDIRojeLxcT5lpeXiXM2XRfFLzDtZfxHJCLvU/5L+TYeS9qO87w0S238D59h3muOSmc/AzI9FCMSENO/MIgzjBnTH9JZk5VnDocwDLyHnBlCECKHEmBplzLHtZ6JdZibB37LrzXFYJyttL5kWcn4OC5fviwUOB3YgQMHBG1xQbhgFIuQIqMzU0MyVjpROnsirdHRUaHUFUr0SuTB4xngwVW4ePEiLly4IDeDv2cHLB734YcfFiT5ve99L7FYfKDMzRYF64EDgtgMq2HASOIDhtUkOGAuTiL6KOz+ZbSfv4LOC1dxfNde0SAshIPo0gChetuHAQjJjonm+40egcK5G803hN6qrKrExPiEdBXjxmva1iQMAutzBwcGwY5iVNDyOomODWh64B2jPyD9FlgCGI5Iq97O5hZcffcUirNy4GT0KVMFk/lVJmJ43isiIsuXrwALpg00pwdGI5icnUH34IDU0jOI4tTATfn58OVk4eCTJ5BXVyUAQWg3dvyz5vOFxdCtd9YCCJb3qhSDiiRJB545fQaf+cxnxLlxj9VtbpD5FswlUohEXQJrmUkNWvfqeh9eKzjhV6u4aiVAuGgBCBk2F2wRztywoXtyDP1zszjw1OPIKioQ1fgDMwh5hdjoTZUuoF0Tw5h1x7HviUcEILBboEoxqLOS3LFUcyTV93fbO1ZaPBIKyzP4gxdeEBBAJotdFenQDhw8iGA4JCCXzzSB36OPPIL8vHw59OoUovX7kk5M1z3c4dmtlScKKIz2D+L1l36CLFcKsuwucD1dQtRpIG6YMQuANUBHDr8KSEvmirbAbsP8smrc1TMyCH80Apfbg035hcgpyENdUyMOHj8OO0VmoqPRWgAzk+UeqGQFr2DYRB3E9Pb1SolcUXGxdK7sGxiUKJTdBbmedEYcO11bV4+HH3oYWZnsDBlQI7llSFSiEYO+YrMO99GYWMAi7YAAhDOXsLOIAIEMQlRSoePLi+iYG5cKroqtm5GemSlpF/Va5yCYVZuM952OnanVnJwNqK2pVeEHu1NScMq1ddix7A+IX2GwyVJQBg8EAqJ5YTm40aSJg1eMjgmezN7iMZN6MQ3OEmJ5tUZqj64Ez+bzJshULZsVU87UD2dzUHdDDQLPkX7NTKUUnZwEqgoEMs3Bl1S36LYBdn3/PqztfpDP/VoBAhfj9ddfxwsvvCAXSyUoxRqsXSUAIDig46ZTY/T7yiuvSERGxMsbKw5Fj5LlQlIpynwOgQGRIx0gc5pkBdgQg47yRz/6kdS/ynjVwsIEdUO6hxvrj/7oj3Dq1Cn827/9G55//nlxmIaRIO1D5Maa1aampsT3r87XW5k41ZRIAQSbP4juS9cEIBzdsQvOuB0LoSA6J0eQVVEs7UaFQaBJsg5hWXXH1KazUKeW9yqdBNGkQ4xC8/VmuW6JcLt78MGpD+S6uG43b9zE9u3bcP16s4CzP/mTP5F1FfbEIlay0vHW9I3ylzq+WNXTwqjMZSpdMIS+W7fR19yGrRXVSKVYiswCRViJNKfukmh5mKz21goQEgp2lo3FY+gd6MfZSxcxNDoiTUs2N2zBho25mFn2o27/rgSDwG8QESYNhdaV8Pyln4EMxbnztZrFYCpCRFA3mnH96jUBVafPnBUh0Zf/9y8Lwr9w8aLs0StXLssefvbZ55IjYRPXuzYts2J9jdpcjKWJJsm8RaW/BWd7XBQNgkoxZNjVOGsO5eqeUADh4DOflHHPbJSU6KRoKlPkFPQsBksfhOHW22g/fxnlufnYmJIq/TO6JkckxbDvk48ABAgEfjGbtCY2hTOylvz5ATQINNRkEV586UXUVNXI8/rCD15AXkE+Hnn0UVy/cUNsALssDg0O4cRjjwk9K4ZSDzWi7bjbS4ZHWapzkutrFboo4zo+NIyTP38L9cUlKEjLhC/KAVeqgZTZqKt3iewPy61c8e8iolUpA86deO/sB7h04xoycnLQ0LAFReVlUu7oy8nGjgP7pBSVAIE9JuSwMuFVD2SSgU2qekqeTf2lK54R7ZjV7IGIMAjcl1Tr0yG/+eabaNi8BVWVVejp7UVJSYlQ8UtLfnz1a78vJXhpMlFRu2iFiPX3WTKner6JcUjmmk1gYlKypsnzCgbBlwmXAIQ4RpZmcKG3HSOxZbiz0uH00KYnJ4Ya8Lleh2UCTn4/bTbTUU2S3lMPnfSg4EwSrfFgrp7fwVbahkmWiJ//rgGS2i86ZRtRzJ1aej2rQUgANYfG/M4wCAYcqLSzniWpAbRMNpWy14gMCzNsEfUnCrDYEItEEQoGFVtuaaPNv0eE+VbnKqAmEhW7Lc/EbwJA4CIagMBoi7WozOlwMYhgjbCLKtNvf/vbIs6gU6ezN1Q/I3sCB0ZwZAz4XjbE+N3f/V1BkBSiEBjw/aRhCABYUsK/syMVjTdzTVST8rhkDv7qr/4KJ0+exJ/+6Z8KkJBZCcvLki/ie9gi8/Of/7ywDQagKBrJwmZYdFEGIHCDOIIhzHYPYLylHUWZG+AmqAkuo3NqFJllhajd0QRHSopqhiJzBpIHupOiTtKj5gGypmGMsJItRds72qUMZnpmGv19/VKry3//zne+I2mGrMws/Pmf/znKysuEfuRmWwF6dJ8Fg65D4ZCsBR8Mad8sjt5iqiRDYldVDLE4ooFl9La0YbD1NnbXbJYUA7tKru6mqBIr6jjydxMR6cgtcZ1aABVFTCJMAoPOnl6k+Hyoqa5GVtYGLIWD6B4fQeXOJmRXFguDwD7/LpcbbrtTaHrRWZiWs+ttMa0nSFIN3dHZgec/8zz6+vukc9uxh45LrfMLL3xfxs0eO3oMn/v850XAJBUU2jAlDfCdIMEYOYkimEqgZsLpUMJEHdHFZACOXVIMikFQAIHVIVxTMghd46MYmCdAeBKpm3ISAIGlnsZgJpzeqj4ICwPDmO0dhCccR2rMhlg4jO7JEcy4Y9j/xKMKIAQj0pmTVG2Ug6KkCZAaJHNfCtrCynC+BuvGqQAng8B6ctaiU2xaXlEhavAf/eglWT+yNfv27hWa1zwbpl+9CRhWOxMhjUyVki45VXiaRv4AACAASURBVM+rJTrWsw5Gevtx7q13sbmsAvkp6UgTBiEubJe85BG3RIOWfal9qXKnifbHNjhcbolMuS/OXbogpY3F5RXYmJ+PuNOFkdlJhD0u7Dh0AHA75T4RIEiWko5YVxfwmHw2CU451Eeckj6dxLOnn1OCAe4XBkq32m4Jg0Cbyhx5RUUVsjIz8c477+DV114TG/i1r34NlZVV0mJY0gzyLKi24gYgJK5cHJwSbPPfDAXPzzD3TofG33FfkN2jGLG3pR3tJsVAgBBW7clHl2bRNjOKtKoSVGyphzc11bK+OvJ+kJyOvk201wTweZvylJ3W1zQxNo70zAy1jv6AiBKpzaCT5pqyvJB2gb/nMTi7gVE8759cpwiEo3IPmKZl9M7143usL7PfpHDUgGbNTgiw1XuIf+fwL6Y1fKnU9UTEZ1EAyfUze5xgx7+0JGXq1CNIzxCvV45N8GwNdmijeS0fe5EijQlzi4zouVl3794t0bpsNJdL2AT+jgtIZ0/mgGkCM/yCi0ZD8Wd/9mf467/+a3kAqITmArO0hEwCAQHZCH6OaJKsBNWl/PnMmTMSNdOBEkkTAPB4PBaVpTwWj0MgwfPh95FxIMPBPKi5eSaKuRdAUKWOMTjDEWBqHsu9w0AgBI6AXoqE0T09Bl9RHmq2KZFi8plIYPNVY4ppHIzibKVJlE/EORhGaSt4nkJRWZwT/27Elow0QsGQ5LJ4jYL+Oa7XWp1hGjFp3Qj/nSCCLzFWFJFGVVRg1OyJFCKBTiCYAAi7ahrUYKEwh9iYCnqtQVgFENbq32JWxKQwaJBDfGiDITkXGjlStGy13DU2iPKdTdhQoUSKHo9XHm4BCFpD4na6EFhWtOp6XgLChNpzSgtXGmq3xy0GheCDFQymGoRrRITP/aMiCMVcJJThdxESGW2Ox+0WIMBcKYfdmNG/hkHgdEyKFA1AyBKAoMocO8dHBCAc+tRT8OZmAy4HHJyBkQz3klHxKoAQm56Df3gMkblFeJYjYBpAAYR4kkGgzocthIQ5UsZVekGYIWNrEyTKp1kAAtkbqsaZ12WLZdNHnsEAIyGub3A5JI6LPwfDQU0Lq/HhXFuTAlx9/4QWdtgRDAUToIVGnXue35tcfhWpjxIgvPkuGg1AgCvJIKwBEORRM046AWZ1+a3RLmjdCxskMSCiUNbp9cDuTkEYwPDsJAJeF5qOJAECBaWrAYL6JhO1WuYomK6rxoNTlxMOi+1jkGXsFNdOmFB2xowo5k6eAadTnJHkruU/4Vs0g6kBQkLYrb5EdQ9VVo0/y57ms6ujWcm1c1+wdJophpY2tFOkyBSDLxPusKqImAgsoHNhEunVJZJiSEv0QbAs7H1VGKvuOhm+5QCar11Hlq5i4B5lKuW73/0ujh07JmJtihHZNpmtmOlbfD6vsK5co/n5OVy6eAlenxd79+6T/cW18qSkiB2dHB/HW2+/JfuPHRXJyBAcqZcaHsfAk0EEn11FQiibTEDBz5Apo9381//nX1FcVCzpNO4PnuOXv/xlCXi5qlPT03j3nXcEEPA/ptiZaheNU36+MNn8vWIZNI79TWiUxEvhTWK/aqYO6HR5oxjd02kzR0bVKDcb6/hJKxJISJlOMCjI6e///u8lJfA3f/M3kiqg0+eN/PSnPy2RMR8SsgkEALzxpNuYOuDi8hhMQxAAiPDJ65Vj/PEf/7HcXJ7TF7/4RdlYfC8dCAEGP8t8s6E4Te7IWulgyox4jVYGwclKielFhHqHEJlfkmMsI4aemQm4N21AVRMBgho1qraayfmptr7q4TTGwQyKUZvC0HtW1oG/56bk72gsaBhViZxdEDyBgQE4NPJGmGRoNMWmKUpN0bQ6ntARkjA5use+RB3Sbl6lR6SHjrJCdzAIEpmRpUiUkGmAYDV294kcEikMQ7lKkyKI0447ndKlrUMAwlYBCFHSl3xPJIZ0b6pM7iNIJTAUR59o8boiFrgDM/C0qC2gGIktXTlciOr7QHBZLpj7jOxKJBRBamqaiOxUpGVLMC2S37XUlyuzm7znKk2kInID1AgUFOOhohimGAgQLn7AKoaIYhA4AEwDhK6JUQwszAmD4M3JAthJkfl0xV0nA+EV0xyp2AfiMwsIjIwhMDENb0jtwc6JYUw7o9hPDUKGF8FgGB6nW54NFe2oXiI0pg/CIAig1CXEvC5+nmtmgBVBUTAQlD3rYG8HannoQBnVafBlns/V2g7J08bU+F4eR/p8OBQzo3LsJk+s6vXHehSD0FhajvyUDKTBKRMwE1hH9vQ9kI8G54ZB4Lox0Oa9k3XX4685iCnqcGI5HsPI7BQWfS40Hj2AOBkEp10EpQYg8ACKvVaVVgSmybBB/d6cksgdtJBa1jSqBouZ3iZK60VQxz3Mxl422bvqASf1TuCsmDWTyjD0urExpkmTNFXSZdVyfB1QECTyXrlcTrE3FGj3tpJBsACEiGp8xtkeHfOTyKwpRcXWBqRnZq0IhB48xaAeV9UHQQ1rklkMoZB0K/zOd7+L/fv2wR/w491335O+BwTx1Akx7Xr6zBnRpXFvsQkRbUJWdpbsmeLiEnzq05/Cli2Nkoohxc9GSCxl5GfzCwvkPhHo0q8xQKWIkIEpX2QZWE1BtpE9aejraJu/9e1vi3+iWJSMD5nHr37ta8JqE/y+/dZb+J//9j+F5aWotLCgQN536PBh7Nu3T4Jao8czNkVaLf8mlDlyIZkSuHr1qjSH4EIRWREg0FmzZITlOBQp0Ykz+n/iiSfEQf/t3/4t/vEf/xF/8Rd/IVE/0RSZBoKE3/u93xMnTzBBvQCdIzc8j8UUAxkEdq1i8wkem86falG2u/zKV74i50Mk94d/+IcSGXLD8WbxGPxuniOjRKtIyjAIKt+UAJMCEMJ8mGJxOENhhIYnsNQ1KL0AaBDnwsvomh5DekkBqtkuU2YxqAPISFrNqjBCU3r/ZOmhGLgVdfUqKjAPs5pYaJwvDYmivMgcKgMAoQS5PhSdsaSMFBadpjihBCq1NE+h6JLqXGnmAkvUqKIPOjaJssWYKjVvIsXQchu7ahuQbnfBGWYfBD0gyFQxaKCjL/4O57zWL4whI3ASYMJVczsxEw5KaR5LR3MqSxF1UQFMP+mS8cEixmSuTmsR9LDrVfGKBaVoIKKMZxK8sY6cuU1hUQiW4nF4PCnSUF8YWsmHLkt9Of/HdAzXjt+9wpFa/I6D0Xg4JIYtHAxJOVaKR90TfjP3BAEC1dhS5hhSACHBIDhsGJybxXgogG0PH4NnQ+Y6AYLqUhwcm8R0dy/s/iBSoza4HE4BWxO2EPZqgBBaDsHnThGAwLXjvqJxZH5XGJN7OFIrg2Ccn4jI2DNAs1BsNczrJ/jgjo9HYnC5nQIQGCEatog3zAiI7xR/Ku/OdaMxFqCgtTUG0GrfK2BhtKcX58kglDLFkIY0uOB+UIBg0eUIQBAtJFfI2AWV2iAIoP5geHYKSwmA4BIxqcxKkTRjFG6nE9FwWCoRjBNO6A800NMSW9n7BK5MpQkIIt2s6XVJG3LP0RTxWPyOGPeqanMdjTCI8Er0qwZurq7b0L0utN0wQYQBXtz/vO90uhI8cSqljPiOoe9Wu/R+kSoGMggRZR8mA/MYWJ5HalURCmsqFYOworzbRBnrMgWJBl2M2tmhkLaajpap43/4b/8N77z7Dvbt2y+6BEboj514TJ5VBl/yPIKU/wxu324TvQsbKrFihj1jGJBy+qLYRLIBkbCwDDzmicdOSIMv4wN4zT/78U9kDZ999tnEs06fc+78eal8olOn7+EsB+7fivJy6d1AvRj7LfyfX/86Dh46hNmZGRnmxHvKZ2t2bk6ABpkIHo8VUo8//rgEuMaE/Mb0QSBAoNPnDSTtwmieF0qnzEWk0Iu/o7NnLon1+wQSbDDxL//yL/jnf/5nSTH85V/+pdxw6hQIEL761a8KyODsbAIH3jjeEDp1ggKyFPw7QQhzn0RhPC7TEfxOVjj83d/9naQYqPTlpuC/0Rhyw5HZYLrBWt5oBQtrAQQiekcghPFbHRi+fBMNZZXyKDDSpQYhraRQAIIrhc1SJNslNpaghsbN50uF25UidK7qNqb6ICg7bOYLJMcNJUWOOkpSb1POW5jDJAiZn5sXgMByR14j7wFzyUqHoKCKAR10hjwQ8+K8TwQuFG+63XyIqELWFKUucaJFii5rDYIGCGkaIDgtDEJiYK5iLfVL/2W1PmBFCKVPTze7kwYtHiemI8toGe5DxY5G5FSUyjRHOh2aao/dIXQeo17uCxpxRlZ6iRKxvLWhRRKIJEVjEsXqFIMBTdwTnE7IZVoOhCSSMrMB0tJUIyp+zpT1GpBgdW40MFzbqalpGdxCYyyVMhoMSpkjbFhmmeMpBRA4rMkKEOaiEfg9ThRubYAjI00GBDmi92MQ1KkOt7ajr7kZJdk50gvAZVcAYQxBVcWQ4UWEDIJDsV3cO8zp0tnwPOmk7nTWFiO/ujKEzojgSgMsBfT0eG6OKnc65fsWFuZhc6nBTqR/mbO2ljSvdiNK6R0RZ8XniECfhlWNI7eoZig0E4DQhwtvvoMtpZXIE4DgBInjBKAxDIKV3VqDULACP9WaQI9t1miEw5hY/hyIxzA0Owl/ikkxuESDwK6gtAH+pUUBB9QMmJTASi2SSZOoZ47CusSp6ehexmQnerske6uYdC5ZVr8/gFRfmswsUI7Qk+iquPIZSKY4eCk8BtPEvOe0p1Z7SIYhEo9KD4j+tg50nr+KHUUV0iiJAIEMwkI8JKyUsygX2SWFSE0znRSNybl7qffaBKN6NvnsXNONkmiv+bxRq/ZP//R/CQPAqYhsw/zpZ59dERAQeF69ek3p0mpqJHC6pX0SmykxsDTrT/vxrW99SxiY+YUF/PEf/5HYaAGjkYj0NqD9JJst6ct4HH39/Th//pyU8zIIY0BL1oJ+hs6f50R/9H/8l/+CTbp6j50c/+Ef/kH8Gasy2PWR59Dd0yONnDjciT7LCC95Xz7WAME8PDSUXGQ6bNL4XCQiKDobOnuiKEbqdNBEWqSBmCIgqJA63oEBUd2TPWCKgZoFLjgrEL7+9a/LpmAVA0EDW2yyYQaPR5AhpT51dfL9r776qoAILjJBCJkKjgJla05uCh6Pm4znxPJLghOWQvJmJtyYjpYS+VfL7jUMAo0VI7LBqzcxcOE69jY2iUGcj4TQpQFCVVMTnCk0SVpfYIvh+vVrgmobtzQhJ2cjYjGbpnSjoOBXZi/o0hcTwZo+CNJVUTc8kghNoiethOZ0R1JfLrdoLrq6uiXfNjc3iy2NW+TBMdFHckiLFSioul5GHi+//DOUlVeobl4pWrxI9kDslgYIrW0ySndnbQN8FN6F2YmPOXE1TEq4EZmIqDObGvgoNsEaya8RTSiSRP6TfvceByYjAWm1TICwsbIMcY8TduafQxGJVNnDgGNdd+7YAbcnRcbwmpQKIwpVyaHpXRN1ythiCz1kyiPlFA1gU70W5uYWcenCFYmsy8tL4XY7UVJaLJ9grTadHl+8R0LtxrneVFqrqIsiKA5yOXLosIBlMQA6xUCnJwyCAIRTSNUiRQEIjG7sNgTdTsQz0uEtzoc9IxV2j0vG767kpxXDoYYAKVEoAULf9Zu4ff4itpSVSz8AUuQdY0MYxzJ2f+JhESnycqPLIXkWWT575fJVaVBVVVUt0b1OT+tcvyodMyCMwjuuC4de8b20CeKwSMFzB4ijYytglzAHnBcy0NsnIuTMnCwB0Ww+w+iJnzO5dh6HRpmgwQiZzca4cfOmdKT75CcfR+7G3ETqzAoKJ3r7cOGtd9FQUi4NopgKI4glopY0gcwtuUuHEitQsA7+MiM+ZOnVWvM/TnIM2OLom57AsseB7YcPwuZ2Ia6rGJj26urswMToKBrqG0QwvbqsW1I6bHYkTd7sMsWPwURigqN+bgiQuKfJDhAUmymPBHastBkZGZNnlxVa7OORnk4gm2TFRNCZqKxSY7L5IuBiKpe6H9LdCiSof5N0ph6uRQaBzeF2FJajyJOmAUIcy04b/BkuRHPTkbopVwMEU+bIo9wDINxNVMy07fKydEgkLU/bTRB0/sJ5YYW3bdsujpWl3k8+9aQG3hzDHcXY6Bhe//nreP+990UgyxbJjNJ5nU8/8zQe/8TjokPgi1o3mYuQny/+5dnPfAbFRUViQ4KhMH700ktiy577zGcS+i9OdOR5VFdVC7vBY7/51lvYt2+vaMDGxkbxi1/8Es89+6x0YM3Lz0N3Vze+8Y3/LtuY58Gma/V1deKruB9YFsxzMgD7Yw0Q+AAbwZx0pJqaEsqfTp+RHF/8k6iUDzgXgZ/hzWD1ANEtP0dHzM8yB0QNA7UIdP5kGzi7m1UGjIIZDRMg0MlTw8BNQSTGP3kco0vgzwQQZAkIHFh6yRffw/fTAPFhJArl+XF+ODfeCtYgEfOujBYUQFBUuyOwjJ4L19B/7ioO79gtm2k2tIyOqTGkFRegamujtFsVR0W1mS0m7TZHRkbx0PGHAXbKg1OAwvzCHJaX/eLEWb9M+nB2dk6iLJYqpWpV7OLSohgGioJ47j6vDzOzs6KKJbLdkJOLC+cviHL8i1/4ojxcWVmZ4tDo7PlZtioVJa3fL8cg00D9wuzsvJSfUWjKoSTsT06HIXS7AARVa55kENqws6YBXjbYCYZEHc+6fU7u81iaX60BAZJgTACDNRpN0gmkcvlT0GPHeHgJbYN9qN7ZhLyqcsDrQtxGzUQc0VAEJ98/KVEvwR6vjZ9jBLC4wM5pYTEivP5oNCw5S+YcaQj5O147AQTXiieTk5sjKQECTlKBDjtLRe14/71TQg0/dPwobPY4MjMzZG1I9/JhJ83LY3Af+dLSZH/zZ+4z7m/u7U8+/ji2NjXJ8BZVp02RJAECEBSAcBq+UFwxCA5dxeCwIcDKh3QfPIV5Ms3xQQDC4M1W3Dp7Hg0lZchxe8WREyBMIIRtjxyBLdMHW4yTI9XaDw4OSU53y5bNqK+rl+cuxeuV8xX6mloPbwrSUtNkHdkxjtfMklTulyW/X66Z98WXlorsnBwsBvxyL2LhKDJ8aRjs75f+CHVb6pGbt0lwBJtiyT6PROQ7aSv4J9eQgJ4v3hOu9Y0bzdJn/w/+4A8SPVG4NwWKEJOwzLF3AOfffg+byyqR602TgWLcu3LvXW7VoCkSU0BKAnaCBo0M7ipN0B0YzahmLf9gM6ugHeiYHEPA68T2IwfhpBBVSuwowAzh+tWr6Ovpxa5dO7FhQ46sGa+XacG5uXm5voKiIgEwjGIpxiTg4jPKtWBjIAnIbMquEpzSRgT8y8LA+Lxe6ZNAG/fUU8/A6SSQsImiXmr8bbSBEbGDy8tBpHi8ouznv/HezM3P45WXX5bgjCWptEMCYtgDhQBbN4nra21D16VrwiAUOH3wCIMQh98Zhz/NhdjGTBlJnppOBtIKCu6j91grVjAA4do1Uf3X1tZIgPXTn/4Ub731Jr70pS8LEMrMyMAnHn88KRomSGVpaE+vOP4S3eiM/oNrSN+wa/cume9ggBGvcdfOnTJIiUzC0WPH5P4EgkG8+IMfSrqW36HSiTH09w/IbBz6MrZHJkj+9re+hbqGenkW3n33Hbzzzrs4fuyY+JiauloM9PXjm9/8pqwr7RDfR/vL8+E95HEILpSGSj2PH1sNAheaTkZy3LGYVBGQCTCdCak5oGOnsWC0QMdsHnRSg0ZLQINDJSfRKz9LGoefozEgmiMLYPpSE3wQYPA7uZEJPPhAMGrm93BhaVAIEggyqAqlUISIWPI6mh3g+bLPAhkOsgdWRL+C9ltFJxqRIlW/jkAQXWevoP/8NRzdtUdQ/WwoIEYitbgQlY2c5kiAwIeTACGK995/D0NDw9jWtAPdXf3Izy9CZWU1Ll++iJmZaclP7969U6735s0WEXdyrTifnA81c1pU1vNpZztg9h9vvnFDHhIamj179mJ6elbYmU996tMSURAkESAw0qIx5+fn5xfkM7xubsq52TlhbAKBZfnzoYcewsOPPCKRseT1CRC0JY0uB9HX0ob+m23YXl0LVySO2YkJTIyOwW13oKygCBtzFJVOYZVJ1yZJ4CSHcUd3RY0PlORBRTrBFDsmIn7cHiBA2Iq8ynLYvR5hFxgB0kAySuAeomCIYiLShzR+LTdbMTk1KV0la2qqMTc/i77eHszOqWuvra1DV1en7APuG+7F/fv3S/TPtV6YZ6vWFNTUNqCzvVtqzOsbahFc9iM1LRWFhQVicEdHx+TP2dkZ1SmwvFyYG/aq4HHoeC5euIiv/f7vy73kXhGHZACCHQj6/bh86gx8YQMQXNIaOOSwYyoUwGw8hqKmzUgvzJMBVolGSSZslj/vZBCGWm6h9ew51BeVIMftg8tBgDAsAGHrQ4dgz0pNjM6mUervG8Db77wrOh4aXqZYKisq5PlilMR21Jxox3/ns9jT1S1Gk9fFqXbMw3I9eW8IlLaxV/7QoNCoYX8QNeUVQrPf7mhHXmE+5pcWJTplhFVXVyvMHp99/kcBF5912hJGaWy8xkoo2gXuX4qQaVMUk6k8PUECSxlHevpw9u130VRdhwyXB/6ZOcyMjSO0vIzC/EIUsTQxFIHLdOOUAWFaPHw3VKsHHJnqUnlbNAZC0pDTjvapUdEgECCwCoZ9ENhNkKWf7LPR092F8rJyAVEEKBRJs7lZ/8CA/MwybtojlvWNjU8IEOPzSeDFYMl08OPnuMd7evokpcu9xOZpBKKc+tjUtA3DQwNITfOJ/SgpKRL21m53asA6LY6J72M5Hr+P+9boxxhdKwCsnLoZAKZEim3S/2VnUSXyHClIiVKDEMdcLIhJRwTu4nzklJWIBoGj1D7KS0CiTjHwfAkQGBRwL377X7+N/fsPiDaNdpADmoSx1Mwgn2fuE14TP0f7T9uWm5MrDANBA0txmbru6uxEw5bNKCoolIFLDE45k6GqslLs14svviQTIxtI/1NHEo0ogf1yUL532/Ztcg/+xze/KawN/Q1t6r/9+7/jc5/7nHRhJTPA5+Ib3/gGWNHE54j3kHabAIH+jK2eeb+pUfrYVzEYKtEIuuhIpHZa063m3wUF6ZHKpkpA2TKlXjazEGQj6oYp0lVKN/kxn+d7raI9id60eMcci79j1GE+w59puAk8qE2wpkRMaVwyp6cehnUDBH8QHWcuYeD8VRxlJ0X2QQgHhUFILSpAZSMZBLZbJbVNRxnByQ9O4sbNFtji7A2Rjp3bd8PlTpFa+6qqCoxPjMqmpeNh/ozGkSpw5tA8HjdIrTItsuhfEqNRUFAoY0/JODCVcvToMWRn5eDc+XMyV5wUG7vVBZaXxFCwb8LU9KRQ3zwe14YAYmBgUHLPTNe88/Y7ossgQGCkK00+hEFQsvmIaBBuoetKM0o2bMT0yBiG+vsxOzWFTRtysH3LVhTmF8DJ6grSzwldRdJUJPK6a0xalHtgac0acMQxHV1G3/gIGvfvQWFNhQgXg6x3tlP0FcWbb7yJtrbbEhGkp6cJxco0y+3b7RL98oHevLkei0sLAhgYDXNP7Nu/D60trRgZGRZjSbBJnUHD5noxHLFoHH19Q6iprkfAryKvrOx0+JcWxPhS/0L6mM6KzoyAijlDRjmPPvYoXnuV0QtHc2fil798A//1D/+rrLekfKQ0Ly7KfCcjUL9iEFIJELI3IdPuEuFnyG7DwOwUhpYWsf2Ro8gqKZJcsAAE8zLB2WqAEAWGb7Wh9cw51BQVIddFgEANAlMMITQRIGSnqSZJcZUSIsP1ysuvgP0x0tMzxInlbdqE683NEhBQaCXgqq5O0oh0bNNT05JT/ezzz+O///dvID+/QIzfrbbb2NK0FWF2Tp2YxNjQCDJSfNhS34Dh0WH40tPQ3t2JrJxseH0pUolEEELjzj8pdKZR5Z5npMZUodqvA7LeTD+KDiExuVBtKAKEoe4evP/LN1C6qQDRRT/GB4akeRLTC3t27kJVWTns0RjcnEIhORmbrKtg1HswCAqIqLeQGEQkiiCbGXmc6J6fQjDLix1HDwtAIDgQgBAM4sb1ZtxqbRHgk+pLleCF10nQQ0aAARaZTO4p6qbSMtKxuLikxd5Fws7yXjDSZW1/fX0DAoGggILOrk6UFJfIM809WlZWgUuXzotNoT2urqmSlAwjerITrMjheTCFRAaMIIWAjyC2cWsjPnHiE8jMykhU55hZLAQIPa23FUAo1gBBMwgTwUUMBOeRXl2KorpaBRAS0xzvuagr046Wba1YpGVp/kawSudr5iT84AcvSEDAnhRM2+3YuSPRT4IsUdvt2wJgyazUNygKnwCBbZdpAw4dOqRY6L5+CSAqq6sS1THdXV0YGByQagfeE1ZDyDyFggI5O1aHEFDRjm7e3CD3iMHqv//7v8tskbT0NEnVMeglE8F0BdPqLHMko0GAzZ4gGzZkS9DB+0+Goqy8HCdOnBAwo16q0+LHsopBCeSUUlmAtG5WY3Xsop41VMkapRpKRa6EN6YNpSlfMiIZ83nzp3HsVmBijmP2lvnZem48vrVhkPne1QKs9QIEuz+EzjMXMXD+Go7s2A2X04F5luNNjcNXWIDKLZvhYIpB0gtUlEVw8uT7OHnyFNxOL2pqGnD0yEPo6OjEP/3TP2Hnzm3y0HIT0snxgc4vyBfHzYZBjFiJSrc2bcX07LQ0TeGo0PHRcYnymHrhAJf8vAIx5gf275cNykqRru5OYSdIWxJQMNqW1EIohOqaaqE+G7c2Ycf2Hfh/v/MdbNm8BQ899LAYHCtAiCEqAKHz+g1cee8DpERtGOjuwcLcrDzkebkbUV9RhYzUNKGyjZxACTCTIkXZMRa24I4oQ2wwo2EbIg4blh1xTPgXcODR4yipq0GIqR6Cw7ii+N99512cP39B6Lma6hrs2LEdP/vpy8LCkIFaM/zabAAAIABJREFUDgZQWVmB6ZlJYVE4hY3ljRTT0jgyj/vJJz4pLZVJDR47dkTuy3IgiIGBYdTVNgJxp6RyNuRkwemyS4RFJoIRANNAHEbEvcsIcGZuVgbGfP/7L+APvv4H2JCTg//7X/5FGi0x/cW1kFiVACEahlM0CEu4/MEZpEYUg5DpUAxC2KEaJQ0vLWLvEyeQUZiXmOZ47zJHte1G2toFIFQXFCAnARAGMYFwgkFgUayTXXAAUXy/9NKPsECDVVqGvXv3CEilvkeYD4dD8rnce0yZ0XnTKeXm5uDLX/ySGMnde/aguroG77z7LhxuN1LT09HV1YPB3j5sSMvA9satYqQzc7Nxu6sD1XU18PuXhDmTSgq7XY7NtCQbgnGITVFRIZqbb+CLX/iCpCNpYL/2ta9qSlarXYzjRhxDvX1485XXkAI7xvuHME2WJ+CXao3Ghs0oKyqW9UU4Kg3AeE+Cur/+CoZgxeZUDAXBBFNpBBYEakH26vc4MBL2w1tWhAMnHhHBLzjhwulUefSr13Du3FkpSaQzPnb0qAAslnuXlJRiYnICZSWlwvSxuVtRSbE817wHdIBskMa28HzO+Kxzr9MB03ERHFdVVco+JIij47985SIOHtgvQDctPVWVYS8vC6tGvQfTHjw215uA4fDhI/jJT34ira9ZLZaRmW4BSmQQ2Wo+jp6W2+i5fF36IOQ5vMIgcL3GA/PoXJhCZl0ZKrduSfZBSKQQ7zeP5k6uwTAI1K0xZcdAifZ/aHhYmDmyxAT0DJTSM9ITAIHPdktrq6ST6HQJBKTccWJC2AKuA0EDGQDed+5lGUsulSpKQzM0OCiaIt4rDoyiHSTrbYJdpi5pm/n9rKbiZTL1RVtC8DA/Nyf3gswB2S8CBD4nQ0OD8hxx8m5paZm8lzaZn6fuh/aBOiblw1T578cSIJiI3kTviahQR+FWR2sFAiuVu5rC0iDBqHENODDRvfm8YQ2sAh9zPCuQsJ6LYRH4PoIXw1iY8zaswXo1CGy1LCkGfwg9569g9EoL9jVuE8Mh9fpT4/AWFqC8UQEECTNoqRHBqQ9O4nrzDWxuaEJXZw8OHTiKSDSGf/3Wt7Bz53bZEGy0wQ1EHQHrZLk5WDZD587IiZHD+PQ4xljb67BjdnpOBpmcOnMK+/fuR1lZuah+D+zbj9OnTuG55z+Dq9evSpRLJzk/N4ue3h6JtolUq6qrcLOZzESuiDs5inTvnr0KILBMU2i7OGJ2dd2RQADdN1vQcuYi0p1uDPb2YmZqShrwFHKgUV0DMmX8LZ+pZIe4ZKncykmLawVrhkHgQxNxAAHEMDI3jd3HDqGgshwhSXnYEQ5FEA1FBQiRBSE44NS2vXv24MLFS2i5qUa7MrIvLStBX38PxsfHxKnxfu/etUsmrjHlwvIiiqEGBwaQk7tBIrOszA3o7OxBXe0WuJxeiYLz8jciIzMVBQX5EukRdDJff+nSZdHfkPL2+FKENvzhD1/Ek089hfTMdHzvu9/DV776FRlFK/tbt9GORdmb3YZl/xKunDqDNJ1iYPkoGQTTanloaQH7njiB9Pw86eB3/z4IatuN3u5Ey+kzqMzLR45HpRg6dYpBGISsVDatlqibWJ6zPH7++i+UAt7nw4acDWDFxqlTp+Va2UmSOXTWer//3nvyd2o8GPmyQQxbK9dW16C4pAyXr1yWOQxjk5NITU3H5Og4vHYXtjf+f+y9V5dc13Xtvzon5Aw0IgkwAAQBZlJiFhUoW8m2ZFuSh32HX+5/eNj3A/jN/gR+8IN9x7WvkyTbsi1L1zJFSQySmEmABIicc2p0o9E5Vf/Hb+69qnafruqqBgoQSFVTrW50nbjPPnvNNddca92jLnrzFy+0g8cO2/b771Mdir1792h8CA+9+srLWrihlKFfW9vb1C+D/PV9e/cJkP3P/+9/BoCgDB337EN9ifMnTtor//2itTc02qVTZ633wiUbHui3loZGu3fzFtu44TY1GaOHCtuPw1A6hp1uq/IhDLGTdXXWQptxUkERqhIiaqyzU/1XrGHlEnvw6aciQKjXmGGMd+7coevGOMMA3LNli6jyV159Ve83xgTjwBceK/1HuDAMFEWC3n7rLa0R/BGAxFcwUM0CtnjBGCKyZZh7H3ywU7HvIFw8q/AFjOHOnR9IFAoYW7VylahytAnbt99nP3rhRwIj0Obz5s5R6Ceu0EGDUG92bO9+O/bernyIoS0OGs2aDl29ZPPvWKdmTTSwyreTFEi4BoCQywnAABACg3BH9OBhAEPBuLBuhxQwrzOCbQJwYri9K6I7JLCaCItVJTTWl6Awksf9VS2xsSFfVyaw2kEPFcKC01esUOuEdGvSQi2fCskxZdNIWW0gXOstTgpdYKWZipUrOTKgRPlZzoqJhZq9fqPoFC7zx6r2YvBB4ebSMEFqgN1LTz381BA7AEiZiPQeigGELKOQfWDF2IRsGEFGL7IX1wYQctY4PGoXdx+wK3uP2KZVa0Rj90+M2ZHui9a8cpmt3bpZhZJCXpUS9uydd96yS5e67BOPPWFvvPGWNTe22Nat2+0nP37ROqj+1VCveC801dvvvK2XA9TKCw/6RU+B509ob/XatUKpZ8+eExIlxoiBXLFypTyK7fdusx07d6i/wAe7P5BhfPDBh2x0ZNgOHjwg9IyAkTg8PdGPH8WTrhfN/tSTT6vyJZ62NASE++tDNfbRgX47deCQndl7yNYtWW5DvVftwrlzKkayeP4Cu3fLPbYUEVZSlS1EGaIKIaUPikxYbRtDDGw6VJezvskxO3L2lN1x/zZbvJpmRRSHCs1z8MjIYUZsSIjk8OEjEhpSn4DMFxZQPAjo1ktdF0U78qIScoIp+elLP1U4Am+1q+uSaG5+wrLA5nR19djSJSuttaVdQi6YA5Th69atUXwTtTf7EDs/euyoUkQXLFpgd9x1p7337g55wISDjhw9ar/7ja9rwcdIB2EcdOW4NaKC7++3919/0zrGTAzCXBntwCAcvXjBTg9ctYc/9+kpzZrKMgg5Uw2EoxiFtjk2vxnV9qSduHzRLuVG7D5EinOZd40qOsUTvnSxS8AHr4wFGB0M44oYFkPD/a1e3SkgRElqGBSeLMbt9k0b7f/8n79RVgbhCWLoCO92Kk1tkdIbqYSwfu061X1on9Ou0tpbtm7R4grdTvYN3qA0MUq9bbBVqzpl1H7+i1+IMu7puWIIdn/7d35HBjeI6aLaUDghZ12nzthrL/zUNq1dZ3XDo9bX1W3nTp608aERu//ebQIIGHgKRDHnyDZRZsaMa3HgxFTVkbPEev6IFJmndHIdbmu2rY8+EkSKavccshF4PzHGjOXlri6928TB9+3dq7WIdZMma8zLHTt3Kl0RgE5YgTDB97//PYVxAE8LFy4QA3f23FmJcRmPZUuXaZ6j0cCzhjl47rnn7OjRw/r98SceF9h6b8dOhUPptkjVQEAt4j0Yj1OnTto9W+4R0HOhuTdhUwhGAOGAHXlvl93XeZutaGi1dgAChZIGeu1wHwAhdHO8XoCg9TkCBOYCAAG6PywPntsVcRuFshJhn/pXqL5LKKms9Z8b8T43kdFUCXw999AyPtghOmBSyh0BfWi6JKsfU77zWWWRdfIlTDBFBd5ijnZM/fEslGCnYgE6aV2o6RFSdzmfrjMy8ZpfMVWbZlTFQMm1AIBy+1QVIPjJPNSQ9eTd8Ja9qEQ4mAUH6TmEQaOWodwxNfhJkSEPR/gx0s9mOpbKieSF9eEFCc2actY0Om4jpy7Y4KGTKjfMJIJBONpz0ZpWLrU199wdAYKSivT08Zr6+waE9s+eO29XewfsjjvvUPEMvNMFC+dr4cV7I2eWl514FnHWgwcOSuyJmIu8WuJeLCJnz56x9o45Oj8/Fy9cpFgXCycLCLQc4jnapLI4kQOHkA9qa+H8+bZ0aSgDSk9yPGlQNwsMjIIzNQIH8tpzNoJQ9OBhu3DwmG1evcHa6xtl3Hq7e1QIZsnChTannSyW2JEMD81bMufz0Kd0eyj+CNT8way/Pmd9TTnbc/yI3bH9Xlu6drVKDRMvro8VIwFPAASMNZ4YXgAq+4uXLhp1IfBuly4LTb2gDt3TJ5b+n//5PdHpVEOb094hFTLxwxMnjotxoh5EW+uckHI3FutKNDbJWyOVCQDH80L0evTYcQmgVq3uFEjh+Rw/fizWcEdIdru2hyHBiGrNmiRNssEGKCL25tt5gEDfBLx6AYRLF+x0/1V76LPP2SI0CJUyCDmz0YtdduX4SWsYGlMvgtHxUTt7pdsujPbbY89/2iZonU2lvHE1MpdQ9dz582KYUHNf6bmi8BYG7Oy5c1p0AU6wMOgVoExZ6IgPw0j937/9v6r3QLrxsuXLbdmy5Toec6u1tUWVL2mHq1AhouLRYVu4aJH+3d19Wc8KRoBaBwcOHrQFixZq3qLyhopFEArgampptvW33Rb7vOSDWfmeA90nz9gvvv8je3TbNpvf0m42NGJ9PT020jdgSxcusiWLFqv+hJZq7V6oq19yTdBiEBaEyfo6G6VARn2djdUhJq2zwxfO2Whrs21/7BFrbG41eEOVKJ6YUFEcahMsmDc/CFp7e8UQSnDZ26u5BtCfM2+OmMKLly4plMN6wPi9/NJPrXP1KrUpXrt2je6Tfcks4Z1lDFX/YGBQzwHGkF4YvPekO3euXqP3HAeA7AfCCoGib9JxmL88A4AGoc2Q7x9LHRECjqWWj+07YIfe22Xb19xmy+pbbE6uXmNxvq/HjvR32YI719tt926xDtVRiazBNTIIePvDQ0MKxcCiKBOOdT0afMaWNNtQgdIZiphpogqbiCSTAnTJgyVFNJAPXncmpDd7rQl3RFO86GBDpdWiRffqtOE0zrfkLVe+XP0UI+8Hla4uXEfAIB6Sj8XsOMdHHSBkvfFKjHcliCj/gEpUcUvDCFkwkg13ZIFGJdeoY2YAAmFaSgvBBjSOjltdT7+NHjptk/2kKDbYleFBO9xzwdo6l9naLXdZI6VPkxmGVwGlxP7K1bdY+39oONBlLDqUTI5VD71gxuDQkGJuym2+8w7FCeXdx/RNvGTSerhvDCPCHZVljboLZh9IVXXa6XjmtBalamNVL2j4gGjJcQ+dEv0LgDBRF0rd5kZH7dT+g3Zu3xG7b+NdNrexxerGxhCh5McL1KwXR7n+tCgqFKiRuGtmNy1i6VD9ra9+wgaazHYfPWSbtm+1FRvWiWKnZwNgnf4Lur+kgQqsAqdwPQzjqAWvjmqToyG/PFYJJMeZBfXpZ55W6iNGTMWChsIzDR5EACvkqIfyw6bxhzr2Co6MKeCAt72RRjdjo7pLFgC29X7xaswjwBSNDWCzsdH6e3tt99vvWvtYzjYuWCbPjCcwVl8fAELfFXvws89JIQ6lTYghLIlFSi2rOdZkiGz19tvI+UuW6x2wcfVJGLeTXRfs7OBV+9RXvmAjDXU2jvqfegc5CuaMqY6CVPhcP8yCyhwHT4ubz9fgiA2T+Dfzhbnz3X/7rnL9EbthcELV0ljUKxbTClUEQtGk9PUWnavCR2Hc1KuBRmJ4eBji0VE9v2ZSVqP+iRi/3p3YqVDHmMzZhaMn7Z0XX7ZHtmwVQGim0iBzmh4q4xPW2twS3rNYMrkiEjcBCDjOI7xzDXUKA4031tmR8+dsvKXZtj3yiDW1tgnEKrMktvCFpQiUdciWgD0KVUCbQu8TNzDq4BrLc9fXiwH48MNdCjGsW79WzD1zkTHy9Rf2Q31ZxkLxLgr8wLbo3BPhHIQpw3yNpb5jW+Qg/2coqPBHcazQ30QtlanpwVtM2ee6OjsCQNixy7atvs2WNbZYR46W1iaAQC8GAMLt2+6xjrxI0THVNYQYJnM2ODAoZikwqRtj7YdAwavLbewZwvwLb1SoOKs04pimqdXIi77FdZ25yn1zHO6Zd1SdEzOdd/Oef1LCRX+bYpe8QEYAHGW/8gAhep8uji2yo5iPSo5Z9qTlN7ghDMLNBAgFhBVuNgsi/POqAgQfV7I0YiMc/tQwOmYTF3ps9OhZaxqbkIGk1PKhrnPWsWqp3b7l7ggQXGcRJiOTGkNLUaJAVxKnDLm1ylcm5kTBGVp+qggN8bYJUdV4C+QDwyowoXnpR6lBrlLKobxoqPEemu1ogY+NjHSefNvTnICBPCgWMPV04PdAZ00BX7FIEt0Wc4RKxsbVsIUQw32332kdtPnByEVAAe0aFrtwv2oaEz0RH8rZAIR+G7f+hpztO3bENm67x1bctl6d8ibj4sZ9eC/3IOaZtAlqRVCKGeMUab3QNS/EK9ke7Qde0dGjR2SuaPrCy6gGQGS+5CYUp8UoiYGKpa4JA4k1Y8yE7kPv+UAVUpo4gDXGPbR3bVQsn88V+1TclDTHsJhh6CgeNNDXZ7vffddax3K2afEKa5uokwhuvKHejl++ZGcH+mzbs0/akrWrJdykT0NwgOJqE70hGYSk3fNEd6/1nThjDQOjVidgOGHHLpy1C0P99swXn7e6jhaJ8xqbWsQueTVDrjvU/w+uEmNGfQjO59QtKm7NFcatoVE9LI6fOK5wAl6/N2lKw4Ls77ogZXIALqIoi7mrDqQav0lr62hTJgnhCBkoxiq2v8UAcn0ehyb8pZAm956btLOHj9mu19+2ezdstIWtHdIiNE7wWSg4pn4oeI8JQ1h+Cc0r7rTpKIDZAUJDnR06e8omW1ttOyEGCnYJv8X3KhY+EoUdezDk+05EejvMpwAoeKcBmbznAP7z585aZ+dKmztvjoStMnAhkJe3H4U4uRvjYPk9nFoAJ4V3E7AstXw9rb5DSef4yojlYk4AEGSAG+rt8L4DdlAAYYMtqW+1DuqR1AeR4vGBHpsbezFcb4hBgsFYn4QQiOrWqENkHNP6cE2hyVoQuYfoZdhPoQO1bg5spbPPzgIAsPRs6uvFPMLK0nUUJ2pKMbepCDZ//mlGO9aoKBOjivvHmRaZq2jMik+/jwtAKP9yXd8WxbQG6RHTz7PswvWceUqIIRYL0Vo8NGyX9h62nj2HbeOKTiH6gdy4Hbp4xnonRmzuooWx6lYwSpq7ZjIQjnL9uiiQhPFgA3VtJNqvnuB0UQvxM/cKKJzRgOGrIwWmUQaGhQSjhAfMYqrFPan3LmAS01B5qbwGuVqf4odKGINHGgxsMAneIpZmTTkpmBFyTY6O2lBXtzUPTahQEgsEavDQgCq2tlYlQryOYED1TicPYQpAyC/QU55mMEqIx5rqrXdsyHbs+9CaF8xTsyJivixKuhfSKccRHgVux/Um7v1jxEQfR/DAgqJa/k1NYVGkhOxEEBkxZiwWqJZhQRA4hRLUgW51j4N7wnMJDA/7BSCncxuZFVTDi02IHBRyfaqwGJvhROGTmB8Jzobt8vnztmHJcrtr+WprGUPfigah3rpGh6y/wazznrtt3srlCjGoLEUCEERyuLeaAIQrx0/ZuT0HbXFTW9Ag5Cbs+LnTtuvkUVt2+1prnkfjL1iMJhnLALgC81PoCOhApFDqFwOtToI0BmpqlLfGPKUADMWBCE+o+FR9fb4aIpUCuWY8NuYsj4QxdMEzY8h1MO+dAaM8MQPU3EyDLpUbFWDWfIrengygKmUGUR1jM9Rz1fouXLJtG++0ZXPmWzM9FGJZa81un5ApwCrLbE1dSfDMAQiUWh6tn7TDZ07ZmSvdtmT1aqtrahSDoDHUIh8q/AXvExIjdFAlJ573WKCV5mTgLUBofBM9fk4fj0Z6kEzCOsQeCRGAF6wODAxGMTw7NSKKfVhCmHMqA+SGUEwOZaG15oR0crFCPFuOgzPEetLcJC3HRO+APXbHPTavrtGaeb3qzHonx1RquWXNMluyYY21Efa8nhBDvA7eD9I9CR06K6C1TdVhg75DoDWyrqFYZrgHMZm+/jiPH98ZdamMAIFsLbQc+U6KlRiM6/Hqfe6lAKHUOeN8qeSSrnebG8ogXO/Fldv/VgAIaksciqza5OCIHX17h52KlRTxwlHXn7ly2S72XQkd3OShxNkQG+AEujWi/9iPPbAKYcFABKZ4H0ZnIhqvuGCogxvsQlODGt2wYPYN9NnFri6p91ko8ZTpnU66lGK9E2HRFAgZQxBHMxMAhil+J3yNgVdcD284LE0ycDEmB0CA1VAv9tExax7P2cq2+bZ20VItEKK7fSJ7lbnYIrZYOCn/t6kOWbB4+lsEVIw3dd5Hh+3UxfNq+zzW3GCTrc02ihc1Pm4dhDhonBS99ki6ygjJ84+lgEPHu1Cm1o156FXRGrw1whKq/jnXRhKQpbGQkQ9AB+Mkow59njRpUs8CCdfGFT4SO9MQSmlzv3jfYh3isRpl8OpCx0rGmjDOyIjdtnSldc5ZEMpX19ULIFC+d2LBHGtettjmLF0igOCG0EGBIg1FAMKpXXvt5Acf2oZFy21eAyzBhA1HIDtQN26THJt233QqjFGPAhgq0NFe3jsATAAtNPZEMBxanIMmhOY6hAVgsLq6Lyt+jq4BQSziQ+Ymx2DxbqYpEG2fRyg1FGOxsCYxHEZ2hDe5wlgJGMdmTaGXRWDAQkjLy2sHgEARpJbJelu/bIUtnjPP6tSSPK4yji700xmYEtRwMUPgxyHMRcXmerPh3IRdGR6wU11dNk6djskJhSBkrGMYKHi4Fih8vR91eied+QqFxeqskbbW8uy9jXPsLVIP20Lp8AAqQ+fFlLqPgCTCfYAEBhQmLMyNhAqPDKy/4zoegD6yGYA0Kny2x5LfhM26h/rUA2RhXbPdtWKtzalvNIqM846OtDTYyPwWsyXzrH3ZYmulmu51AATv5aEhi4LFMHwwBJ4aTyZTeK8F1mORpHyGnQBUAGQAp1RXAHBylhOAFoSKSYigVPlnN1TVAAhxPoRDTn02eXtYAwjloEHEx5kHUqkGobKjl94qZRAACKH50qTlhkbs6Ds77cTrO+yxbfdFA9tgo5MTNkw6oMfkvZFM6FoTBPpqCxe9MuJlePdq6MTiEASPLBZ550YtnaGjAQVynQNQiX0Gzl+8oLoIg2OjNoJnS5fDhnrVU0BkR0oa6mc132lsCF0QWWBJ01KaV6H/oURA+gqLrguCAAmMeStllClROzJurZP11sax9GYWlL5uZ9L4Wbo2T5EoTnkRo5seaU7GeRwlP2EODGVuzAZJU7KQHyyC2kFOXOiJ87oALgCecD/OorAgM44qAoUeIxfq1MO6ULUthBVIoQopSl74S3R4DDWMUdteC2rowRA0HgEw8HgDFR+MoMZAqurYkc+pbRgEeZKBbahHeDk8Ik1HG0YF0EUqJzUf2pttYtF8a1483zqWLLKJCFZCJLugQRCoi4uoaxCOv7/bTuzYbesXL7elHfNsbGhI6beo7kkhHZ3EiAAcCRUFIyk6NqZ1hZbCLMqRWYjXDzhgGuuJNYSFmsW7q7tbojj0MhT04thUuqM6HDnjpNIK6DLXo6aBMeKZ8GxQ7sv7Y3xhaiKz5mxU5KmCYfcOojFnnIvhc4EzUsfq6q21rkEVPusoJZ2ngWNAmf2SNuhRtRbnv8/FCCJiDFt37D08omCOQmIIFuup44BeAyaFDp4881g1k8sFNCkM1YzmIJo7YYIAxgG5XGJefQ9zqHBISOMkNOnOg4cF/F0KvVKiIXR7E7pL6RgOToPNDmFED9m4gQqMGtqD0KNBa8QYz2XCWtrbbHBkWHUkcBDaJutVhZKTjtqEjbY2Wm5Bh9niudayeIG1ze1IAEKBRZ1hpS36ka7ThYio/5PaOSG8F50tr7OjxxzDTS5AzBp+VXkNAEEAqygIzHovmcu7HoBQahCKgZKPA0C4XiN8S++fzJMUIEwMjdihd3fY0Td22BMPPKT4phoVBVga0/BCxgOrkDsrwRyHf/tPwgWqr+DGOca7MU556j62Js6/aloMwyKGl0Bd8Isj/bZqwzotzJQMJXZJyl0LrU2baHDUoJz1Rai45y+wuXXNMvaKyZKnG42d7LMyM0NOblxSIqgpxPmCCLGwnrp4TXSfqtB6o6rATjhzEOKc4X4DcxIU/YH6DaEFecjuFUSjFzJIQnEawiGqUYkHF9kQeRZQ+I2xZK4XG5H+gkhqEGwFox6Fc5EVkscSc9z9jhXPjk9K+0fluq4vGgwVD+I6fCzyHfdCGpMKOsVWvT4GwopquBXBiwoVhfGWh4Rnyn+Eo5obrb9+0oY6mm3JujU2d8lCm0i6VQZdRfyKY8e+ASBM2uH3PrCj7+2yOzvX2KL2uUqdzOOvvEcW2RA0CGM0R4IxIUxVmJMSrDU2qL8I4EDGr67O+gcGVTOCjBsBM2k96q2nu0cGiLoey5cvs0sXLgqAbb1nS16wCT0fahgQcw99AjRWUTDJ4h/CNgH45ACGMWQjS4rHzfc4DZiCNiJkJgQhZRiHwCi4OFTtT5ncOm8mrXEKig1zVI5I1C0Ey0lJ5tBsyxX1cfKqNocYFbCyBEvh/eew0nKwNMTCN27QneZ3diEwVoEVYfxVgC62dEZDFMQrod27U25iJaMHGhwnjhE0N4Xjxjkb8aREnlGflHe2vBNnfA8klGQ+RhakfpQQxITlCL8palKnDIZhy9lIc70NNddb0+J5KubVrkJLvlqVYGfya0clAOKWthI37uLKDF01T3zDQgzVvMhb7lgJQPCa5PIYh0dszzvv2v633rNnH/tkoNpV8iB4kxMTk/I+Q0ndgNh5uSTsiq+2G0p5SeS+RgWxMwj59yfEJSJ3Edv8RivHAkRslxz9X7zzlt21dYu1z51rtDu92t+vCmwce8WqVdqOAiJDA4M2PjJqizrm2YbVa2zR/IURdQfvBU9YXiQhDgxeVN0XbFGsgJnE/D3Wyn0qvoewKQoD8yKpvB1LgnBxfH2bEBcMsGR8PJREzsf3ZbjqrX4y9HlgLPlPAINMBdox+2IcYU2w46FCmoMyPgqZGvWz5oQpAAAgAElEQVQhVQ2vLXYidCFX8KBCzwS+pO6XASQbIpQVTz2xELPl2vG4EfSFMIRocUo7a/vgDYbUqkhnkkEAQMt5oZegvkAdP15XZ0OTE3a657JdmRizBx5/zOYvXWI5Qhtqa5zJCMkbhHBM5uKRXXvs8I4PbPP6DTavpV2skXgw98QCLsszXtLAxFLUUnjH7A/VnCDtbGxMHe7OX7ho5y6E8AEpkaTukjZKTQlqbnS0tdmmjXcoPZFxOXv6jA3299uWzXcHwxGnAOPC2PJv2K2QkkxhmaCVyXcxjd0TRR9HgamydGTUgiFVXQIxD2EO+TOU7YxMBEaWKUeRrSDKC++nfwdiIsxv2eMYElKISZUvA9MhDZBo6wj2EmKBZ9zUEEJIeUWPWBLCJwH8uddaTC8VvPsQTlDJ5gigQnv2Ag2eD+tFYO3vJ+OXn68CtlPpcwH5+C4GNX8AV3qPYtxewj8AQnyfx8eoGdFgjQ0If0OhonHYOiqdWs56RgbtXG+PSqGvv/sOa+lorwGEahizGkCoxijewGPMABD279plO994yzbfdrsRCSc+J28lLioNjU3B2OIJxlKnUg3robv6OOTUsqhhwENaWFCTSzQkVz5sE8RYsZJbc3MoDxrFdLAFFJ158523VQmNTnrEgKm9jgKYpi6odCkxSmog+e14dZS/vXrlikoS37Z+g6rmqVNka7vi56OjIzY8OGhjI4FCrsc7z8cEQ3XK5pbmWD3MJLRC+Y+ILfVMJPqLKn+EgHgwUPGkMQVAEcZNzn0sXgLd3zFnTsgsGB9XfJviOaJLo2ZCwjoJMuulgNe1UOhkYlxiw1CpLIAyFjxnAjD0HBe6l22GB4cUnsGwBpsZ0otYdNmHoj88H4w9qXZBhzAp2liKacSJAoATqrVP7QDGb2h4UEY0qMVDfFkeZVyYuV4EfVT4w8Ah7OM+CVVBVeca6+3UxYvWOzBgn/vSF2zR8mU2SZ+S6HSlgs88+6J0wgAqTx86am+/+jNb0NqmToqUdQ7YJBhFjBBaFW/rjAGjpHTM7IxACDFhk/UNDkrvwpxCpU9RHzIWMGJkbBw7cdwG+wc0fyjwQ00OhF+EEqiBf/nSJdt4+23h3uPzDkY0gCJCEDxzngv6kKHREc0lpZ4p2yEo1VXJkPlPAzYaeo2MqBw0gsY6ZQJBK8VUN0SRjY3qGcH7ondrZFRMSQB5MVohbz+IWXlubCsAKUAUrsOFsKGyXgD9hKp0zYgNLfR+IS2ZawIQMIGUYRFDUgAmtudeML6MZf46gr8f7xc9UrPGJLTWDp0/uR7N93jdzoTxLMP6wXUEIMI7w/a+aYFxmNS2ba3U/A8skd4B3q3IYoY6HWGukqFCiEidDCcAuxx31EYnx22CEtW5cemELl7psZXr19rmbffagiWLkxLBNQbhmi1UDSBc89Dd9B0DeRe+JsbH7MyJ47bjrXcsR3va0THLDY2GMENDvTW3toYiL52d1o4yfnjYTp6gUcjlfIw1LB4hpQnDTKc3ChzxknZduqTCNBSMCUYzUKb8D0U3BU1oe40BZZuD+/dbV0+3uoRd7rlsi5cs1QJKQRkt5IsWSogHUKCwEAwDucXtLa35eDyLajCQdbZg/lxbumSZztVzuVvXw0foGtiCBZDFlCJOlMJF4zA2MqICL7QM5ppC3B4PDyEbhmiOCgypItqkqb304SNH1GPCK5op7EBL4dZWeaQqs9vSKnU8VDZNbWhsohVSVCv0c87mdsy12zeG3uwsYBzz9OlT1nf1ahAnomEYHlV71/b2NpWZxYgxLhyTpi2XLl0U0+DpkFpY6+vkIdN0iVQoro/qgpR27uvvC2mqsYCXl0mlRPDaNWuk/aB75rHjJ1RQyNujh5hy0CdQcIhrWUKxoNFxXQPH7+nvN5Z2aVPq6zWPHnnsUeugkqYDhKhj8BchH7qK4IAH1n3pkn248327evmy9V/ttxyirkh3U9ERkSbVDtesWa05xrnJu++50qNqm4x5mJ9zxUItXrpEZZQpyjU8NmIHDx22D3d/KIOE1mDunLkhUyM3qcp+dHikdfDRw0ds3549CjdQ/MYBipi1yZy1tjSrsA99CXh/Ll64aGhraMqkcFNdvfQJbsQoIETteuaduryePWvnY4c9QKu86ZiG2dJMWeGVOj4s3UUKYR0/br1Xe0PGRsw44dli8JevWKGKl7w3PL/z57iO83kxpUJBkZWi9wbXTHGouoY6u3D+gnoF0Kod3Um4kKB1YMwoMkWxsza1eh5VeW8KagVRXkgrhQHAYHeuWqlj0+yL943qnlRjZPw8HBfeg2DwSS1duWKlANalri7V++f55cV5kWJgfiMapTATBYgI/VCYTeM3GprdiTWM7AzgioZDKqzUQDOybjt5+pR1Xem2UUAx91dfZ/MXLbQ777rL1mld8hBDBct00pytgq1/tTapAYSPzvMukAkBKihkMDpmI0NDlhsZVY0AnieZCAgJoeBCHe1ASQehV3RafOFIwgce7w90ZlAwu0rZY4t8gFeBhy51/OiYvDQWmL6Bfhnv115/zdavW2frN2zQghiETZ4OORE6wB07qspuGOE1nauV3ofny2VR1REvj8p1R48ek9dLm1S6TLa3tWvhJLffRXlB6BOrV8b0uwhnNB4KBUySw05qYfDKUby7UIprDpQoYZlYnCivI/PiOYFFUQta0bkhYwNjG9Ta42IzFGaIn8NmhFoMYZEOdHK4nqANiXNP7AbhiVCXAIZC3mS+UFLQCjiLE0IW4dl4MapQ4z2KzCSmCtSzvF4ocOhsFxSSPobQNMaB8RClvMejJe7PzsThyfMmxKLCPs02f/HicB0AEoGDpEhSommJF6pYO3F8UuTwPsdHx0M8PQLNoPYmjzzQ5zAdALsAgE6JDaIaYueqTgGZFjx2xilqbKjYuX/fARloDOrGTXdYMzXuI0WOBywZWy5n+/fuU6Msmj+pcJXCB8HLD4WYQifYgkAyrIwci3fH3x/GivmvrBFEnLG+hEIU0qyQrTOmMQvNpTxMhNit0BHWU9z8ufoqFMRrIcVVTEF8dowVhpf9YL64HtVkiP65NANRrCovPIYMAQ2uo+CdIEyjd5lzxPBNniFU/n6hboFWjrh+RBwQtCvOcsXn79kcuqc4x1kfgjDW9TJTNQi+rng6tLMUeZ1QnE+6f9YaGJykkBA2fYz1j/ekMabERt0QKYMtallcoXWrAYTSRrDCIayGFa1pEKoxivEYKnIzGQVEGCtehijrlnpebs/UE/qC6Ir/9Nmn+ijSbsKL6t9axvIHk0Elj1xpSUFQNpkbVy49+1L3nfLNNCOi5jplVT08ESo2Unt+0k6fPaMqZb1Xrtidd96lpjEsgnhFxFDJuWYBQXBGQxh6D7DoYzCox0+XQmhK8ogDHRpS/ZztyC82sdZ5lFJNSVtqaGzWIkzqluo9xKwELUaK8QZ1txZdVTCkgRSLFulNAWSwH62fo6Y+eGLRy5PQKoKzKYtfBDU+zoGy9SYpXkUSqx3EhMrzUB55wdNTyMVz0eOi7R5xyMMOVdow0qHgUAhXKAIcDUFgToKmQummMVtCqY8xHi5mZ3xSnREFTgJ5EqdHnEWJArqQeRPOqWMj8Iu1JTRVpe8bt+HBftHnAIPduz+0M2fPqNwxLbN5xqQsSjSJrq+xUbUwoNAps7zj/fcFKh9//HGBxiAwbNR5FNrBI2f/8QnbvWuXgMQTj38ydn6lUFXQazh7VK8iSLFOPVUTOUYspMRcl5A24EN9KfMhGnSF9WKNCY11FOup2FOsc+FpqQAIQksqShZDSS6K0LNSRcxQJlmgMrjpQZQYwaGyVqiqKb1GbBykZxd0MF74TOMfgVBDQ+htwrHw1HlXA8jO14HMJ1p4GfEQfIkgKoYb83M2PnrPQ5LANWYuBOzgnFJ0SiKckXInviOBAYsCXtUvieE1BwhR6OvZQJxSoDe2cubayBxqoOx5vM/8O1HpelsDCDWAUOlc+ShtB0AIRi+o3bWQsDa55S+C/tIUvynpfgnwkK2KnklhPIL+oPCZf+KeVnjpWWGgI2l/zELy0MMPy4CrLKuLrrTohS+oe7xFmhhB3wIOoBJZ8DH6FF9SOh/phuNj1tPTrTAFPQ3IXyfEMW/BPFtAVgTMQltbTGlrtgY8Cz9TfRDUBe6lkPPLNbrYK6/qT3K7C3ddGAlfUNO5kh1LPRUPy7h3HT2afGpYArrCuPqopw/Of08BmvMjxa8pLNLBqLjIMT3+lHuK8fUQ2IljFI2g/y3f7yten2pYOByKnd7kVXqmS9QZyGDEVDzGfmx8VIYJSplGXwODg3a1r1cAEYNGo6/bbtuoORCtXMi00K3TknpYfT6obdDd3WOdnaulXYGWl9Hy2gSxGY3fMx6oSoX3XrEnnnwyP/dgLabPc4eRwZCmIr6CMfe/F8rQps9/+tNJofbUl7LYO5heQXp9LhOeMhNSYJYH9XkNZmaGFd5fV7oUZl24Xx+zwrvuQsf4SJIjZu9k+hZTjx5WqHAXIV+mcL5i626ERfkzurix8P44JC/M3dSlqXgtrwGE0kNVYxAqnka33Ib5VLVMVbvCqz71koN9SpecYk8/r3sucr/+2VTTqPNF6tENIw2H3nn3XduwYb067cnIS3BXoAPTo6BJIO5LMxcEX1wZxZbWrF4TtAzy6GNetno4jFtfX78aQSG0wjsEmODNE/Nt7wjplACHIOIqeIeFRTmEDdzbcWHclOIvReqUe1aIX386roV7Kgg7NeoJ3Zn+PsUAZQBEYTn3o/qyHY/tS2fidbkCvnBthWdc6rwFyjgs6AUDlDwh70VcmEJBAOcsQwQH6Xk5LqBuaHBI3Q/JYOnp7tbvjDFaDGLRhA/a2trVh6KpsTmwHfpfCEcAMmAYAJE0SwIIElIIDb2insK7dSqjpECdcT+EXryXyJMOEKInPTNACCGGYs85FcC6US1AuWKw0kHC7ABCamLdpE49eqF9uc/D9AzFnmUxJ8GN8bUAhAAknedI4U3h71Pnsssmyy+p2Xud/k4U/uJux6xtWg0g1ABC+an40dvCjXIwQBVcf/SwKtgy2WS6B1ts/7CmBwaBL2KQp0+dVu/4+x+4X1oDpe1NqUcQjsQuQWUfMgKu9PRI4IfgEO9w6bJlEj9hUEI5UuLM4Z6dzkcACRtB90TEVBTK4TPEhgAEekggIPSCOd40JqSjefZCMOTSGeT9TF+A3Z+O4qnEcATPdepXYCmyi3dczBJPrxhAmHqk0st9MeM1HSDkzVsCUgrX5fFnbTVVUpC/jBCS8GcVfvHnqDz1GE4Jzz7UxVDGx+CQuvQB4hCv8rVk8SJb1blK2QfoPbwQFPuokBahpVjLgbAP/T9gjY4fPyEQuPH2261z9WqBQA8BBaFfARSE5xdeCn4jDPDh7t3qIvjkU5FB8E38xpNBT43SVAahMC18/sUTTYHdhf1T8zyVbi88lcJM879ljXr2DfTjh+2mz7Fw16nJLzajCtAoPX5hlqdXODW8mJnqYT7EPxYHJOmxwjV7ObTsJ9ljZ+/Vxzu7HfcQAEJReFvskgt/qwGE0uNTiV2ZeXQr/rSmQah4qCrdcCoFWn4v7ypWfstr2SKkKPmyZTLW+/fvlyEgcwAhogv1wvpdmH3K546xcnQIGPdLl7qkaKc1NBkPixYttLlz50mdLkFgZBVS0ZT/jsEhvfL8+XMCDIgIAReADMIWCkW0tlpHR7vqoIfeCaGOQApitJzFeHJBl1HZ6BSEnZkFekp52sqOVelWpc4pX64Eiiy9z/TlO9VWsB7j7WOASTNUet3wiCoZkvY6MDCgsNHCBQskNqQFM2Mu85W5liCGiwWyYr8DQgIXLl6Uuh2Qt+mOO2zRgoX5hkmKjyeV7fJX6+K5eA7S7WAQCGU89dTTeYtcnN6fOtLTTdl001Q6TJCwD1lBUDxMCkUrfcbBxHpwcTqcqOS+0iebhaBTj1gINsx0fbPvlVgw5eVskIez/Fl43dX0eqaOYxZ+lBnZGkCoAYTZvHwfpW1TD6eS6y5lJCrZt9w2qfeKIYHyl17gzBkZhzVr1sgwT1nIMwdN78cV5LAB3jMeQ06e+/z580O9hPZ2aRWcBcjeH8fAQNBsReV3+/uVasjffFuMD9c1b948gRiMWHrMKQtRRVRN2KPUs7nRz6DUc5oZIJR7uuFzTwOVsj83YYNDwwJwpONRU8KZID2jBfMF5hhTqduVQZKS+kn4I2aHIEaj4Rc6A7IZOB/MD/MHwSuCUmWaqMVyktmRWBn56gGFyAohMgUg9Fy5Ys8kAGG67z59DIoHC6ZuV05HwNbFtrlWcFAACOG3YhChsqeZaiPinM344B73LzdWNwMglIIU/ugLU6AGECp9/mW3K4feyh6g8g1qDELlY1XxlrcSQEiNojcswTAfP35cuctoEcjDDpRwTLOKd+r3kaXI/ZgYHow73zADGHuOQfyaWggYd3mnboDiT7+OEDoIDVPwalGoO2jgJ3/D6AEMHCxg5Dguf9Min1a8iwCgkKY1fYn8ZQCEUsBkJlCSBWX+DLJMCqAK0Mf4Ezrg3339/RpTVPnoPQTaOkJnOlgeFZSK30GfEqy6jFqsh8A/2IbxZ56cOHFCz2bhwsA8LIysgYtcdS9pb5k03BOscRIiCkWhBBB6euyZp2EQKl/1ygGEFO5kX9p031IAoeIXPbNh1stPRYWzPWbpIJZDkfLjVX6L2V5VYftKggZTz++cQyURh+uBadd+Tx+ZPW/kg80MQg0gfGRmRfUuVEWXuroUasCT3LRpU6gSF0vZpmdKQYIbZP+cz9zYY9w5JkVsMCQYIrxMitdwDg89eE8Gr86WBQ8c28v6IoKjgBO0ON/8neNg8PjmuBg9T6d045mCBj9+OdB2IxmE63ly6Rg7SOAn4IwxEVNw9ap+Ag5gbwBQsAQUDCJc48Y7Iqrp2gzvLxAEJAIKpP1RoZL6GLAGgDUKPVFIivEuNl66vgpv1gEC4OOZZ54pGWqp8HC1zW71Eah0Ytzq93ErXF8NINwKT+Hjew3useMVYtCptkaoQWWas15R1hMs8rnHwDEaGBJnEwgb8BlGnPAD36jdlTOdOa5nITiT4QaI/QEfGEMPRfC70+aAAsAIIQmu38FD6FIZsixKGbP0VkptdyNnQarTKHYe/xwvXmWGh4YEBBgHZ1wYS+4TsMS9+1i70DALkEoBIa/RwLk4D4abUBRjz3MD6JHq6GGeSgFVKWDGefbs2SMAUgMIN3KW3SLHrgGE6j2IGkCo3ljWjjR9BFi0WfgxBIQa8PgJNSirwVukJrvNZMydCShkHQRWAQOOMcPQQH2HcsbtOgffGDRnE1JGws+VvY7Uk8ZYYiA5Jj/5N/eA4WQ/r72AwfTfARF+vjRkklL3pTQTN2oO+T2lY5cadA+5MI6Eb2AKGFsHQzAF3B/AiPvj27+yoYhS9+DAwMed8zAneGaADJUBXr48zxpw3Oxzm+34+H0DEGCdagBhtiP4Edy+BhCq99BqAKF6Y1k7UnGA4DQ+FD5MAsaGAjcY8XIsQurdu8dfbJz9HBg4WAXAAoYcLxePFKCAEU/BQDmvOgUTfnw1oIn6Bc7Ft4ck1Nypo2OKgJK/FTOgxcIdN3L+eHgmn54YmQIPHTgoYEx4LtwHz4lv7gFvPgU9qVdfqYePJ8/5AVv0n0B4yu8AA779+bhWhPGoAYQbOSs+pseuAYTqPdgaQKjeWNaOVHwEMDrqhjg8LKOAJ0eYgXCDd48sFb9P/15JbN9V9i5m5FycF0ODoBGtAj899FCpcePOsmI+5ftHdgEw4ml9/J37xSvGwLqGgZ9paOVmhhpcS+DX6YJPrpnrAAAADGAJuGZ+T5mQLPNSDCAUY3/SGcHnPA8KHgGsGAsYA8Cbg8WUccmKQq/l/aoxCNcyah/xfWoAoXoPsAYQqjeWtSOVBgiu9scwHTt2TBQ9LALePYt4sXADR8sCh3IgwQ25N9jxkACsAt8Yb4wgHitgIXTeKxRL8ta36fVkQUoxMOMgKA1JuOAxtHwO7YJhNIivY4SJtztQ8fBJClyy5+UYXB/0P8fmGj3dk235TL0uqHDoYkA1ohrXPoAzfnI93DfjwHc2XdT1FOn4pwAhfcrFrtGfZxrOSLNZ2Ie0RcABIEF9DGKGiR/7WhiKYrOvBhB+BVelGkCo3kOvAYTqjWXtSDOPgBtRvEiaL2GYvIBSqT1TQ1EOHGQ9/PSYGElACaEH6G1+or6nZTWMgocvMJwOZji3x83d6GaNZpaBcBEl5/O0wBSkuPiPzzCK6DHoPQGN73oNj/Gn4RXOC8A5cOCAsi3YBq8f79vDNZzbAQZgASAAGMNj5965T8AJ3jrAwsMHKagod39ZJiUbAkoNvI8Z140GALYFUOasQTGhanYezIbhqQGE2gqkEagBhOpNhBpAqN5Y1o5UHiC4Sp6eCxhqQg0YSLxWN9KlvMfZAIT0Snw/fmKsMZYI4zg/VDdGE0bBaym4seYYqZiwmGYha8B8G2cE/Dpcw8D5PTsAbx7Pmp8Ye7xqDDeG0386SEEjQJdMjCzboRFwYSbXT0og23Is7g0Q5iAI1sLrRXitCGdNijE35bz39DmkbIX/PWVvGOOjR48KAK1fv15j7dkllbwvNYBQySjVtpkyAjWAUL0JUQMI1RvL2pHKAwQ3Ihg3WAQo/zvvvFOGw0Vsxej9rOdaylss93c/Px483jzeLR4514MxouiSd5N0bzwLXGZjQJ3qT/UGnNuNKGAFT9/TNfndGQwAC9eDUafkNF/UkYD54ItjIPrEOwcwwAxwT4AN9gNkALwwyBhov+5sJkPWCFd6f2l4gWtxVoR75n64ZoANjAEARm28vfPiDJUm02dYAwi1VWXWI1ADCLMespI71ABC9caydqTyAMENPUYQ6hsKHBYBA+IK+1IAodz4lmIYioUePDbtYQ9i+ufOndP1cG3Q9hs2bMiXhva4eqqqn8l4FbsW97aLsQswC3zxGSwBhpXxAbzACkDNP/roo2IPABGwA7TJpgAVP2FAtm3bJuEngABgEPpLhPh+KaNbKoSTAppy454WogLwAAy4JgAB4A8Gg2+vl1DueNX8vKZBqOZofkSOVQMI1XtQNYBQvbGsHalygMDCjbeLQaZ63t133y0jly1sNBsPslwIohgLgfHE+4XJ8N8xurt375ahRSOQFu6ZjXebpeL9/MX+7uDADbMXfmJbb1YFcIAxwAATmqDlMWwHRpkv9Bxep8AZhmKGvlwIxxmTUsLRdAycIQEkAGQYO8SQaDu4ntB9syG/y2yeZzXepxpAqMYofsSOUQMI1XtgNYBQvbGsHan8CLhBcWMJFb1z507R5hgUjHJqQCsxUn7WawEIbkDTUAC/Y3S9+iPePZ47jAK0vzMB/CyXp5/VLaT3z3UXuz8XOnJewBPfxPJhDhB2Agw6OzsVUoDWJ8QA0wDIgs73iocOttiG8xJ6yJ7f76XYGPKZZzw4u+PpmxwHYOXbwBggoOSaYDJgPNLMDD9+DSCUf0dqW1znCNQAwnUOYLJ7DSBUbyxrRyo/Am4w058YQAR4MAh4nikVXS4eXv6M0+sXpMaqFMWeaiUIPXgmAECG8IPXUnAKv1IgkxroVAvgBhdmANDE+RAa8sU5YTE4p+sJ+DvXjpFm/KhICEhwESPMAkYaQJGWga6E1fBr5PqcncDYw06gZfB0Sq+pAMCDPdi6dasYDViDVNyZAqpKnlc1t6kxCNUczY/IsWoAoXoPqgYQqjeWtSOVH4Gsl4+XjAH54IMPZNzuueceieuygrryR65si+z5SwGE1KP2DAQM99tvvy1vHi8ZT544Owa4WLXEYleUAiMX9mFo+XZDD3MBUGIs0GdwbG9ulVL6XLufl5AE/0ZLAVigeyG9LzgGgAaQ4eEH1ydk2RNndbhfrofeBRzj8OHDuk+OBZPCfmzDODAegIbnnntODIVnoxRjR242e5DeT63UcmXvx8diqxpAqN5jrAGE6o1l7UjlRyA10Kmnigf67rvvyhDdddddU7zQ8ketfIvZAAS2TSl26HUMNQZ47969ouvJFoD58PoCaZEhN1B+n/z0+gheydBrMyA6xNgTZiGU4V0M0yJCAArXB6R37N66hxJ8G3QVXCdGHvBFeARWwYsjOSPgFRPd00cgiTaEVFTuDyAEmwFwIVWR2gvoDPj35s2bdc2cG6DgwshiT6QGECqfp7Utr2MEagDhOgYvs2sNIFRvLGtHqmwEUoPpe2A8oNWhq6GqUeNXUkinsjPOfqsskMkewfUBdCHE2+ZavTmU0/ppASKvf4DXDRhy6p5tvUYBv7sRde8+G2LJXpdXICymdXCDD1AA6AAUYEFgGRzsEA5wwECqJF+kn3J9aBp4DtyHF116+eWXBd5gJQALhD5StsV1GcWuf/ZP4fr3qIUYrn8MP3JHqAGE6j2yGkCo3ljWjlTZCKRxeDds3kwIgABd7oI7jvjL8jxTw5e9M9cM8JPCROgUMP4YbIACnjq0vvcYIBMBhT9GGpoe1sGLIeHBZ9mBFCikIKoYg+Cfpw2ZHDi44NHP4WENAIuDHK6b31NABmvANfI39uG6uX5YBa77M5/5zDStQXqdlYZcKpsx175VDSBc+9h9ZPesAYTqPboaQKjeWNaOVPkIpCDBPV28Wrzbd955R9S2p+39srzRUixC1lv3BlFcO8YWsADdjiGFHcAz595ITyQE4fflPRq8cqOXdU4Nbfb3YgAhKzx0cOEhB2+I5dfpzEZaRpprJxOBsIGPPdcF28H98BnHoV4FDAOag7TlcxbIFQM4lc+O6m35UQcI/p5UQ6xbvVG9xY9UAwjVe0A1gFC9sawdqfIRyAKE1AvGS8Vb3bJlSz5tzz3Sm80mZDULXKcbHa+fAIVPmIFrJM6P4ceowiywLZQ8xpS/ATnGX3wAACAASURBVBhgR9xbT4sMZZmCcuyJj0VqRLKiSz5zNsGBmN9DMaOe9pAA7MAcwC4AGqgJgT7hvffek/YAhsTvzUHcTOCm8tlRvS0/ygAhDcUVAwg3+12o3lO5wUeqAYTqDXANIFRvLGtHqnwE3PAW84gxSBghjNX999+f7/iXGqGbtTiWAghcI8JCMg8AAoAFQAD1CchA4N+ABgwqnyPq8wJCAB+AhGcmZBmS1JDPNKIpQEi3K/X37LGyTAifM+ZkLyDEJCxCuASdASETwACggXoHABvYEFgGgAI6BpgS/l0qvHCznll6nx8HgJB9brcKO1P5236Tt6wBhOoNeA0gVG8sa0ea3QgUM74cAQ8cyvu1115Tmh+eKx73zarIl7Ib7m177waMJtdGVgAAgGt13YH3diALA6PJ9QIUMLik2eGNAwwwunxO5kOqQyjGIFQCEFJGIGUFSo2vb5/ep6c2upaCa0eDAODxuhTcpze7QuzI/TMeDvLQWwAU+OkZEp7Z4CDIDTbX4KGO2c2a2W39UQYI6XPyu/aOnelznt2IVLZ1yl7cKnqSyq681s2x4nGqZMMaQKhklGrb3KwRYGHCGPNFF0AMKzUHiH2XKqBU7WvzWD3GHTCAop+fMAEYSK7DjSEGn9/xronXc82AB7xpjKQbVO4LL5y/sZ2XUmZfFzV6FoEbhnIed7nPi42LG0xvCMU2GHrSGPnmPrknMhQALx6eSA2Uhy04BvfBuAAUXPjo7AKpmj423De/ux6CYzCO2bTQcs+yGOM00z6VAITZHrPcNVbz86wGIatTqea50mNlAUIKXov9Xsl1FGOsKtlv1tvUGIRZD1nJHWoAoXpjWTvS9Y+ALyKABAwOdDbeKqEG72Lo3tONWHA4phcJwmBi+PjyhkOkImJAvShQGiZAi8A1Q8NjaP0LI4ix5RuPmnvjuN7B0csXO5XPOSrx2ioFCFkD6NkOXB/gh5oHsBxcHxkWDmSyegYHLn48v0Y3ws78ABocLDAO/N3rJPAMuT/AkDdwqhQkVPq80/udCSCkDEulY3n9M3x2R8iyQIyltwufiSGa3Vmmb82xeT48q7Qypr976c9Kz3XTxrsGECp9JOW3qwGE8mNU2+LmjoB7L3jwLIYUUMJoUckvbVvM53ylZY4rXei93bJT3w4KfPH1csIeBkgNGufz9MFUP+Dtql286N6eV0JkWzeqXp2R8+KBo2VA08BijJEmtMK9+lexng+VKNu5Fs6F5+7X7PfO+cha4Bro4ZC2uU6feLGF3fswpLoQf27OwACYAAswKhg2SkEDHJxh4F4BW4AGxpdr9HbQaSiiXBnr7DN3Fsq1HPyklDchnqeeekphH6fqiwGxSufQzX0rgjgWQEcqMGPr5a/53Z+RsztZ0agzQWn6q4d4vBgY4wLw9ZbjvHNe4jsL4rJjVGzMUrZqpnBS1ce7BhCqNzVrAKF6Y1k70vWPQNYr8vRAUgQBCMTFWRBZVDw9cLbaBBZWDBWGy0MHHj7gmMTRMVwuvPOqhlmjmTWcs6Gq022dUcBg841RxVACTrzyIf/OGsrUuJVaZN1oc+3OHLi4EgYD6h8wQnaF32clC3Yxbz777FKjxfm5L+/fwLndEGGYMECAhPTb9QvurZYS5xUDCJzbhaKML6EfGKEnnnhCc4c542Ak6w1Xcv/XP9NnfwTuCQD785//XNU2mZ/ch4eLsuPv9+lzwEGDgyPPoPF/s53rZvid8Wd+MC+KgfBKACrvKt8cJwVs6d1XfbxrAGH2k6vUHjWAUL2xrB3p+kcgXeR8kSdmD0CAusfL9WJDpNqlXnkltCfAACEe2QV4Y+6FYZigU51SZVGcCXhcD72b3dcNN/fiwj8AC9cIiAEo4MnhaaeLdTmAwHExxK4lAAxR+ZFsCgwy2geYA46fLt7XumDPNCZunLw2gxsOD0tg+Lh37pfr5j75dlEnxnA2Tbw4BuNHiIp7Zs5w/6SYYlzJNEkZmkqM3fXP7us7gqfTvvnmm0oBpsqle//+/NIzePGt7HuRgjsfa47NfOenj7M/s2JgMMtQFHv3nCVjnvLcvW5Gdt9rnW8lR7MGEK5vok1Bb9U7VLkj1U1ez6pa7ui1zz92I8B08WJCLPD/+Z//KQ8KwPDss8/aM888kwcILIYYF29I5B660814j8TaofLZBqNIbr8bXRfMpZ0Pyy1cWQZhtg/APTunhdnfaVkXSHK93ksBQ4+3z3Vj3DB4AAB+h2nwBd6vA+NI0yaqHnI8Ukf5SWYCx0E0mGUNyt1z9h59+0pf7fS5pPeLYcKI8JPni3GHcQDEAZZ4Zlw339xrWn3S+1Wwr4eGODaA4xe/+IX96Ec/0tzgM4zq5z73OXvooYdKCiRnOwazfe7Xuj33xzOnQRaiXYSk3kfDWTH/t787nIu/ebYN95a2/05ZGQ+d+c/02WbnOts4k+fH5BzOOHDeNPTBv739uIMZB+BVH+8aQLjWKTZ9vxqDUL2xrB2puiPAosQig5GkBwAGDnocw/b5z3/enn/+eS06GBAKK7E9KYZ4nd77gH0BByyKHjaATnfBoBvptMmQ06nlFq7rBQjlRotF3z1sQILH8PGmYVIwoFSd5OeTTz4pzxiAw36wJN/73vcUe3/00UfzLAIpoxjJYsCgFIVf7jr980pBggOD7HH9WbhGgnsHIAAYPFOCe+XaAXY8R34CkFy/wL4wTWgrYEfY/7vf/a4qQfL18MMP26/92q9p/G6leg2VjDH3xv3AINCvBKBE/xKeNcDpxz/+sTpvcl8wYYRTPvGJT+jfgGPeA54/nzHWzBX0DIzfnXfeqfnlLcI9/JB9VhzL03kB6270XQ/koRt0NByf6+XZAGQBtsxj5qSLjsvpSyoZl2nb1ADCNQ1b0Z1qAKF6Y1k7UnVHwEMMUOI//elPZQxZ/DHuMAi/+Zu/KY+KRe7111+X4XjggQf0OQsT4AKmwGsOuBAupbs9TpvSnpUChJnuthgtW+nouJjQDaYv0izMeNYs5Cy4gB/aZPO3T37yk/KMuVfA0M9+9jP7r//6L2UnYCj5DKDAGKSVFVNQcD0AIY1zl7rPLHtQbjxShsWzWmAFAAxej4Ln7CmU3BuGCeYE1gAPG0O0a9cuGU9CKr/+678uownILAUAywHDctedfn498yB7HuYF9/3GG29IjwPQYyz27dunZ8yc4F3g/jH0CDJ5H3gvmDOkDMMcsR/GG6P+r//6r5ozAMwXX3wx32Y8FSX6PTgI4Jw7duxQyW2+fL7C0gAACIf94R/+oVgbgP0jjzwiEOMs3UsvvWS/8zu/I5Dmaa/pvV73+NcAwmym6Mzb1gBC9cbyV/FI7uWzCFX7yw0Ehh7mgEUJgRZGD2P36U9/WosjxpDKf3hC9913n23fvl3eCt8o5d1byhpGF3dlAUGxeDSLo8dRXYVf7H59MU29aT9PpQtfahjdqDod6yETNBk/+clP5E0yPnjTGD+8Rj77/ve/r/AC54RxePrpp+2LX/yiwFNVF+MkLMJxi8WmHeD4vaRGpdIUx9STdbAASwRAxGjCMOBNM9YYLu4dcIghBTQAIDFIjAGNqDivX0/2uVT6nMrNdwwkc4tzVcNTTgECc5z74h7cMP/t3/6twBAtvjH6gMKvfe1r6rzJPfnYwCw5G4U3j57hj//4j+2FF15QCW3eLUAX1+xsTvqO8DvjDcPDe+9zkr8BSnnvAO+8p8zDT33qU9qWd3fTpk16X3//939fAC59DtnxvObnUAMI5aZm5Z/XAELlY1XbsvgIsGCzOFzzC13ksB6L9488por3QoVFFkUyGt5//30ZRIwFhpDYMuwCi6cbLKeS0/REF3B5+lWpa3cBIft6fJX7LQWIUoDAosh1sa9TsZXQ8Okx3Ij5tXM8zg+rQnydsIufgwUXvQEsy1tvvSXQxP6EVgBOLNpeY2GmtLOUuZhpzrsIDWDmtLWPeanF3uPfsCF+T54eWuoZpMDCj+uGy71aZ5sweIwLISfGn2NCn2NQ2ZYQA8AhVetXYphmy65wPZzDxZbVWDtSgHDvvfdq/sMY/PVf/7UYJJgF5gBAmvvk/gGGvAt/93d/Z7t375Zhhm3AcwdYAgp4b775zW/a3/zN32i8aCbGfoRpmEO82z/4wQ8EOr7+9a+LlYC5+od/+Ad9znkIcfzJn/yJQhy8JwAxxKGc9zd+4zcEUjgOcxPQ8Lu/+7tiM4qxdbMd62ljWwMI1Zhu4Rg1gFC9sfxVPRILyQ9/+EPRtpUYwErHKTXOHgrg+HiNGBjYAYyjp84BGvgbCycGy72mrKfoBtDTu0otSA5SWOQ5D9QpCzEL5UzGjPvDEBL3ZSHleosZuZnGIWukXYiX0r2qXjg8Yq1trfIOWfC5d7xDByVesZF7wLPzMXVDXew+ZvMMMbpQ9+hBGPtSAMEZAM6HEYH98MqR7mln92VbHwdnJvjpTBD3knro3D/3DoPA/cGWeI0Fjs2/XcTH8/RaDuUAQjFGqdwc5vywOlD3ft5y+5T7PAUIZGNg+AmxwBxwDkIEjBdaA84NEPi93/s9VSKFgQMAoF0gxIAmg1ALoTsAE4DiO9/5jn5nHB9//HG19uab46Fv4Ry8VzAOMFfMP4AX8xugQUgDRo9jABAIgXFMQCvXTtjDw4Xf+MY3JLRMWT2//xpAKDcTbuLnNYBwEwf7I36q1HCkXi455ngnZBVkWwDPdMt1eaQ/afxaB1ytM/3Ol3uHvmCw6KZAwasSYmC8wBELji9kzhz4tfq/3fC4gZnJqLEN94TRwVtigcUIz8QguDcLs8EiiTCMRbNiwzs5Gbblf/z0vgX1dZabyFldfV2g8i0YUIGHhvqQ8gZ1HsdOxjXS/r5dKj4rZpDdkFc6VVnwAUE8e68wme6bNa5cBzFy5gvhEBeUFjMKxQACx66vq7c65slkcHC0nU3aRC4nDxUAgvcOcOGbc/jxvfKlZ8cUA0jVYMIwwMT8AZQY6jTEcK3HTwECRh/Pn/HE8APO0F1wX+gAAAGcF8bgwQcflBEHSLAf4AKDDttGSAKgxvODEWAfjunvFmEZQAJMBeAAZoF3gJAN4AQ2gff03//93/UZDA7jTfiP6/BjAmY4L8wOLCCf8556SmUKoGsAodK37yZsVwMIN2GQPyanSL3a1OjiNRDzJQae5qrPCA5Y2CMScENWz0JfAiC458sx+Z1FyQsl8TcXQPk1pp5neq0yMLESYlYb4AYpvW43qBgd7pMFFmo0WzwmNawOEABOLJIABG/eVMlU0GIZwYEvnAI38d4FDgAFWMl6mUh1qBkcGJQhbGxowGqGFFD9HoBGlpVIAcK1GC2OB0uC8cA44CH62DrjUcz7JkbOeBKb9kI/ae59dox8DPz5+B1P266uLl/WmeM5WHXGyes9wB5Ag1c6V7PjVgnQw6jineM9u6ec9ZArmQvZuegiRYwttD7GFuOMsWauoR8AfBGC4NkAAggvwbL9/d//vTQZiAbZjy/XDDz33HP2l3/5l/lqpVw/4/fYY4+JGWQMEQmjKyALBPCDlgGAyLEBBX/2Z3+mczqQgHn40z/9U4UX/uiP/kjHQLRIGATmgeP7e+tz8VrYmmnjWAsxzHZqld6+BhCqN5Yf9yMVAwjcMyEGFnw8wmIlgYuOS/T+wmeToRoclqw+eMUYwInxCXmGDfWhWhwfX+29aseOH9O/oTrxfjwWnhoSNyap55YViqUAIfVg0ut1Y8/Ch2FjYWPBT6vw+fZuOPgJ2wHrwCKJ8AtvyT8vZ4yzAGFyMqcxYD+/ZgGlyVzwouvqbGR42A4dPmyTuZw8tbb2dhscGgyea6TltQiHlTjPPOSNbgQUs53DCAOJfUNR47W6KDT/LCIrlIIRxpE58/RTTwnAcM0873Sb7HX4dYfpMilwpHNYXWCaGBtmy2SYSx564DMM5ulTp+1zz38uUNo5ZlVgXgSiIuBK9/Wxzj7bSscHY40xxFMmNFUNBiFNc2TuAzrHRkft3/7t3/S8ifFjfN2L552E6if1FybrlVde0Ty8b/t2u9Lba//8z/+s0APaFEIK3/rWt8QIADz+6q/+SuACUSHAgPk8PjZmS5ctE9sAQ8L1wAz4OwjwQl+wauUqe/ZTzwoQoIVBFOotzznG8MiIQAPvEixIeKST0wSu5d6Tks+iBhAqnablt6sBhPJjVNuiMAJZkMC/WSygKlk48MwqeXHZD+eXxZqFYGJ8PF9meHBk2FpbWkNBnOYmu9rXZxfOnZcn455hY1PoqHipq0uCRb6gk2U4czl5MSxKnIfYu6ut5X0XiW2X8gr9fmEDYBBY1GAQ0lCKL2QpQGDxBFSkDMKM1GmyqAEIQgDBbGx8zHq6e6z3yhWFCxoaG0UDw55cukRTqMFQErelRTqJltZWXduVKz02MjKq+1+2fJnuGe+P8IinCnZ2rraWlubwDAhbiKUI563kC4CCp7njvR2BSl8RqHQHLVmDzzn4cN++/Xbs2FHF55vIfgk7BIDggMLHI7mYwKGweS7cT9dlaVGu9PToONxnc0uL/k7KX3tHuy1csDDfwwDjODA4YEODQxpX4vRjo2O6d37HC++72pfXsIyMjuQBbxINq2RoBIBee+0Xhme+alWnzhFiZyGYVgikVXS4MK8ncnp2b771poSXPEsZ/pdfCXM9HhvApQZgTU1iDzZuvF0gaU7HHLvad1XPjPctgN+c9AWPPPqIwjMLFiy0uXPniBlYunSZzZnToeyQ93e+L60LDBrn5VTOUPHoAMKEOA4dPCSRMPOB95Bzvf7G6xpnQMH9D9xvvb1X8ymXmzZtFPj1UFgeFBBtjHOi8hG6pmGd1eF/5TaudDGowsDUKilWYRBvhUNk6WoAAnFoFoZy6Y4F3UG4k+AFmjzgn/z4J/bhng8VS+7r77ff+MpXbMNtt9k///N37ML5C1rw586dJw9e3svy5faL11+zgcFBLYjEWjGOGGUWI1TUABbob0/vI0brJXazrEExkODbFAsxFKND/RgOEFjA8cLSTpSlnmF2bDjG6OiIvf7a6/bjF1+0uXPmWkNToz397DMyaPz93NmzGkM8R4BSe0eHre7stJdfeVmnuXq1zz75iU/YwkWLRHl/4dd/3c5fOG/nzp6z5z//vAESGjDqUVgpcWP05ss5Ypz35IkT9t6OHfbUk0/acmWO4MUXFvcpizxGciJn+w8cUOYJDAKGPZebsPr6hgAQ8kYhmLsUJzh0wdiOj43bj154wd579z1raKiXOPG3vvpVW7psqb300ssaF0Bk56pOgcWjx46Jdj+wf78MF6ATsIf3yzyBdZHhnJiwTz37rC1essTGxkjja8mzLv7cKgkxnD51yt586y1R9GmIAXAjbck1vMieXvjWm2/KUC9bsdz6+/oFGvjmHZLRpwhSQ4OYEe5jztw5NjQ4KEMMwAQIsO147IHR1t5mK5Yt17MAXARjHeFa/Dnj5VLxdGzUzpw9Z40N9bZkSaj0OTExHtJQ+/tt4cJFAhscXL1Hrl4V+JpH2m0UlDh4z5/rWgDCNYxrbZcZRqAGEGrTY7YjkGURKgYIaVghxsRFLVMxcXTUvv3tb8vL/dznnrf/fuG/FbvH6Lz66iv2ta9+zX7285/ZBx/sEhDAY2Lh3bN3j0RTLPgsOPwNY86iT8wZDw7K1GvWc69pideUTSg2DmI66usVLkgZhGwDpyyLgBGCdQAgkDaWFSkW846mAoRJeYzDQ8P24os/sg/e/8C+9KUv2e49Hwr0eAYH9wsF7PfkY/DySy/Z17/xDQkrT5w8YV/5ym9IWIaBXLFyhT304EN22+23i4VxQJAXbSZGeqa5ARA4dfKkUi1hA3hW2fvKAoTJiZwocMYT4Nbc3KRQkodC3B5Jm5noUfK6g2hgMDLf+c637cypM/alL3/JXn7pZVu1ulOGCe+d2D9Ke+YmjM/BQ4fsoQcftGPHj9sD999vFy9dkjFl7hDyOHvmjIAp93Hbhg3yljGoruWYra06c/qMxtvTERVKkfA0Ap8oPq303RPnUGfWe6XXDh08qHcAMARdzzzhGebHMAkpFYxtYCCcvIDqh2FQ+KqxKYT5xifC85MANo8SMpeYZUBiqKchsE/jY6Pa3kNhSu+1OmtobCAmltfBuNjWr5lxCQAhAJOIFisdntp2N2oEagDhRo3sx/u4qac8G4Cg1z8RzEloZ2ajI6OKgc6bP8+eeeZZxVWhMvEWjx47ar/3zd9TfvfPfv5zu/222+SxrF+/wS5euiga9cTJk6Kb8QoxQKTR4VV/9atflYAq0KnBEKUsRyUAgUWOY6K+9xBDJQDBsxhgEAAI6deMACFmMDA0hBAw9ocPHVLRG+hliyp+6PT7tm2zd98NJagvd18WU7B82XLbv3+f/cEf/IHt2btX31/+8pfs5MlT9i//8i+2ft06+/o3vi4WAoo5F8fF4+QVe7cxvJQChKzOYxpAGJ+wQ4cP2YEDBwsMwsRECG9kvNXAIISrCQAhGC68XADfD77/A1HbPOP/+I//0HNWj4qhQfvc88/bh7t3CzwRegKsPfLoo9bdfdkefuhh/RvP9pGHH9bcgaFhvn3lK1/R9iEzJBr1a3iVT5w4bi/99CVVJly4aGEMnYQQS4g0VDbKKfAcpTPi6KhA9DPPPqsQHEcbHx2zoeEhhRBcl0IIgXBTjvNF/Q5zib/rKw9Uctbc1Gxz8eRjWgjvCsAUFgIWJh+WC2rX/GgEhmtU53EAAOtClonuMmIJwEAaSiKkxbzj3Q7i25C95I+/AMYCWKl9/RJH4CYOfy3E8Et8zjfi1G50oWYrCjE4g+AxZwRlEyEjYXx8TGVf58+bZ48/8YQAAgCgrqHedu9G3/Cs7dr1gWKX2+7dphgy9HFv31W7Z+tWLfjQrKRlwSBAbeLFeGVFxWQbG+VpF+vSmLIi6VilDAIAgeN5FkOxEIPvy7m5DkrMZhmEUrHVfFZHbkLjAngaGxu3V195xY4eOaqCM6+9/pqMKQwCcXaOTYU6tAQYgJWrVtqihYvs1KmT9o1vftPefe89iRcRoVFUqvvyZS3WG2+/XYI0wja5XBD9FXQAlRVI4TFCpb+34z178onAIGRFqsUBwmE7cGC/PfXkUwJrUN0uGJwy9vEfGJspmQu50MTr//3g/4lJ+q3f+i0J7hYtXqS4+Ycf7rYHH3pIrAE6kJUrVtj+A/s1h5gXhFwIc/R0d4ulOn3mjABWf1+fhK+I8+bMnZsvIXwt7w5x+9dff03HW7Zsef4QittHcWS543r4TfY8Nj+iRgHz6uGHHhIYZJ4BjN9++y174IEHReNfvtytcMmdd91l7e1tNjo8IlaFd5R3hPPDlgAAABSAqmee/ZSYJU400N8vcSHvIiEKWKZFixYqDCRxaAwFUeKba1mzdq0tXbIkr+0pdV8OAAEI4+MTNkbaspnOH8Yk7pknEBLrVAMK5abLjfm8BhBuzLj+KhzVAQKLDyLFQBnPXHJZ8y2JUeO9AhDwjFBZExPeft99YgCWLF1i69atN2q3s03XpUta4MmWmMhN2LKly6TG3njHJgmpSAELAr0rWpgdNBBm8KI8Xvs9a6RTgWExgMBCCECgtj8hCxa1mQAC1wuDUAwgyCPOLnj58EtQ4UPFM1YcZ+d7O+38+XMSge54//18jj/CM4SJACjAFDoHvOgFCxfY5a4u+9Rzz9mefft0DcuXLVOIBDHamTNnFXr47Gc/o8wDF4oGenkWMxeAcPq0NAgAEAwxMe70q1iIgXGEEWEf5gtebj0iyeTkef1BTNFMAQLXC0BgvhBL5/n++Mc/kbfL8/nhf/9QBghdAre0deu9duTwYYGG0ZERxe9hMfr6+q25qUlzCtEfYQ/mDumXsAneAjlYrtkJB06dPm3vvP22ffLxx23turXanTnLT4V0KjR4jI3uvT4IeUdHx+zdd9+xu++6W4AIIImm4K//9/+2r3z5y7Zg4UIZ7XfffVfgUZUj58+3n/z0J/aTn/xUTFp7W5ueE8cl3RGARhoi4RZ0LIALmCavBAkDxtzzcBTPhjl68NBBe+uNN+3uzZu1L5/nv5IaHP63PPkgNm/SLl9GYDwicSsi2/BeeO0O/avwnlQ4XrOYvbVNKxmB2awHlRxvhm1qDMJ1DuCtuLt7ynj2VFIrVigpFQPGpVZGSelqURQH5Xjxwnl5txg5jBqCOwwkHjKGEG+Rfb785S9rv5bWFhsZHbW58+ZpYfPqeCxsUPpszzeqf9cAcLzZtJn1sAQgiFg1sV9Su9ABFAMZaegFgMJ9uEjRayqUZBDyjnudkfQndmV8XCp97m3FypXWdfmyjCP3e/DgAYGi06fPKJyy9d6tEjIS1x8aHlb2Rr8EbAMymFDNqzpDg5+uS1063rx5c62ujrNNTzMrN99Y8M9EgEBVPoxq9vlPudeYtQJQOX7smD38yCMyDKrVEA1wSr+nNTHS4+DFMjaXLl4Uk7Rk8WLr7u7Jh5Deevst6+8fkOHn+KQaMl6Er2BkFi1cqDGAsmd8YWSYI1d7e8UkcB+k3+FlU3gqb+BmARIIu1Hy+TOf/aytXrM6MDQOgCoML0SLqR9oBQALAKI333hTxh9wR7iB9s//8I//KN1FW2ur/jY+MS5mCLZk85Yt6n+wc+cOVd4kk2PRosUSLnb3dNumTXco1RHG4NTpU3bo0OGQ6UJp5EuXxJp96lPPWktLyFBCv3Du/Hk7eOCAABXvKUwMgmIAF+e+eqVX14uAtKN9jrJLODegjGcZWlCPSYTLu8n7z+/Mg7a20J0TZoRj8zf2gzVzEJK3W9PjEuWmbe3z2YxADSDMZrRq22ZHAIOI5+UAIS0+k1V7p4u806d5Zbor1uvoX98slXNbW6vEhi+//ErsLZ+zjbdvtIcfeVhGvqmxKcSJ64JH49/peT1+eq156F7NkQUfwwb9TF77FG8pDkoai3uN6wAAIABJREFUpiCk4SEGFk/ixaWAgY+pmxBCDfn3Uq50Ie7Logs1y7EJueDl4oVxXeS7c138La/zkrfq3ljm6UWnOIzXtQEEGIQdO95TWtuK5SsCQEi8vWkgKpcT0Dp+4oQK9hAaaWjACBcqR3r8ejJhNKawNdMnoYwv1ST37dlrb7/zjlIWYSfITkBnEEBITJGkAmX8PaVM0rXQz6e0zbBj2D/5fabVgLCFAMKnP22dq1dXXh9kpoNGTcobr7+u2hrLly+znp4rRlYDIZZPfPKTetSIF++5Z6tAxfz5C2T4YVtgNZg3VDNcu2aNNCtoDf7kf/0vAV+ey5EjhwUmSXVEF8S4AZZ4voBiwlqAZTKFAF+wNGRJAEZgKtauW6d5TsgD4AkIufvuzXbHHXfah3v22JHDR3WHixUOWmp1dQ0CqYSCADZc88qVy23FiuUSlG5Yv156BkAw9Rt491LgVJCt1PQKN8Q61QDCDRnWX4mDukGESvc6CBUXSkpz3tPRmjSlSg0NDcsbQqWNaptURoxfZ+cqLVghlBFK7GI0Rcv7Ip4UXXGAkJ6inKH2bT2Ewr8xhA4Q8DYrYRBYjNNSy+XOmwKDfCgmuXD+lovhCZgRFuqRkWGl8a1YEbxeQh+wDRJfhlhOyMGfob4B4ycI4er1Wczek6dCFgPhpaVLls4IEBwUUnWTtMMnniDE0JIvbOQpknkhny47rFDlxo598DaPHw2Gpq+PNLpGedpekliMFXF35oqKM6HAz5v9qZS2j0dMwctDNBcZlhkjACUCSVI51ZQoApRZDO30TevqxIoAEPDq58+fp8JhsEp//ud/bs88/XTIzLj3XulL/Auw+sorL9v7739gZ86ctrNnz4VW0b29AlJoVXgW3Ze77ey5c0pd7blyxdatXSsdB2N13/332x13bFLaLOJPQM/KlSuUOosmCCDFfCSrhvlHTQRAB8+C53D//Q8o7XPZ0uVib86ePaM5y2cUUiIksmTJYvS3Nj42Yg89/JCcDpgFjg34ePKppzTX0xLpmhthglQctrmuZ/CrtnMNIPyqPfHq3S+LES8r8Wy8Jcq8ekGiUqI/P3sxw+0vO6wCNLpyuevrRVmyUCgVKqZzeSU94s54miyCafMdF4K5YUkrEJY1NskQcVy+CBXwTYybRTCrQZCZ8R4KMUYLQAA8sRhnsxiKPYViACG/AEaDVfBjETBC0Y5ac0tzUPjXU1ExgAOAGuMGtRsAQKg6OFVnEN5+B1b5hbbCKcKYApyOHz9mzyJyW7FiWvniLGvEMyQjBECJF9wxZ44EqqEOQlbZP7U3R3qt6TzS33OBzqYIkuLsiPNGRmPxJ5vCIMTa0/mKkuntZnUl+ncKCioECDBfvBfPPvuMKgt6pciKwE6p8U8Awr1bt9ripUvtzOlT9uqrr9o//dO37Itf+ILmZQAI9+eLVhFGefHHPxawIGOD5wTQ6Fy1ylrb2sQmkBWBTgPmA5YAJpD9AAyENQj7ffFLX1LmC0W70DqEVNPvCBySGtp79arO71lEv/3bv21kc+zfd8Du3rzFDh86rHLs589fUEfWjvYQQkRMuWfPh8oQamys1+9UYuQ6qHXBM/jab39NNTs4PvOOrAnXzkwb05peocI3uILNagChgkGqbVJ0BFiIWSRINSPG6QWI2Dj16IsawxIvsdIQG5t0XEAADIL3jPeFGmEjHjSeSGNzU/SWTV49LIOrojmvl0T2aouzXaBZwDg/XhFG10st+72W0iEwNhhPDCH7VtLEyrMY5DgXzYJDsxFAE+CAa1PR4ElitH0qHsRPro34rboZLo6hjbSUctbIJSGM2QgVWaAHh4ZkmB//5OO2ctWqKSWFs2Pt9DxFjMjGgJYuzJlCWpyHnQgdOYOQgi8Hl/43/yltwviEhKt8ocZHpU8oinMDGjBwwegXwgXpUM8MEEIRqEq+fL49+eQTCr1UByCQ9hoYBEII3AvvwBtvvG7f/e6/qU7G1au9ovPx3qlzwAXzLuHpHz1yRCmvFIJCWwATRnYC79KDDzwoA4+4FVYBjQE6BASQAIk77rxTFD+AzospwUDQzvnZ556TSDE8rjqxAYiM/8cf/IHCGbt3h1olhBg+//znFS5gvUAHwTsFM3Hs2HHbtm2rrnXXrvftiSef0LlhYTjfc59+zm6/faN1IIT0KoshnSLPLuWfXQ0gVDJFK9umBhAqG6faVtNHwBkEDBVon0XRgUG6eM8EELIGVv/OBTEWCwE52vwtGMMQC8bgsvCcPHVKjMWFixdie98FRlU4hHoo+VlAib9CPft5rsVLdkOH+nzJ0qXKiCgldHRvnHHAu2exHegfUN0GHafMREpBQnbTwACQ2RBoV75gNcgKwAunyiQ1I1auWCn9BmEajCxVJaGE0zGIa6uO4TR7vsxxhZMdgIAeAlDm5Z+nXXO6WMeeETAdV3quaHz4RvSW1kHI5sFrLsmie1WEQrFigBLpiRi3SxcuWm/vFWtsCICO8A7Pfs3q1WJRmA943mQTeCfIGcFBnrUpZDAEQFbpAE1KD9DWStYAvTTCM7ueLwACBZi23nOP0hwZm4sXL9hf/MVf2HPPfdouULnzjk12/333h4ZiMEnj4+oLQXYCYQCMNRkv/M6c3n7fdlu/br3YBN473uP/fuEFu3DhvEovIz5etQoBarNYvfCs6pRZ893vflcVVDdv3pKfkzvee89+SqGur39dc/PIkaP2zNPP2CuvvqIUTIo9MYbMS64fgS3zGNajv7/P3n7nbdU6YS4DyHm+hBu+8IUv2O0bN2osQ3Go0IjMv2oA4XpmVol9yy1YVTxlLYuhioN5KxwqT03HJkKpBuC6ri8XQhceMw6lWENjIv4P75g4NsZ346aNUrCzwOBxsIBiwKH0UaAjXINZoNTrwoUL5LES98aj75jTETw7Ne+Jzmos7hI8zCicSz5TOp7ywUub+0DoB4PGCkYpYW8QNHOng6mpdC4exMp70Z6J8TF5dqjtuV96B3AvxIMXL14iz42UPepBoFY/ffaMat8zBoQ6KAJE1geZDgVGv9BeurDahvubORzDc4qZKCVi7FNCDLRkjiEbjKWA3zhq+6Af8dS7UPcgxJQD0Mwpo4B6/hh+7h9Aqt4JfX1KbxSbMTgo+htWAwEdjYUIByGGI66O4Xv8ySfS2y45Taeo5BNAUCk2cOTlxlTQwJHPdXi4sCICCFu36lkCnKkYSVoi6ZmM6f333WerOjvz4wlDgFfPOKNFYL9Pf/ozmqVvvvmWgMTnPvtZiQJff+01ZRIBrCnyhBFfvGypNdIvgXcyfnFfV3qvqFgVegcEsl6RE3YCcMb+1Jqg/0PnqtW2d99e6R/OnD6rmh3UpSAzYd7cuUbfC0DmRG7czp87p+fNe4N+A50NzbZIeaZWg7QjXrsjfYL58b2u1ae285QxvXnDUQMIN2+sP7pnKrcCTwZae++eD2UsHrj/AYGAwcEhZT5gNFFYUyWPBQuvEW+JeLw8F7WGbpA31NraIsPZ0TFHQrY5HR2K53uMOg+AvDdBMTFfycW+ck8zDwR4akXS7aHOx3M56+m6LJEZYjJOu2jxYgkDiQ9zH4CI733vP2zz3Zu1sGNjSeWjoRUpgajWCZcAlliMGRu8fzFBExPysjEw6m4YRV/l9Bo+RqUmXH5/zhFz+qH9pZ+MLawxchKexSJWXhfDm0ohUOVZUysDxgHjAYPDc+X8/J17JNQFMCTtkdx6PGzi3ACOfXv3Ws+VXnvq6acKoKfcXKvmW5TSDtcMECYVNgklnLfpGWJEiekDgGCJAIsI+lTpM85bxozmXY2NTepRAUgGQDDXT588pSqMGPOLFy7ambNnlapI0Ssybyg5nS/glYwHAIr6CQBzQlm8Px764Xlg8NulMQjplhh9qqACDMicmL9ggRgBdXOkRsTEpDU1NSq2JrYwikjVxbQh9N5oqG+0ppbGAGwdyBd7RjfR663mFLklj3UTx7IGEG7JGXALXlSZhXtoaND27tkrjxBakjBE8DhC3QAoVTxMgAKeDF8UXaLAEezB8NCQsiKoKsi2GB9YCYwORpNt8bLmzJmrBTdfgjgBCHlPqsxiX86A5kc/GlAp/ZNjslhePH9eqaQo1lmMEZmh+IYJaKJgEx7VePDCv/uv/2qbt2xWoah6hFxRD6L7xJBeuKBCSTAtgANy/skMkbg0sgH5Sn8VtIAud39+LwUNQSFjwvlhjAjjT8oezAjf0g/kcmpjjHKdawXAzZ03V50++YznSzYE82DxokViC4iRz50zx5rbWgV00CSwLRkoKPOf/GUBhGq8ZpOTYk0ACFDvnvLH/fF8AWACuF5emdTPfJprEHLqeVHiGHaGWiRqtY7As0HtstUXA5CoUEII94VSzdPZJKXTxswQL/7EtmKEItL10CBhpN0ffmjHj53QHKb2AtkLXliNUJgw6SSnDOcMgCNUWCREx+8CCAUio/io3kSjVo3Heksf4yaOZQ0g3NIz4Ra6uDIAAQNPzjY51vc/8IC1ePXGJCVOtREmJkTB412RdoaXuWzpUhXogULFA2IRQujFsfoHBiTYIjXLhYUABb7ZPlDz5O0HutUvU/Q43q8X1XFvMVbg4/Oey91quUvcF2PIcUjBU0dBhF+ioM1G1boaaj2njovvvPuujCWMAErxBfMXqPY9TIAW8FjkiMU+Vzdp//yP31KDIEBCvV9PosTHe2ex7r/aJ28Rw8n1UC+Ab7QLnu3AdauuRfREiwbfp3jGgUYP4SF2q5cxSpMTJqnfPzYmtgeDTXVMxJyDQ4PSjhAeorwvpXvxMtGUYKSkWqcM8MCAxHZeJZNrXr1mjS1csCCI8iycNwUmzAMBhJ4ee+JjCBAKfRUcXGJgPWwWQYI73UnYJmS+hGZp+ciag2DNR6xDJuyVLBNpSDEvHPUwRNQNpaGaUKdkMnSVbAjzl/+yZEAAk+F98NLOPonKMVq6vJto1G6hVfPGXMpNHMsaQLgxj/Djd9RyAGF42Pbv3StjQdohBjOrPnfDxGJDhzli1VQPRNB47tx5eaXkeROXp+4+++OFYZgxmFChUKWELKgWJ2p7YkIGC5bBjRnV+dra2oN4K0vL15noVGhdGABAQefqTlGvXA/ABWEYpX85DgIx9BRnzpxRjwMMKY2VEJ1R8EYGVwxDplRvXNRzlrPv/NO3bfv2bSrFWxdr7fvinZ8odbTcnRBQoPQwMWPvXwEzsbpztS1bvkz3JXFdtrteCZWe6P6xUY2jChfVh14SABzi0AjUgmizX+CMIknz5lLvf7GAD2MB2IMCV5pd9CKh0SnIQ7MpVPYAMZ4b6nooas9UiRGawm1GwOgAoRuA8NSTv5wQQzXe0hIMwpQ0zAIllafhp4gjI1jMg70M+MuH1fIAIXPhYrqCofdwVMEgJ82cxFAEVisVxLr2xDUmoftWPIfLdrJjNdsSBzfRqFXjsd7Sx7iJY1kDCLf0TLiFLq4MQMCQ0uynv69fBWMwLOlX6rVgyxTfZmFsqFfjGpTu58+dt54rCN0GRF0Tg1Vlt1hnwRc/jBQZAi6Qg23AWFHKGEMIvc1PhFaUMaaTIowAughoWtT6H7z/vvQOd911t81fMD/k5JOa2HvVXv3Zz3R+Yr4cF9qcAjjkfGMA8aL9K4Q6iryx0WBPWM7+5Vvftu3btks05gAhv78AjFzsfOthPlPGxfCIyu5eutQlUMQ9Ec9HTU4sGu88AKDooqXVHfEMoxYAZoCMAnWX7OpSlgPACMMP/Y1BX7hgoc2bP19/A4AQG6cpl76iUcEAwRRRTwA1O2CQ6yBMtGpVp4poqZQvbAHgzG1MEfCCkUKDcLm7uwAQbqb+oFqvVkxnJcRACIn5qq8ZajNMy9rx8NUUliupFJkwCMxhPP20CilGn3eCr1SrUvwWpzIZAXN4qCI+MQcIpcBBnG6zkm3cRKNWrUd7yx7nJo5lDSDcsrPgFruwMov36MiwHdh/QJTxtu3bJdLLzuOQ8BAa3YRqgtEAubctqntUHjudD/FOialCWa/fsF7CRdHrsRgUuf6B+g+CPj8+Km0YB8IXsAQYRU6K+vq2226XF4V4jjr1xMg9PDExmbORoWGFHV788YvSOzz15JMCKpwX0KMwQqSE84urHlViqN0wAmRGR+2HP/wvxXfJW29sabaJtOxyjOeGsYjeXt7ox0JPpC7SUriry3bu3Gmnz5zWmFDiOrQXRuTZGNpnj48LKJ09c8bOXzgvgHPlSq90DQjoaBAFIMLIwBbg6ev+I2hTu9/IvPi4IkZD4IZ4jtQ2znfHpk0aT5gehGwOlOTt5g1Ovm503iEtYJlJhaS6ui6rGl9FNPUt9koIB+RyytSghgBzzbMKZtSBpNUxk9/TDCS/1YJOJOgAKOVMhgLhLUS9AYsUKpaKDZhhnIqlhBYFCCFhKXyV6hc2G0M1m21vwed8S13STRzLGkC4pZ78LXwxZQHCiKq1YZzvhZ4HIGRcDM8MKFCZcabHlcg/51Tjo2OxOMw5xbapM7BanuoqhSJI+woK6yDuci8enQJKhOHBIam1aWYTOu6N2sVLFyUG7O6+rFr0pKWxP545zZdQf6N16OnpFsvw9DPPKNecY3t/gmKGLNzFVICQmxhXeAKB2Q9/+EOxBwCEJlIZ4+YBYASQNCXkkAAEYv2AHzX6iW240WRQXAetAABh/YYN+gkroEp3P/qRwABGBPEZWg03DC64JMMCloLUw6DTCIbdPV9YhsH+foUgGBPy62EQNmxYL7YAXUJa/Co86sQDzTZBynjHXMfevXvEjjylEEMEi7NyS2+B9yWCVZgVb5EdrXYq85hyodNCb5l+EmE+R3DooFotqUPmAM+O+T9lLhbp1FhsdAoAfaqUIRwrQQIxKyGvRbheo3S9+98Cj/qWuYSbOJY1gHDLPPVb/EIqAAj0ZyBEgCBv3rz5025omoeUoValtsaQxPLNnubHqUnJ8rx5DCEAhII3lJeF2gZ0IKo7c/qMKs6piyRhhnnz1KyG9EPEfrRslsJ8YsIGBvqlgcCoukgRipiwxOuvvyGveO3aNboXYu7oFLQ4NzUGQZcLMKdY/NDxsb+P2vbnBJgou0v3SBTiZGOs7FwVK+qFlsHBtBYU6aGPxUTI5hgmm4Puj0MCOYMDA2rEQ00FQjEwLdTi57M5czpkxMkEoeod180xCAWguaA/AKCF+5o7f56tXL5CqYeAKO6F8SY8Q8jGdR4+Llw7nSYBSqEE89SvsgAhs70Awp49Ynko+pM3dh8JgBBfBv8RQYLofUJVaQx/pte60oW+oLzNawi8lsM1rRrpGE8J/2QAwjUdvMROld5rNc/5cT3WTRzLGkD4uE6iat9XFQCCN/6ZZgwSBiHQpVH1Hlxr3Yli8iMjymqgdsC5M2dlyMhmgFWgOh/Ke1odk0+Ogp64LDQ7uggMKtXh8MJ6untCUaNLl2RYod2Jo6MtUPZFnYn6ps1ud9dl5aTTBhcdAgI+0vowvoAFwAo56g119fn0NTx8wAxhDOoC0JBnw4YNKitM+drt99+n8Ab0vjI7xicktqRNMr0KAAHQ1qR9UjpXYCeXE9gB9ADCHnv0MR2b8AAhBcaCqnzvv/++ANZTTz8t4SZA48jhIzq2KivGglQ0dKJd71133qkUTQDTxQsXpAkIzXwaFE+HQUGfUPBYE945zrHASpRhENL5GFtM7/nwQ40R1/qRAQgp2+XaAPQjUQOQlm8u+wqWAkN58UZ+gMMvkSXIAu1pmoZyJy4FEKb8vdxBZvn5TTRqs7yyj97mN3EsawDhozc9fjlXPCuAQAbAdAZhWkpeVpyVNilKFiuPheNZq9VvndmYBHw9YhYQEXovBFIJibcTkydGOzwyrIY3hw4eEkiATkdkx/a0reVvStuDYW9goQ8MBp8TqkAICWCg3sHZc2f1EwPONVFxDqqdGgCwGPwbgENd+3PnziqMsXb9OnvxhRdUi3/jpk36+xtvvmmbt2yRwQb0YODx1PUdCxBhoInvEyIgtx5wAEhCcLhv/z4VG5IGYM4ciQoJwQAQSB0E5HiqHCAE4EOIg22DnZlUSOXI0aMCIAAN+mugW+Ae7t68WXUYGptC+mjI0pjFqpSChRKzlXvZs3u3AAKhnFkZ1l/OG5A30gHohrS/1Dhfl6HOAKj8P/XeFdpu59MfM2M8u+czi2f5yxzr2rmLj8BNfHw1gFCbhJWNQAUAgbQ8PPMt1KRfuHD6cbNq9iIAodTFuFgriBFjF0QJ+yYDJX7hosIThARIBSTti3RGDOD5Cxds164PZOxvowdCZ6dABB59CBUEo0loYEoOuuK+nr4YBgAAQSriwNCgmAkMNj/RO3jHSyh9vihBO3/efNXcR1RIfQiEle9/8IEd2L/f1qxdG2rz19cHEWRrq+o6kKnQ3tYWMisIQXBdCDKjkPDy5S47fuy4hIMwGuxHyiL32traZvdsuUcFmXgW1MwHiKjCIdqOcUojjyoMQUEjroPzEQIBcABE0BaENLgoWKxshhS2+tgDBO+2GSL0szLOU4BAiZU+/XMWIIRZOC1zZlbXMBuwN9tnX9v+xo9ADSDc+DGunWGWI1ABQKDFMKIzjI1XlMun4PnpipW3LZHDX7jCUFmuCOIIVd0Uxw+FjBAFYqCp1oiBJOYOPY7HjPDuiSeesEWLF+UzIdhflG3UPaTpaTKQMAkqORy288p3KigTF1oElYgivQzx8PCQQgISTOZy9tovXlO2BGlwLa0tquHw1ltv2dNPPS29AwaZa3T1Pzp0Hd/BSayap/uPQsKey5ftxImTdvToEZX1BewAQhh7Z28AGAAq7oFroScC4QPqPfDv+v+fveuAjqu6tnvUu2R1WbIky0XuvVdcMd1gegkQCIRQAiSkJ6RXftr/oSSEGnqxMbYBgwvuvVfJluUmq1uy+mjKX/vcd2eeRiNbloRDnDcLY2v0yn3n3XvPPm0fW4D0hWAyI0EdvSAEX/xelTgaO9E534/Pm7mYAYLoZwMsmipyznM1qcPPpqhbhBlMHgQ/NzovcHCu+3boQayTLqgELIBwQcVt3aw9EmgHQKCLm3FsxtdpoatN0PO/9tzF/zHizm09AH1pEgwxlEDCHypBlvXpFstkaSTpD0snSXTEEERCfIKyzg0rua2Btcg2N+w25goIVS3BCKsLHE4pjdQ9CQhO6PKnxU5+AY5j4QcLpcqAYIDHMbkw/1A+LrlkmuRK0KsQEhqGiKhIRalrs0n3Q3HvG8x2opfoOQkIUERKJeT6PyYVF/xI/4qoKMknoOwljyMwAA119ag+Uy1VGeT+J0kSvQTkeKD3gjkLyanJ0kyKnhdVTWF6Z13x/vwI+D82xKCfpS3Q9EVa53JPbwvuDtMTfpFj7Pgqt85srwQsgNBeSVnHXTAJnAMgUPEdO3ZUrFnSDwtA8JTrdXxGUxGL69/MO29kiZMjgZUIDDEQANTX14kHgQqQrINsiyuJgG6XeBQYn2dMn4mNdM0zxq8b6AgY0HzzuguiwSvABD4mB9IDoTsX0kvACgHer7mJnPQ2uRfLETkuhht69+4tcf/FixcLjwP5FEgzvXHjBlHgVMqK4ZA5DyQnYrkhpBMicwzoFSAZEoECr61+b5PmUEcLj6o+FYkJSEtNhb3ZgaNHCyVHQpghw8PFk0KCJIZW+JzR0VHSFCrW6KDJ8MjWbdtEzzAXg50neVxkZISqVDBbsV2sVP7jAcIFW3imG3lASesQw3kNp4vfZat7+9srOr4FnNej/VccfAFlaeUg/FfMqC54yHYABJbcsVcBM/bTundvyfLXwSG0AAgBLMVTrnt6ClieyNg7lXFIaKiU+YkCjIsVC1wIlQzvA4FEWWmZKEwmAhK8sJkQFSzLF8OpFHWzHFY6lFdIFQGVLC12VjvozooarDAZkORJrGJgdYDiBbDJ2NjfgRY54/8k0cnMypSkyNIydnEskYRFlg021DdI61xWL/AepEVmxQSfm/chOOFz6BJLliGyioMAgrwKLFdkpQKBCnkR2DCLYIieBAKNqMgoAUSS1xARId/pPAuCE1ZyMFGQng7xRISHS/UCPRsMhzDRU7E1+mmK3QlFYwGEDi6IL+NpPnuDLyGkctV9GQf+HzqmCyhLCyD8h86RCz7scwAEJu6x+RJ7FhAgsPRQKZbO7w46t4CKnaCAcXR6DRinZwme9GGIjRHSn+CgYKORkTdfgGNgDgMTCZlQyGQ+NiXiNWiFs3wxPiFR/o4IjxAvwNbNW6S6gEqf7ntSLzMsQVAQERkh3SqFrCmEJY7s+WB05nO50Ox0SBLgcYMJksyM9FwkJSWKomcZZkpaquQfElhwbLrrJUEIgQKflaWJik66EY2NTcJRUFNzRjwkvXv3QWJSEpwupzwHW0cTAJE5kURQuf36ISsrG3Hd4hASpLwPDH3IR1IuVGMr5kqwgoHXYHkm8yOY2MhwBUEC78FQCUEQQxYeQh15rR3fqQQg7NmNivIKVeaoWTUv+MS2btgpCXAuGR0pvaRKquGT/KenSMenSqeG94We3JYjp5MOnnOO+QLK0gII53wb1gFaqZxNEgQIJ04clxI/8g2Q9dBviEHnE8j+YQAIT2m9mvkeRkU3RDlSqTPWTkIgeg+o7NhngSRJZAkMlTbCKolQl5ppAiIhRSJVML0ATU2oN8oJqYRVpMKN+rp6+Z5ueeYKsCxw08aNEqfPys4WUCCsjbBJvgBBBV3wRqRDOhvKvw2aYWp+ejqq6eE4cwafffaZkCQx5EBlSx6F4NAQNNU3SNWBRJaNfgeK5ljxPugdluENJkDa7U3iUQgLCRVlzSoNEg0xVECgwHJLejAIoNiSuUdGD1H0VO4sXxQuA6OTo6oKMSh6jQ6UvI90z6xSPBG8J98RwQ09EPTMEOBIboTO32iTdMcPgPCYlur5yINQWVGJKWYeBGu5dZmMAN0+AAAgAElEQVQE9Ptt2S/E6Mpo3MWra0xapz0KyA2Zi+T/YIktwTdDcGyQJo26jHnWAvixb7S/vB+uc7tdzvVUDbGhm4TfVMhN5wOphGJVYaMupv7ieuPxcqyuLGmR6OnzwH4MHqEqF48d83c4ljYEYSx8p4NVTyQ7C5A9QNas4WnjeuTewr2Ke9M5P+2Rub7I+Rx7zhuf/QALIHRSgP81p7fDgyAA4fgJof5lTLuFhWl0nKO1IVSyknynPtIW2a0UolACu9yi0LW3gFYzXd1UVFSwjOtT4ekNhQtUVYN5LXFuVgwRUHkyvEALnCV+vDY3FwIEVlqwFJEnUyFKLgOT/tzA4YLDGDVqNHJz+6rQQVCQEBqpagdWNyhFrrR7y3p4D2WxtHF24J133pEW0mwlLe2ejYoJtlkWz4MhA27oAhAM8CGPZCSlCd2yPFOdYn+sOi3XJnBhz4hu8fHiReH1Sk8VCxMiPRO8JvMYIiMihDGR3hB6QKjo2ahJyY71k94eCuSZoAeDnhaGH5j8qe4VLABKe2yYryDeD6NFt6dRkGcj05u40WNCiH6UecX3TSZF5o78J/di+LKuf74THR5j8iuBKOe92+UUVk5d3cOwk4TMdJvp81BCjfWNRt6NytGh94nrkvMxIJD3UguDibGy5g1vIpW46qOiPmQLpfeLc4vzkwdyrdIbRgXL+cZzVKsStT/o6iLFX2ITsFxRXikdWGmssDopOET1COHc1WCDXjTOW4JpX5DB48hFQpDAtcL1oWncWzjLWHHscqOutk4MC82bwutxryCviqoUsovnUfhRjHXMcbUCHpTL+Sj98zm2kxPUAgidFOB/zennCxB69PARjZdchoqRSojWBzWaxPedTskjYG0/XfPcHJgIyBi6EAUZ7n+2kaYSFVpmWjBCbWuTRU3XOK1nnltTWyObCXMRuCGQaZE5CuFh4bJplJSWyiZJGmZhXTRKHQkmNmzYIDkEqalpiImJRs+eOcjKUpwFYrSwW6GnBFABE+25UAd4W+zSqnjzjTeEA6Fvv1zhNNAVFB4CHA2UeJrRdCpQAIhN5ORsdghVMsM3rNZgeIMbO8s16UWh3IRPQZoukdypSbwi9JhQEfPfrGKoratV7bNdiuQpLDxMQggEXiR8CuAmTJ4Hh0OVdtIT4lKttpn8SNkyDMHno0chLS0V8d3iVbMn3UnQFCpowY5oeI50NQrf3779+3D6dBUmTzG1e/6vWVBf7IPy3TPsRC8QK2oS2BXVWCf8nuCPa4LNn7gelNVNcNpWZ6ZWy1nmFS1/KkOCda47ziP+kT4fYWEeAjB6tLhGmMDLvB/ShavEYEVCxnbvZO3kvOaHgJ7JuGzQlpqaIh4zwwZQVjvzc+wOAfW8D/cQei+5T5DIjM+kOUbYJp6AhHsEgX1CQrzIxAPyjUdja3YeQ6DB8ROwCLOqsdY9IIEOA6dL1hQ9eJzLBM8cA9cVc35I3sZnIGCgQcM8IYI0hge1B05vFXL581H653NsJ6eZBRA6KcD/mtPbAgiGW46LgzTH7DTImn+2RiZaJxGRLAQzTaxBQUfXGxciNw1uMkyYoxLiAqfiYokilRcTCKWhkGERM6GPipJWA62WmtpasZaoqLkpcAFKNn5UlHgcuOnQvc42xGpxusViOZiXJ8dlZWbKpkaXaUlxsZQgpndPl3NpQfPZ+CwpKalITExQMXlplqPIizxMgz7AgJs0N5z589/HwIGDMGjIIDQ3NcumIc8jeQsuj6Wl5pLiV+CGQsuKpEgkemL1A8eQnJQsgIkbbrCwRQarzcVQzAKcXIrwydFk93hxCIb4HOyWSfnqcE1DU6OAClpLtPwob1o9vC43XnofdJMgnk9ZU8EQYBFI0LqjkomLNZIg2VXS2O9EAYjCYcxEAUShzLbb5dyDBw8K4JgwYYIomCDfBkT/NYurCx7UAGAalGnATAXOuU0wIPOKQFo8Qs2yFpiISmXHSSSdPYOYa9I+DUSLm/OSa5brgRworJSht6+2tkaqYngvvn7OE753/sweKtHRMeLdYpkwvQ9kN6XS1p4Oznuubc5JAnsFDhQfCu/BPUHyno4dN/q+uEVZc21wDWjyMc4v5thwL+F3HENkVKR6bofqeSLXZj4ODY6AAPFcMlGYIJgt4RWw0tcMRECQCquwu2p1lWIi5fMzeZgyIdkZc5C4zvk9tzuOg4CD4wuSXCAlYwEdFkDoggVgXeLfK4E2AAK7FhJJk0WRFi4XNTPhGXNnuSMVvXJtKqWlKwD4M4FB0alTQpdMBU9LmIuSC4lWPX+mcqKr7kxNjVg9dbW1YhUxgY+bBX9PhR0bGyeLUZIKmaxolAXSquZGqHW3/psKqqSkGIWFhXI97hBUwLQqdGtkNiaitc0NkBYBrRVuIlSiLCVMTEiU+wlQkJirGy5a306nJDjShc6yz7379gqjImXSt28f8VrIeVSmVOgMXcANeg0IUrhBUSYMe1ChcoOnVSJgKSJcrBoJRZizwEzgROdiqDwGhlQU46TCMjoM45S8BbpI+fz0EjB8waoKJkMSUHFjphzpdaFlxk2dMibw4fsiqKuqrhb5UMGzYoPlpexTQfDiqXzQ7bFtEKuT7I2UO5tqsTyWSa1kuGQIhu/8vIl//r0r499+d3qdOG/EYyYxb6V8mIDK74RbQ5fukk3T6RD3ODtQUnny3TO5lxVAkrPC0FM7MAKjgpxDTKSlsuR84BzgvDt67BhSSSVut8s7ZYIu9wnOFQ1weX9WFXG9cn3R+tYsniQ2o7eQa5tD0e3MOe+okBlSYxgiLy8f8fHdxFNI/hN6Gxge4Bio/Dm3acl36xYnwIXPHhLC0mcIWKHXkfuQps7WXjOez+MJEARY2+1ITExCXFysAggOp4THGArlfkUZ04NCkMJwHkN49JIIcCotFYBAo4n7m072bSHjdsjbM9HO59hOzk7Lg9BJAX4ZT/dLKtSeFX+2h/FLZOiWBVdcdAqLFi0S0h2xXm02jB03FpdccokqzwsNFSueAIGWM5X80cJCceOzCoCufJYccjPgpkAFReXIsj0uOipzqSQwLPfoqCjZyKgouaFoi5zsf1SajLN6Gj7p8jz9/KYaLCp7WsTSltkoJ2QCIccfZGT+M/bJ39GiYPkiQQI9JSQfosLO7JGJtNQ01c+BFkpDg7A28rNp0yYpceTGxWfIzs7CDTfcIO2S+YzJqSmy0XBz4SbFlspsbc1NjZuRlBt264aI6EgEBYWIF0Y5CzT9s+mFmQCCYW4pUCDPa6IDNuLA+hgnrTgqF6PDJZ+VCoObPa1ADRjosaG1x02cAIp/GH6hl4O5HmVlpdK9ks/BcTMHhUqB/Rz4MmjtMS+Cx7It+LJly0SW/FCRXHb55RgzZowK43R2rrZ3Ufpj9WzvuV+a49zSoZQ5Nx6A4KcixJzkR7mztTmVGxNz6V2Q2Hm4WqsqbHcWt7euXDBM77r6WrHkqcTpZaMSp+cto0eGrC2+U1bTEPgyKZUgkm534RBpbpYchaPHjkrTNO4P9O4xt4bjUrkzakxS4ltRIUyh8d26yZo6fPiwKF3+nmCD4EMDWAl9ud3SlIzcHgTafOaERAL7EJm7BEjeXiOq9Ts9G5JoabNJtRPHTTmxdDgmTrWxp6egpKRU9inuRwpg18vaTExIMPqeKEZUgn2ek5HRQ+2D3JN88xbPR+mfz7GdnKcWQOikAL+Mp18wgADVv4AMfWxpvGTxEtn02etg2vTpovT37t0rFuLoMaNlsR4+XCDlkETmyckpQvJDa5ULjptW4dFCsW64QCV2mpggCJ2KibH38MhwD7kRN0bZx7ghSp4df7YJwlekcy1Rjdky1Za0cvOpjUF7ECTpLtDozqj9j8wFcDiFr4CLngr0cH6+gJzoqGj07tULaWndZQMjMOBmyU1o5crPUVpaIhvY2LHjcOmcS7Fu7VpxQ146Z47Y9UcLjuDQ4cNC9MQNlvKLi42VHAF6YwIkTOOW/IU2y0bNAEEnT4oIXAZ1v5E1YVa+Rpal2zhXb45qY1WVBvyjW0DT2lKkVJXiKaJVSuXOag+WiNJTweRGhg4IcrjBDx0yRP5mnPmTTz6R41gC+/78+dJcinKaOmUqrrr6KrE+GdL4wjwIRnmnXrMt7nOhQElXbxiirF0SOuKcljCB0Y5bmDc92f7Kw0WleLLopIyCXimGqnQOgqwFwyt1VuuWU5Eud5tNwAA9h7SmMzLSZV5zHRMQEiRynlB5UslLV1KnU3p+sCKG64hj5pqisk1KVCEJWtsMSfC6DFGSQ4TAhWuOLcvFy2gABHqiaFjQ83fmjDqP4ITAg/OS7dYJ7ull4FzmeLgfEdBz76IXUnk1deWQ9wURWDDxmp4EgnsJXwaptcG9gACaa0OSQZubZY9SYZIw8TxyrfB5mP9A0jbhIQlSuUXyMSv681H653NsJ+ebBRA6KcAv2+nKVdZGOdE5qIXP+ixnyUGgm5iW7/wFCwQQsB8A+wKwc+Hevftkoxg+fJhY5ZzbRPL0FFCJSFtjdkd0QRY0QQU9BUTlXGjCM8BF5VabiQ5RKL1tlBealLgnWZD/oIdd58178wbVY/ohd2mRXewvNigKRo1BNrZGu3gHTp08KTTOtMRpMW3fvl2SLQcPHiKbGn+mtX35ZZeLC3L1mjVSPTFlylQBBcq7kK2aJcXGIDiUctIxSmM30OM9R7KoJwnQZx60pXS9loyK77YoFTV7XYwNlAqGz8ZjuQGSlIm0z9z8GdeVeHdEpLivaVHR/Uylz1ALS0epwMaMHSMgkMmgSUnJuOIK5T0gIOL77mqAoJaDQVFsevcq/utnt72AG3Cn9w9jToorvaFR3Np8D/7mN98RvXIKHCQJeKSC41okHwdF0dDQKKXFvAbXn4CHFqDSO2J6l44UHJH1S84NWulU9CT7kqRX41ylhJVGJPikFa6UKO/fJEqcwJohLGXpR8kYCL7pqSKQ4Ri0Z4LgguEQjv3IkSMCpnldrjUeS4BAQKIAezmYpJiRmY66mjrxYnE/4hzVSppj02taTw/mFrC7Kfcs5lQR7Hu8MEZZMr02XKcEHSzzlFAD26/X18sYdFUHZcHxiZETEiIEakHBBieJL1Boz4S4gPPTAgjteSH/QcdogKAVmR66ntwd3nzPopi40Ll4165dI65jxqA5h5mXwEVMVzytQ1qOVP50L3LR8G/yGPD4WIMWmbFrli15xmmUEZpfwVk9w76Lx9hA9WZgONyNDbQlo4knYcgjNB+U76ukte52ulFXU4sDBw5g5cqV2Llzp1hK9ARwM6IblDJgTsamzZtRUlYqVs/o0aMxffp0sZC4EQkZURDDB60BjD9Q02Jaiv4zBmicr0urtLx0yZb5PFuA96FUIYf3RfvOFfnZJF+pG3c4xVokfwIJmliCybmg21c7nW7ZlI8cKRTLkh8Cod69eyE/P1828blz58omLCWZIUEeyul2L7tzbJhGgYonUVJYKhEgyXieapSOWnPtHuQXdKDxzgjEJCEwIEBAgvB2GK9SOpCSS4Mx/+pqccMzQZieP4I85u8QwFKhU1Hr5EB676jI2/ImqMZo9WKJR0aRiTRA0YzbbLLueT8qb2mIZoB5hhN4PQnJASgpLpHQgMT4ExJk7lCBEiBwzJwrOj+AP9PdHxsXIzkI7IFCw4Rri++Y92QOAvMZCEQJLk6cOCFhUFKdEyDwdyQq4/6j+RLk+QKUV4TPQk8Z5yrlwWOZFClV2OKtVKCSDdoYfqDMtSzpDSMA4B+OlbkQHBu9BkwKprwJxuh1k+fvqKLv6HkdmIIWQOiA0C7kKf7CBTJR23CJaoCgmwrp+l+z5d2h8bejzJEbPmPuRN7ciLjoGePjWOhqnj59hrgANTigtaiJADQ/gSY4ahEdOMu9+VzcDFjz7PdjhB6E/ISZ/Qahi7SNljJt72prL0DQY+WmIoap0y1NkegSZaiFXhRadMyIZjyerkUmagnjYVmZMC1SJuPGjcO8efOkVBEkkXHrRklmYOKzG7TVJMgwfRSPjNtTySHzRFEc+A8q25R1RyVPN6lKbPThdfARrHfuKa8DZanKIgNhI8BxuyV3gZt9Y0OT5Bx8+umnnkQ0PjstPcqmX79+wqTIkBM/gTz/fHfOdgAEDbCYpRJiWMvedWSw/ukHv4AbcIfWovkkUz4A5xdlThKxyGhlwesPFR8TRCl7KmCuF2k21uxULJtGGSFDFVTiVHLCPaA5PvSeY1yS4IBWNhWpdE1tavKU+NFjxHsRLNArx3Ep4EBuAia9hglwpvJkOIoghNY4Y/xcKxwXy3pZEkiQwvvwWWid89/ME2LSIb1ZOsTA8zkPSV+uLP8gAQilpWXCg8L4P0EH1x9BB+WjlL7hlQxgmNEpbeOZM8Bx9JDW8eESAlFzxgabYfhzXhNMMd+BH3peGPog8Kc82BeF64njUGAEiI9PEAAjnhnNA9GRudaRczo40SyA0EHB/btOO5uFp8EBJzIX5JYtW7Bt2zZPTbDZjSZzzI/iZd29vw/1Vyvj3MiI90x2LhRDMUiGe1WVWBFc3Iwv0oMQEkIiFIgC0/E8TXCk+w6o+ysvgrj9fcGQcV/GJ/mcY8aMxpBhQxEksVftmlf/FJlIGJ7WrgNHCguxY/t2sVoIDsw1yfq5/cvYKyz9ez6XXF9imaoqg651afNsKHIFXlSJJTc+ut2ZJc6xM8ua1hyP5YZKBSutloWISeVAtMaBZ0dqehxM/Jw5c4ZYKi3cxD6nNzvsYuHQy7FixQoRGkElvRnyPlqBA/1uDLesZpATBaI2cZlahtUqZZX1DcjPy5eYDy0oktRIVUZcnLxjllVKspqjWSxf/+BXx3y8AzoHZm01dioQJpvNmXOZhHJYeeGda/pwnwSyC7gZd2hPUZ3K5X8E5MwF4LyihS2kQ0aSKlk4ae1SeRNAcM26nMo95zEePNEshu7UD3yPqjcIS4gV3TY/mh6cc0Ul+bJksVksfFUSaBOlKRUGQUFSvkgQwrnIdcDvuD9QgRMoMn+ACp1hBubs0OJmszImIzOEyfvQO8L1RSODc4frma58et94Ptca5xVBAD/0TukyZYb0WJJJD4Lk+HRTng2NgAgCik+ViBeMeRQs3Y0Ij/QyQuoupwZAaqxvQmmZ4pOgTAkoJIcmKFC8aAQPfAf8nmufITaCYOmRYjRlO+/yRu8U7dBU6chJFkDoiNS+gHN00pw5NOBvozR/Z/63ObSgWcY++ugjUcpMytFZuWrVt22jyabrx03vb5/k/ankWaanrXNJ4HE6UF19RmqbGZunN4EWw+AhQxATHavUv1j+IR7Xo/Z46CoIakZh5hMSF1Os2MgB4EZFpbJmzVohUxoyZLBsiB7eBZM+0bLlJnDUaJGck9NLEuba8tD4y+Mwf6cVuCTyMakRNuEXoPzIVKhZl/l7Kd1jbbkL4lngu2DLZ27amnlOuSK8YMg7Lp1ToommfNViy5953vETJ3Bg/36MHz9B9WLQ1Ld+LHOOgZvaofxDkrw2YvgIg+OBbIfma+u8lpYAQSsLj6KFillLkyyXG8FhQTi47wA2b94ssk7PyEDPnJ5ISkySFtd87wRBLFNT3iPTfYx5KmqslXvn/BfhiWPHBTBPmjjRU7uu1pAZVJq8OP7Wwvnf9os9wwjB6aRSWstS62/wHkiZYViIeLmodBlLp2VuLEJPzmurPANTeEI3D1NkXAEe8Me5zaoDep+Yi0MXOq1mvlu+Vypbho70R8iSDIp17hv0ALAcmGFFegK4Ryg+BVr9iuxIuDhYDmwYBeR14PUJ8BgiIt0xY/4kSaJXgRY89x0qZnoTTp44aeQNKS4CXotjUlY8qzUM1tbKKgEQDM8QgEg1jY/nzTNV3JDnpDeDZG7aUCDAJwjQ4Rxeh7kdDGlxfGHhoVK5JCXAeml1BIB25JwOzkILIHRQcB5XrJGwRouZ39HNxMksma12u8HYpSxNrRiFrauiQjZSLmSt3Kk4qPR27dql6oFN5Ce8Nr8jSiXiNluF+jjzo9CKpVuXi4H15VIfbWT7nwuI0nJkRYC+h2wenmxfxa6nF4X8W4h9XHIO66lJJ6wY+xQzGcdCZcGM/MAAWs7cWAJlcfPSdHcqLnW6/fmdly+BSqPFejAy7uW+gYFY9fnnct7YsWOMjc+fB8FL0sOYJa0KJlHSxenv4+tB0M/Ld6M4FYyYqi6hNDLJ9XN5zH7ODVpbOoBpxEkjIsPR3EjypSCxvhirpDx5bbpuaYF5OeyNBC/dtsKjs3W+QcskDVp2bLu9bet2jBs3FvEJ7FZJL4Ipe9r00JowJy8/X9y6o0aPEmXdkovenKvhTTjjvBA3tcOpumcadL18Dkl4ZB0+XNJgirIjGBJeCsnkDkSj8O+ruULrVCwr3R9CwsIqR4Dyo7HL96KVhdcb5qPQz7Ke+Xwrl68QYibGljkeY7ZofdkaHF/AzbhDW5EJIPBhCFYZi6e86TEgKCAApJXLD/k4GFNX1SIqxCZgto12AZyLUrljg8HWqSqG+C6kqVhjg3gNaDVzL6MXgH8zGZeu9l45OfJ+JVbP/gY2dl5VTKC0/Pk7egWYo0K2UiEsY08FbWUbBEYEEswNYFIj9z8mM6qXRpr00xIaSE/vLudzL+a7JVAn9Tv3M4Y1+OEeKlUPZFZ0OMWLwXFSjGwBT5AhSZ78eJS4t8pB70YcR3W1KnuWUJrR2I0llPRSMQeH99deQXKuREZHIa274UE4X/eXeXJcwDlpAYQOrEqNZmUOGU1FmKnOiTZlyhSZ3HTvM8N7zpw5RqKPchvzeFqRb7zxhkyi3NxcUZhcMMOHD5eFdNlll2HIkCGe8jueRyVL1MuEruuuu65FNr8eh1Zs/Jsb98cffyzutAEDBig6XFHmKgnO6JvS8ukNBj9aoOQHIKInaGF5Id15mqGQC4JlR+L2M3zg/Fuat5ARz1B8fC6CAipUJlHpY5m4RlCwb89+hEeEIad3jlQpCBeB1Pmr8ILXqmmtBPSzrlq9WhbolMmTpXSqRdhEVy4YzI38i1nXdDOSsEiDOd8p0MJy5kbI2LzTKbH07OyeYpXrOUAlFsiMZDavMZ5RwjQSr1R10A4BQjaROSsA+D5pRXCTcjSpHgtUkAQFZSXl4n1hrbgoMHpp6Jo1EgSVTDQoaAkO9DxgqSgtdipCxj1JeNTKUva4kF1CqFNw+DAKjhzBtEsukbHz+ega9eyU5gljKBaex7p2JoKlp/eQZFMFLhRDZqDByEfXM93eBI+ktLY7CI5CDKUvCEpkwmNCggkWyQ3BZyaFs1vGJ/0nzlQhp2cv8RLptRTIcIxP8mRbS/rY0WPYsG69gEmSVlFRiRiMBDStcDznX8CNuAPbUEslZmA4riHSV7NLppCIxURLiIAKjGuT806VDUcoxkQjROFZa57+aUqDcW1x7XIda1ZBNc9IeqVKHLln0VrmnOVewXdPlzrLAFmdwxAbv6M7nt4B/sxYPCsJ+OqY6Mh3wzAAkxo9SboMldqbUd9QL0qfHgDyItAzwOfgOuV3zBlgWIAl02IIkQ+Fe4jbhsLCo7LmyJaqQYeAS7hRWXHaSEa0SThAk0xpNlZZXQbBm5T7NrC5WpiAEIISUkFz7bK0UUjMWKUQGipVGZSLSNBN5scYeYaExHh0T+9uAOEOv/HzTtHpxJ3IvXK2rKfOXPriPldb7ZwgRJG0+lmWQ4VPxcqfmaxGwMA4s4pPBYmiJzB4+eWXxZJlwgyVMGNT06ZNk4Vw/fXX4ytf+YoHfPD34raqr8eoUaMwc+bMVnFasxeBk5k/EyAwxDBw4EC1oXLTPkdnMTYBWrLkI6FMvvyKK2Tc0h658rQoVD4b3WpE7Mxc54cuS5Y28Z7kNmAcmRs6ARMzpJOSU2ShcNEwHs3niY6OxTvvvC0KbO7ca+Q+DE14AYI5/m5KIvOqLNnc1qxZI30XJk+aLHHFNj9iXblwpKBQGBT79OkrrGi+H53kJ98b4QxaY/v378err76Kq666CqNHj5GYJymQ2UqZHPLcVMgUxw2VeQbxSYkgjTGTNLnp0eohMOEfbnI9e2YjwBaE6tNVIhfpFxERKbH6AwcOSnUDE/gEOHhAgUJ2CpMplkTfRBK+g8KjR7Fly2ZMnDhJYsAsGzN/zAmLCui4peKE3pUZ06crr4fLZcToTfcQfaI7V0Lornfs2IkPF36ISROnYOLEiZJzQqIbXjetewoS4hNQdOokGhrrJKwibuYglqTVo3t6hsSSOZeo0MLDQpGSnCSbMOdcSXGZjIPAjwB86/btuOXWW9G3d18jREUaaO+TnUufHys8ig3rN3gBQrjqrdFKjOe60JdtazNZo9wnqHBp9VORhUWokkfFaeGWzqgEEaxa4H6kgWMLgGC8Z4YAyF/B31HJhYa17AYq+QdNqo8Kc11UuFF5DQkECEy4NqSLKL1NPJ605ULxbJQNulXeErlRhPckIQEBvI7RAIz3J603j+G+QfItegA4drI4CvlWbZ2ABuZW8BlZQigcCy43jhYek7lI8CEVUqqmUfIlCG65thWlcriE/FTXVMWcSMNAc6nwOSlIAgkCEe0ZJXCSkIEBmnh5XQnCXim694vQUYeFSP8UzVPR4Wl0AeenBRA68Ja09ajipzbxFCxYsMBwmwVh6NChQgLDjP7BgwfLRs9Wv8z45SZMJUIyHaJOurp5DVp7BBJ0eZFt784775SyOU5ULgy6xqjoJ0+eLF4B3/wEs/dAgwXmINDlpwGCWGra2jJtKh6b1O2WZ3lv/vs4XFAgypDWBsFOfW2trJUJ48eLBf3hh4tEqencAbr8mJTEZ6VCJDgiEGK98qBBgwUYUMkSXBw9elwy+FesWCmo+557vioWnQ7bKKJA5Z5vodhMP+jfrV2zViyYyZMnybjODRCOyDMy7CLlUeYTFOQ3WBiVFU1rpqG+EddItCEAACAASURBVOvXr8OLL76IK664AmPGjMWOHdtRXl4hnhSOPb17d3lmulubaQEHB4mFSmKX3H65yMrMEqterGPYMHzEcKFq3rRxs1gc3AipPEOCQ+U618y9BmNGk1mQStCrBemyV7FQpbhtPq4ghmiOFhIgbMGkyQQI8UYYy6RIW2Q+Kp75Q/n5MjcJTMRVbVj1nrdg8+ZCSBKlLUCAGXNA3n3nPUycMFmA0569eyQ2S7DXq1cOLrlkKt586w0BkBKXrjqN5NRUVJ6uRmJiMsaOG4fdu3fjdGWVAIScnJ7onpaG/fv241TRKbGGuSlXnanGnr17ceddd2H0yNGICA8TC1Lt90alhr+sW9P7pZW6ccMGjB1DD0I2QsKV290DEjqwF3wpTvFZKLKOxKNgeOGMecz3yg6MdP8zQZN7Cj2XDHFphUoAKFUpbpcoXoIAHiP5PWaSHy02CYMyRGGTZF2Gm+i5oKLlvOK+wGoIPYd1Ka2iNFbuC46Xa1hovaWpk7EjsROkvVmMKnrXpHurhPi8XiMqbq5T7d3g9cXzJR0XIWEJCc8yl8E4V4EEVu4YBonQlit5aY8w910VGlXGFsEOPRPkZ6FXxjNE5s1Q3EavGY6diblS5hjGbpCqKocVFHwGsr/qSq0Ozx0LIHRYdBfkRA0QdAkhUezatWvFuiYwYKhg3bp14iEYP368WPFURswS5+ZPpMyPjvGTMOab3/ymnEekSXDwi1/8QhQKES7RMv8QePAYxf/fepZokGD2INAzwRCDLFCjd4GU05kkpQGCbAr19fhs2TJB9JddfpnQJ5MaefSoUfjss2VGTkMfvPXW25g1a5aAgBUrlmPGjJmSHETLWiiTQxSgUZtElChTeke4gRC4TJ06VVgVqUR4n7BQ1kXrPA0jb8xc2+8zXv0j5U7AReDUHoBQcLhAAALJnGi9tmRb9JIx6bFQltwsGCN96aUX8fWvf13ux3LGkSNHyTNVlJUhOysbefl5qmVtRDh27t6NwUMGC+cBPUwZ3TOk7n/evOvE3StNXaKjsXXzNjln69atYnVNmjQZFRWVolgJPCQ0obNKtTxkf+OurJgjzVpOmBnFg7AFkyZNNMpK6UEwaxHTOTaVVZ5/ME8BhBkz5FiVd8GNU2e0enNolD5WIaFdO3di4cJFmDZthgDGdWvXYeKkScI/f+TIYdx00014+ZWXMGBAf3meN956E+MmTECTvRkbNmzCuLHjxBM1cMBAiZVLYlpoiISCWFq2ceNGmTPZOTlCwkP5sUIjiApG1pCKa6sRnT2we/zYMWzasEk8CJmZWQgJMxpddSYefEF2nHPcxBMr93OcnjOScMdmTS6p4CFtON8fE4XDw42EPfE0kP7YIUqee450/RQuBMNt77vteK6v3PY6J8nr0VSVSLL/GDhX4xVdfaGVLc+R9uMGpbje47zGj8HTYYRBJIxg3geNsWgAwAmi90KCSd2OXOU46SonVakh99SAypMrq3NvWpLPScJxK8PCnLPQYkkaoQYF6luMt6OKvqPndWCuWh6EDgiNp3DiESDwb7rSlyxZIq4zMnsxf4AbPl3vBAYECFTs3LSJlEeOHCnfc7JQ+TzzzDO48cYbxdtAgHDrrbfixz/+saBwXl+3TyWxED0RdMef7aNj+VTEPLYtgOA7z0QZOh0CEI4dP4ZLZ1+KNWvXCGqePm0aFn24SBJ4CFQWLVos1jT7Dqxfv15og6kAWS5HRcHkJPZjCAhg85gAaarCP4wZrl+/AZddNkfilH369Malc2bD7fLmGXizhZV10upj4utZu26dZDETIEjSYVuLxwgxECCwQRQ9CPR0eCNsxonSgNCgXjbK4GhJnDh5Ei+99BIefughCRPwXVKZ0vo/nH9IQggEHkwKDQwOwp59+4RemmGIffv2SQIUa6ZvufUWAXi0zvju161ZJ6EJxv+ZsDh58hTUNzQKsyAVKvMPhC5ZgsXKxa+MHQkE+JSAqmOOHS80AMIkE0BoY8aw7MzhRJ4GCPQgtAAIZm+FsdEbiWMU9r59e2UuzJg+SxQLwe5tt90uiZLr16/FrNmzBUCOHz9OgNC777+H6bNmoramzgCcWbJO+LyaipaZ+Js3bsKZM7XivaJ7O7dff5wsKsJdd94p64F5CXTtespUlbY5K4PC8ePHsHnjZowdO1bekwCE/4aPHw8DgT3fAZk8FSOg+ojnzvAIMLGPIFr3D1C/bwuEKB+74YTzHKSP9yhtj/I1DtE62MjnMuCwp7pCjtIkmIa3QpcXKIXuMx5ez5Q6o5S/9xiPx8l0nng16M3Q3ih/c0JfxHxPf/fW55qf0xi/8lKYLt5RRd/R8zow1y2A0AGhyZx1u8W654dAgSEDegi4mKgsqKSp8Kk0qQiYi8AkN7pTWatLVK7igi6x0r/2ta+Je55hCHoQvvrVr4o3gtfm99JYJSJCchDMpUP+hm8GCByLJweBKNqUt+2ZZ8YC4vJutDdh1arVOHDwgFj5tEYJgAYPGgS683v17o1Bgwbhww8X4oorrhRLhJ4OKsvDhw9J0xbG5QgSmKDEdcVeBTt37RJAwCSmzZs24+prrhaLkK5BgiMqTb0BeVG2F7nr51SeU2Pkbojrnxb5pEmTVBWDpzmTj2QMgMByPgKEfrn9JAdBhzVarlwvnbJ+v1T+zz73HK6fN0+ejbkP9ELwvZypqpbko6KTRVJSagsMxM7du+RdMdlz584dnh7xM2bMkPIuPXfeeesd9MvNxTFSNTucmDJ5CsrKyzB06DB575SPOb9EhRXUrqm49n1ngBtUhNqDwBwPenDMeQctzjAqEfLz8sSjc8nUqR4t4A1taAvLqyC0Itm/fx/ef38BxoweKwCNHp1Ro0YLxS3r2WddOhvLly/HsGFDJUP8o08+xoSJEyVOvnLlKvTsmSOy6NWrl9FHIECS3wiwOe7Dhw6LZ6hPn1xpz3311Vehf396xJQ17LEiDc10tr2TJbdcp2PHjDWSFA2AcAE33A5uN507zaQgddhMkmodDgF1KolUtR2nBS/tvR1OCTVwz5FkWSlBPcfHxGbt0ZO+p/kChHNd0/x7zflgKNpWCtesnA1g4QEXZr3s1wuiDjgbADqngvd10p3LM9UOkfoVT0fPOx9ZG8daAKEDQtMAgYqYC46WPl2hDCswfEALh9/R0iYo4HFUDIxPM8TAD5UZFRsXILPAL7/8cuTk5IgV+vDDD8sf5jUwaYebJ93U3JRnz54tivdsH1+AoKsYuAkol7VXHRq6Ri5HO5WbxZ49e7Bhw0YMGTpEyoMIcpikyPgfPQncMOg1GD9hgrjY+Xt6SPgc9BDExcZJ0hvzDhg/Zp4FPSuMARMIkF6VljLj81Rm1147V7wseoHqRCKxSEwmiTeRyqhyAEQhUUkzQU7Vd6vV4/FCmDYNKhQqHCYF9u7dRxL4fD9KGatKClqpPIcWPMvF5s+fj27xcRg2dLgwwNFKZmY+QUFmZg+UlpVJjTaHwLLB/gMHyDvn/XL75mLHzh2SCc0EMh0qWvjBQgEPvC8VYm5uP5Edm8MMGTJUYrgel6gM1gsK1Gbfchfic/M9ECBMnDBBckBY262T0fzNG+YL5OcfEjA4edIkQxmYdyEDqOn+DvSyGAqD9d0rlq+UeTxgwEDk5R+U98sEr/79+2HEyJHSe4JVI3w/W7dtFcDK5M3t23cKyOIcKCsrl3wOVikwTrttOwm+VAc/yqdHj0wBmQRNzCHwkAAJmZZRFnuOtczGO8qDoEIMjBF7Phdw0+3gltM1p/kLR5gMBLV2VNmyZgw158CoxeUzlHMpQn/n+Hsa3+v4AxP+ImVne3dnG1tHwcr5zhV/z9WZt3m+9+/EvSyA0EHhaeufi4k5CExIpLVOBUhQwBg+lR7jytzg6EKlJa5LFmltMdzATZO5CrRKaQWTx3/16tVS0bB48WJxy/KaBAgEHfyeyrC9AIH3NnsQ9FrVc6wFQGB5pNFXgfkEzHRmORRzEPiMBD9p3dMkZMBQCN2PUsfc2CgZxExao0VC4iImQjFjWvVhYFJapShLlsExOYnJk0wwors+O7uH9GgQ4GLEAbWF6ukv4Gdf4rOsW7deEuA0QGgzxmd4EA4fKpDyJIIuytaDH4wEJf2zzu4nOFDkT05px0zQw651dNGyvTGTCCljhn8UtSzj6DZUVVcjtlucJFmR3pmZ0gR/zM4nRGP4gBwEp04Vy/iZRU1XOv+mnKgAmT/ChCuP1ecJLahR+gcINgEkW7duwYTxBAjdZGxeXgXfzZ3v3KkAQmGhgD6OXzKtjdi+Bk0tyytVDT3rwemR4XpITkqWyoaTJ4vEG8CcnLj4bgJYOA7K8vTpSpGXw+WW5+TYCDLZ8IneJc4V5h6wEoLXohy4NjiniktLBHwnJ6pKB63MxDWs/nfWD2vit2zaLMyblL94rVoshA5uBhf7aW2kr7R47HMp4vbIqK37dObabZ3bEv+2Z3TeY85XQbdHfuczgvO9//lc2+dYCyB0UHg6UVGHGqjkNUMZLTGGFagUhCAkgO0+40TBc4OjctGkSCoDN0wUJa1KehiYvEblxWtqq1+XOVLh0upqL0BgDoIGCLrqwgMSjImrgbRKMlIcCsKZQFKbgABV7gNVq85xEyDQAtTxPBKekA5VZZWrjHK2KBYF5oYkn+mcDe7IuqkJyU9YIRARobKovc1TPMXYRo6Ad4VJ5N2oHuG1GGJg6dTUKVMku9hf8qbSJErJH8o7JOCtb26uVBF4kvc8YQt1L+3WVw4M9Z0GLeLeNvgvNL8ErXxFEKS4IJicqWv4hQQpKFDmhPAmBCgWSE/8XLw6ijWSzyYlXE7yCKiMbZ0n4Y3nqiEp8OS7A7pFIbPKYvw4VpwQIGhefv87C58l7+BB8YqQT4IEThyjAhWmGK6vx8IonzPHeDlnCHgoD753MiDq8avvOR+C6YIQ3axBleK0t3lImnS+BcEBPUTGC1DJZMxUl4x6yrwNhh8/C6ToxEls2rgJI0YMR3bPni0bEV3ATbeDW451miUBYx1cOEFYAKGDsm4ZF1bKh5u5uTmS2uhVIxutdJQS8f7M6whNscMhrnuCB91mVXspdIatPq+tKgb9KOYQA601uvg1B7oGB/K3j26R/B7DZSvjNSothK41JESSAVnqQ6IaeX6DalVnChvOfVEsUgLJTn9kVDSeUStvPh8tcVqUPI4KigBDK2Ft1qluhKY8BAEfCoSQkIRj3bBxoyhe0udGRhktXLUgfDZ9nYzHhMOBgwZKkiKb1aj7qpO8EQ2D2ti4Fn9N5cd3So8JQRLbE/MZ6CXQ4SY9L6i8KBc2pxGZBrENbIPURavwh6oL15nb5I7QZFIaKBAkmMGKb1KW3MsEEAgy+H7Ky8uwbetWjB4zRtpnk9FNwIgfDgyX0yE5E6xiYDIlAYJQ0HrCCaaQjc9a0V4WlaWuKhD4vpk3wdbDwpxHMihjbXD8DGfoY3m+zFW+z+BgAaf0SPA6mnCJt9RrywyWVLa8YrT0JpqefTGXFBdjx/YdGDliJLKys0wU1G24pzq4N1inWRL4QiVwAcGsBRA6+CbNmxL/zY1RK2Fa2b4fr+JQb1crfTNw8FqKyuryt/GZXfBtDV0DCxIlUQEzY98MEDyVa/4uYCgd6dfuVhs2AQnd4bTkWE+sQYZQKweHyO/MHO2qYY+pj7yhCJTSJElLjNcqhGrTKlalVsaMbxt0rv5kIO5lowPh1q3bhF/+kkumCSuj9yKtH44KN+/AQYnx0/1Nt3fL+Ko3KNmCMMnQHxrcKes/yKiFJsDj87oF6Gj2QX5H1z3fF+VGlz0VqZAACf2tag2rutx5/QBmj4RSwOoanhIsj0/c//zgOykqOokjBQWYMnWqJGJKwxgZb+udRRgygxRA2LZ9O0aOHCHvWyiQDeIqceD72ZR0TbuMk54Pdv8Thc7yS3oKgog4PeQ4uhUwFb6w+gUHC7jjz4rlTuUTaA4GLW8dC+ez6VACc0M451rFx8+ynhliOHjggCRiSrUJPTQ6+e4Cbrod3HKs0ywJKAlcwLlqAYQOTjpfgEClrDc6Xzd3SyUnefh+iY50spU+3vdvmRsmCuK23OnaomfiJGvbpSzM8GSoJEWf/gZaBiZfMa0+c4MnggCOh0qNT8CNne5d2WSFz13VQBMoURlR4fN5tCtdfa+SzvR1zYBI6I1NrnwNnMxJinqYVCZS1xwQIGxobMtKoiRaymf7cHzHjx4XwiaOn5na2tuiZGkuiWpZHqUAnepCafbo6B4KWlEpq1+dS4XGY0nQojxEEUIUxY/yBtlEqXIMisBKeUi0p8ijIHUoyPA8GAjTbwkoL2FvbpLrsFqAzHOeJlZtpWjbbDh2pBCbNm+SWD8rLwxxeKtCfASrrXkdVhICKBLBsISzvl746PnszZ6Qi+rJwfmjKbr5nNLVU0IyBhBCgAJaWs4SevHOL2EFNPqEcB7peXcOCgQZPctIeU8mbzI/qIUnzrzpXsANuIPbj3Xaf7MELuD8tABCF0w0be2bvQK+l/X9XcvYsrcBklb6/sCBx8I2NvqzAQQeq5q1nBGlzD/8aEUmusZfAo9xbd5flJ9YdKoRk1JMyj2u8wCkZTNrjQ2lyNOl3atNbfzCbMbGKEYLWK0c9NgVKAoQa1tpPK+1quSqb+p5esNboZQv/zC/g33jhVv/LB8e29Rol+RJcqNTYagQiC6d9AUILQXEMQs4MapB9N9mYGf2FOl3LJkChjI0AyEN+FRpptHa2pP/oHMevI0CWlYi+JMNxOpn2IMcAfSQUDaqMY+fttlGCIcyJ5ATFki7XeiSGQrwwEidBOgjW1HOmmDGmFvKe0QwpXIDZDzGeXpOaTCgf1ZeA1UxIu/faFzlnW/qAhr46rVEgKBDO+daxrKeCHCDQ4T+mQ2sWnqtTFe4gBvwucZt/d6SQCsJXMD5aQGELph/Wimcz6XaUu6+AEHUow9bkD6mrWv480B46/3P4qEyuhJ6yXgUpa4CCJqDn7XSqgadik1beorMR6kUsaKZQCaud8buVR8Inqc6OHrj2p7+8tKbXn281rw/N7pueqW45TVLmzRoMZrPtPke5Pk0g4ACGIom1VQWaa619olvc1zyLHKCl4RRl/x53pXCOZ7nFBIWneQoSZbGTdW3nmRPGT9Fo9sseCMe6nvfjcEPwPPG5HUyn26j7D9G4PHiGNhP5jKfjUmW0o3RuK0f74MZDMl71omN5lsZIML8brXXRit6nsd/y/dk+TRodfXjaTF4gajy5qjkV+2NOcfqM4Ame5EEBLERFO9pylE15zpewA34fPYM61hLAsaWccEEYQGELhD1lw0g6EfyuF9NngOPQtAMuqbnl+fQzCItyg2VMhaLWFvPBmiRMjylGQ3ngvIuECBwE5aQhuEiJnxgGaUAAEMpa6WulagXIOhKArl4C/DA86WdsE5+VEargS7a90Ldzpbgw+zR8Sh6H9lIDwJRZoZ1bySbUqGJEjN5O+R6hlz09bQiVO/AN67vRQNiKRuKWR/rreLT2sucnugFVpLVz74JTgXqVHJiGxrPlOci78RMhqNiJF4J+AMIhgdC5QVo/lu6kNS9+XGa2jeb56UZ5Ho8CHI/BUq1p0uRQZlyUkygjaEbHcrxDNSfV8yglaLHjKEcer08r0aHbyyA0L6FYx3175fABQSwFkDogtfta+F35pL+vAJtXb8tD4L5/m2e628j1VSpWteaSv88h/sc0+azutWOqy7hZ0b783j7XqyFNe//TqoiwPS79i4efe02FIq6YhtUzz5DafMZOzURfPS6x4z28Xj4vYfPQ7UFEEwAxutGaWPQZ7uG+RV74wkGalGTQINoD0BtAUC9XPjivjCetRXmM3+vvT56uPp3Z32fPmE1k4emRYFHe+dQZ96vda4lgY5K4ALOTwsgdPQlmc67mABCC3F4lIKXQ1W8sj4hj9Yi9Gpt+VdbyuVcE/0cm73nvh0ECO1JbOuC6dHxS/g+l8klrtBXW5c+u+Xf4qxzvkvj6C4ECGbvgSdPw8OhcW6AoKCbz+P7gAp/ktE5N37F1pE51PE3a51pSaDjEjjXvtnxK7c60wIIXSDMcyvM9t/k3+pBaNcw22NVGwDBHNtv17W74KD2Lp72go8uGFKXXMJk7Z77el9OgKDJj3yTH71hLWp+L0BovVv54YXSB7VTPu2aHu066NxvwTrCksAXIoELOD8tgPCFvMH/gIv6VZA+3Vb8eBDa/2TtmMXnOqS9Svxc1znboNt7j/Y/eNcd6e+5zOPtzHN33SjbfyVfWZvH38olcJa8krPlm3T0ff6nybL9UreOvNgkcAHnqgUQLrbJ097naXMj9aeBznfXvYAzuL3Pax1nScCSgCWBi0ECF3B7tQDCxTBhrGewJGBJwJKAJQFLAl0sAQsgdLFArctZErAkYEnAkoAlgYtBAhZAuBjeovUMlgQsCVgSsCRgSaCLJWABhC4WqHU5SwKWBCwJWBKwJHAxSMACCBfDW7SewZKAJQFLApYELAl0sQQsgNDFArUuZ0nAkoAlAUsClgQuBglYAOFieIvWM1gSsCRgScCSgCWBLpaABRC6WKDW5SwJWBKwJGBJwJLAxSABCyBcDG/RegZLApYELAlYErAk0MUSsABCFwu0Q5ez1+Cdj/dh3pVjEGBuuevnYo3Vp1BcY0dkQhaSwjt0N+ukL60EGrDrVBXq7FEYnxUNVBcgvz4K8d2SkRD2pR20NTBLApYELlIJfAEAwY3a4jws2laKmy+frMTmakbpqRJUnHaj/6AesNcUY8f+AsQmZSK3Z4Zf0Z7a+Sk+PZqB26/ogff+/ByO+RyVmNELU2dfiVRbKTbu3I/whCyMGdS7xVHFu1dhdWMmLhvSA1Ghqgf86vf+B5sK+S8bYuN74OrbbkByiHGaqxkHt23B9kOVGDZ5Evqlx8ovTh/djW0lQRjWPwcJ0aHyXcHWJfjg8/2ALR53PXY3upE63tmM44fzsG53JW6ep569trQAS5avQmx6f1w6eay6kbMeC19cgH6zpqJXVjqOfP4y3j0xAE/cMgqB5wAI1Sf3YH9JPeJzxqBvXGvRnTm5Cy+uqcJ9c8cjPDQYx7e+j+1hMzHcloeta49g2tduAJ+quaEK2w8U4owtGTMGxWPTtsMIcFTiaHAyBmZlon+yCX046/Hi7/6GO7/7OAICKUc3TpcU4cUXluDu739Nnp0ft9OO7Vu3YMXq9W0slyBccuPtGJKRgGCDLtTZeAZ/f/oPuOyBXyC7DcBTeWQj1qxZg/xS/5eNGjUXd07sibCgAGx77RuonPI0ZvY43xXrxJY33sLGolNo9HtqEFLShuH2W6fC7WrGrm0Hsf9gFW68bRIC3G5sX/ohbFGxGDh+KoJVp2uPTJ78xTv47hPzEBkRjAX/9yxm3HE7nvrLJvzsyVmmA13YuWUVduYdRu+k0ciIDUVmjzIsr0hCdmYutn36FjL6DMfwAb0QGqzmsvWxJGBJwJLAFymBLgcILmcDXvvd7zHgzocxMj0eDWcqse6jt7F401GMm3Ejbrx8uCiS3WuX4lBDBEaNm4TMWK2hvY/aVFuKF37/ewy/9+fIbC7Ctk2fIKzvTNgL1+PzfWW44ZorMah/P4TY7Ni3cSX2VwEjxk9Fr3ivqVW45n3Mr8/F3ZNzERceJBf/x3emoWHE95Ab50TlqaNYuikPl8+9FjdcOgVwNmD5Bwvw7ruLccltd2DOpZciJgg4tnUR3jsYimtnjkd2cjg+/eevsfRADKZPz4WtsQo7irPw+F2DsXHJy/hgzQGcPA0MH9IbI4YPRQTc2LVnN7r1GojBQ0djQHoMNSlO7t2M55btw63T+uCt17dj3Jxx6JESLR18Xc5mlBZuR/Cw2zEhzYXqyhIUl9fI+GtK8nC4ohFxGUOQHaPkFZeSgcS4aAQH2PH+//wJWdPnIA9puGlYMo6sfRFPvn0EPaOaUFfrxIhp03H7tZfDXluGRUuWoqA+Bnde2Q/rdpUhMsSJPXXhmDCgH8b0iPK+DEcNnvzq4/jJC8+gofoo/vLsm2hurMfhvDwk9RuG1Kh4DB0+A7OnZmDJR9txvLQBl8/u22reFu/4CI3DrsWYjGSEGUrU7XIgb88mfPrONjz0i4f8zvVjG1/H7uJqJA24AqkKn3k+tcc+x5+OD8EfrxuE6NBALPvteBRfux635Z7vsnHgrYcfx8BbbkFMRnqrk8tKKvDcC+vw3N/uxq6CvXh39WlMz4zASXsIwiJDkBpZj5o6G7KSYrBz/oeYcPVVyBo0EC5HI669/iHc/9s/YVZ2I25+YiGe/8k1uO/hj/HOm7crEOFqxr7dm7B2405Mu3Qu4myVWLa7GFkRp7FjXwFSeo7E8P45+HDJCdx0/XCkpESf78NZx1sSsCRgSeC8JdDlAOF03lL8z/wzePI71yPIUY9DOzfinc8OICHWgfD0CfjK1SNlkA2VR/Dmoo3IHTAME0b18zNwN0oL89Ecn4Vd7/0CH20qwolT1QgIC0FyYhIy+w/DrGtuxMiMKNjrqlBZ2wx7UwOa6mpgd6nLFe1cgc8bsnDl8BwMHNQP0SGBeOax8ej18ApM6Q447A3Yv309lq1ehlG3PImZ2cFYOv9D7N21A2G9+2DAoHGYOqI/jm5egDf3heLGOZPRM96O79/7Q9z4kx+if3oi4HKgpsGGxG5hKCrYg/mvPIf00ZPQve8UNJ3cjcKyRsyePgUn9q7DKUc3jB47HqnRgQKSjh4+gE/nf4AxV92BPj1ToZ0HVCp5699Fae69mN3DjTNlR7Hu8+WojxmKib1d2FdSh4ScUaheMR/Hgrtj8swp6BEXjJM7FmH58VSMSSzFJnsqhieEoLJwE/5VmIJf3jAKbCUdEhqGqFBgw/b1eGFlHhy1TvR1FGNYbh/EZifgkyPNGJKdjYGpkUjO7ImY11XPvQAAIABJREFUgAYUFhbg6Sf/iHt+/H3ExjTi5++W4ddfGQmXywHYghAYEITw8ChEhjrw4YebcOh4FebM8gcQPgEm3IqJWakegMD3ZK+vwgd/eQSlI36CBy9t6QXi74+uewX5dUDfSV9Bpo+XoSp/IR7blIm/Xj+40wDhtXvuR35MDFzRvgrYjfp6B0orUvDS8/dgw6H9WHwoHj+alooP1h3BgkULcduMvrhk5lUItrmx6MmfY+S865A9cii+8933sXHLRkyKr8cdtwVjX/xtSAt24bdPrcdvfnUZAkPCkJCWBXddKfLyCxAdG4cAdxDqD29GVOgR7I6djYE9B2FgagS+8Y238MQTs9CrV+J5L3TrBEsClgQsCZyvBLocICz5+w9QNeQR3DouFXC74Wi243TpCWxevwbloYM8AAFuBz5++2UEpvbB+ElTEGX2mtor8cyv/4IjgYn4yfcfwFtP3o9J3/otmvK24bWVh/DojdOxdfdeuPpMxzDsx0eLFiCy3xxMHzsQFfVAYrc4JEYGonDdAiysy8VXJvdFQlSYKGAChH7fWo9pRmSjrrIIyxd/gGMYjAdvHYmlCxah+HQTctICsO9MOKbOvgxhBR97AUJyKN76+aPYFj4Yv/7WfQgM1KawE0UFB/DMcwtxycQ4VESMQFDxIUy86lokx0bA0VSLnZtW4mBTAnLjHFi/ajXQYyKunTwQe5f8AtHDbkVUcDjWv/knzP7p31D20dOoHv5tzMqkhelAccF+FJ4oRmL3ZJRW18HpDkWA/QzS+w5HZlIcAm2NePGRb2GbHYhNGoHHv30ToiNCUZK3Er/fHI+/3qWAGT+1ZUexdeNSrK3PRHh9A9Iig5DaZySGJpXgxZ2NGNc/F6MzohAYGASbzQ1nYxV+dt938MO//y9qS3fjux/Y8c9HJrWaay57HRYv2Y3T9cG4bk4S3lp7HL2zszE4rhhLT3TD+F4JSE2IRkhggHhK9Ke+qhi/f+AedB/cH/f94KlW1+0IQLgm4STe+99fofeDT2NikhNbNqzGmi27ccfXHsD2z5fgpVdeQ3llLS6/+3HcfNUMJIc78Np9D2LCg99AfHZ2qzE0Ndpx9Hg1Rg5PwYbDB/BxYQp+NiMN7605hF0F5Rg9NAd9eyQjNzEA//zBTzDx2rnoNbgbfvFBLVa9shCv/HomHnlpK97+w9dRVV6BBx/9BK//61bAZhM51xbtxPIPXsLn+by1DcgcgbmXjsWWVZ8jf/8BxIS6ETPmRtw/ZwSSooJlfFdeeSX+tmgRss531VvHWxKwJGBJoB0S6HKA8MJPHsKIx/4Xw7p5VUB95UmsWr4MpSEDvQABwKalr+GIMx2TJk5GeowZIbhhb6rB777/BL75h7/hje/dhl63PAHnsQNYuLEQt88eg4PHihA36mpc3T8WBzd/goKaIPQfOg67lzyN4JwpmDR2Aio3tQ4x+AIEe10lVi//EFtP2PCd+24QgFByxo25N0zF28++iZShI9E3rhzztQchJQr22kosff9F/OWNlRg/8yr8/Fv3wdFUhwPbVmJtRRJ6ObYjZuy9iDu2EidKj2PEVXeh8dRhBNgC0S2xhwCV8sPr8dJW4I5LR2D7249j9B2/Q0JYFN578jqM+MmbOP3R83BNfADJ5Xvw52dehNvlgsvtgtNej1q7E8FhMYgIAmwBAQiPS8HX7rod2d1TsHP5vxA6+GqkNB3Cb//2DhrrKnGgwoY//vhRmQ7hkTHonp6ImpP7sflEA6qbk3DdxGwEhUfAUb4Xz29vbBViKFjxD3zrqSX44c+eRGqyHT9bHYl/3DawTYBw5NhpTBoRiIXbTyErPQN9Y8qwpjgWI3omY8DAAUiNDUegnh5uF07kr8KvlzvxjfGN+Kx+FB4dn9Li2h0BCDfn1GHn+g/w+voo/O6xqVixbDW2H3Dj0Qcm4l+vvwEEx+HGa69GPUIRFRaC8CAH3vj6w5j57cdR1mSHvbm5xRgCgoKR0nMAksJqsW7TJ/jV/y1Fn4RQlAf2wNRZl6N//RqcDk/BxJlXY+HPnsSEudegz8AeKGoIx0MPPIOX/34fKlzR6JUQjNNl5S1CDLxR5aHPUZS/Ct2nPYEIlOEfmyuQ0lyJQX2yEBuXjoRggGMIDgr0gKv169dj7PjxMKU8tGPJW4dYErAkYEmgfRLocoDwxwevxZzfzccAUwi7LYCwZdmbONiYgskTJyMzTuUIeD9N+NVjD+Php57G2z+6H1f86lk0H9yCf3y8D9+7fTbWbt6C+qypmDswHvlbl+JQFTBwzGykBZXgwze2Y8SkoUDp+lY5CL4Aoab8OD5+702Uhk7Gg3cM9QCEG+++ERW7V+ClT7ejTzcnCgIGqRBDivfBmmrLseD53+GzMz3x3A+/hvKTBTiQdwgH9m5G3LCb0L02Dw3NpeiWnoy8vFL0nzQPQ7LiQShUeWQD/rHBoQDC6w8hctTdiA6OwOcv/hxX//FNVH38IgIv+QaGG3kGlEtd+RGsXrYYa/bbMXb2bEyfMAiRZolVFeIvH5djfOAabE+6Bg9OzQbqivGjbz+NXz/9JE5XlmH3mThMzQmXHITlW/ai3J2GGX3DUVRchobTR7D4UBMGZmWhf1oMcvv0Roi7DmVNNjz76Pfx0xefQfmR5fjxrl74+7xefgHCu28vwOvvLUFSfDCKqxoQER6BqKAmVDQFIy4iFN2SUvHj7z6O+G4qw9LpqMPfv/YALn/6ZURUFOCT11/C7d/5RacBwm19Xcg/sBu/+usL+Oljd2Dr8sXIvP5HGJ1gw7GCHXjm2b/j4PFaPPH4oxg/ZhTgasIz33gU137nCaTm5LS5elzOmpYehLUFOF0P3DurB5565lX079sXpSuXCUDoN2a05CDccOuf8cI/HkLp4Tyccbtxpqoaf/zrJvz0J7MQHhWFnNxc1Ocvx6J//R6rirMQCDtOpozDHeMS0HfAAKSkDcDmZ/+C2j4DceW0SYgNt0oa2re9WUdZErAk0BkJdDlAePEn96D/g89jXMq5PQjrF7+Ek8FZmDTxEqRGmp3OfKRG/PLRR/DI/zyN1797M9KufgjOE/n4eMtRzJ00GEfLq5Ex+QZc1b8b8rd8gvxqYNCYS5EZTZe8E80OJ46s+wCfNA/EnZNzERumPBQqB2ElpqZDrPFd6z7Be5/twwM/fRI5YfYWACHUacfCl5/Csp174eg5D9++ZTZ6pkSiqbFJXMP8lOetwN1/XIalL/weDocdp0vovl+G+An3Ie74J1i88A0kDL8Fc6ZOQXxsKAICAqQSQAOE22cNw453vo1Rd/wWCeHRWPDLmzHsuy/h+OtPodsNT2KYPI8L1SUF2LN/P+qagxAZG44TZ4LRv3sUcvsPQmhAoAxn7du/RG3cEPQcPBWZ8VEICw0UBfzst76BKfd+DQsXLse8Ox5E38wEOAyAUGHLxG1TlUKsLd3j14MAI0nxx/98Gtvf/jnqZv0ClyS3nnbN9RVYsjEftc3BcLlc6BYZhJLjlRg0oBeG9kvCgdUL0WfMLETGqhi62+1E/ooX8G7FRPzghgFwNddj/44d+HR3CB6+ixUd6h70IBw440Cv8behh49urD60CN/Z0Qv/6ycHob7iONbMfwYr3eMRU3oA3/vhE1KB4XA45V3t2/wJ5u8Frpl1CUZkBOKhby3ENdOSEZUciso9i/F/ezLwo5uHo6mxUXIFoqOj0G9ob+wyhxgMgPC1ObloqCxBYHAwXvnNHzHJFyA8/whiYyLkefx6EPJX4tThNegx6/uIRCme2VCKpOp81BzZB3fiAFw6ewYSwiMRHhLsKYVtampCaKhP1mZndgPrXEsClgQsCZgk0OUAYd1rv8PurNtw/yRv+WJDVRHWrVqF8uB+uOmyYer2bjsWv/IvhGT1wYSpk9ESH7hRf6YYv3n0l7j/T7/Fqr89iRnf+x0ch3fgz68sQS+XC46M3ph7121IC2rGjlXv4HCVDcOnzkNOfCjKD23BB0tXI/9EJW689xsYntMdQYayef57M7CleRwSQl2or61BtT0WD//gUQzPTAJcDVixaCnKalyYe9u1YG1FXfFB/Oapv6IicRK+d89VyIprwq8e+RHqYmNhCwxE+fED6H71d/C9y3Kx8r2/YNW+WjQ2N2L4nHuQ3nAYDtdpjLzmXsSjER+/8T7Ssnth6ISxqChYj+fW1uOy/nEo3fo8AvvfgIigMNgCwjBgaF9see2v6HfvD5DqsKNwz15sXbMF/a65HJkox97iOsT3HAX7gRU40dwN/Qf0R2ZiOJxNdoDgo2AjPt4ahhuvzEWz24H3f/91bE+7Gd+8ahSObVqE7GseRIZDeRDKXGm4flw6mh0u1JUdwKu7GzEmtw9GpEciIDgU4SGBaKgpk3fx3d88hMe+82c89+pz8PX38JXWlBzErqOlCE3uh7178hHbLRkT0xsxf+kybFm/CdMum4fLrrgMsZHhcDuacDJ/M/74p934w98f8FyvtvQotn2+FK4h12Fcr25Sunh03UuY/8kyFLl7I9Knwq/5zHHs73svXrprtCQprvrzbJRcuRQ39Gb+aCN2blmJX/1rHebd+TBuGZ0ER1M1Pv7sM6xYvQ22unKkT52HeZdOR1zNHvxzRxhuHpeBoMY8fPP+Bfjty48h2tWM33//EQy46ylcNzIV4cEN2JC/Fx8ejMX3pqbgw03H0eAKAwGCfFxN+MFPf4u5V1+FMaNGeD0If/+6gEM3gKqKSjz23WV48fkbJN8gKDgEjSfWY8+G9+HodTPCUIUlRaEYGlmNnP79kZbaH93DgK9+9a/4wQ9uQO/eaQJ0Hv32D/Hnp35tbWiWBCwJWBL4QiTQ5QCh4cRGfO/57fjdj+5HWJCysp3NTag6XQG7LQppScpnXl+aj/nL96HPwKEYM9gnKcxdh5d+8xxyxuZg8YEmPHn3VX4e3oagoCCcyl+P7fvyUd0QiJDYJIweOxHdY1qXTYaEhSMowIbjBzaiqJqXC0B4RBz6De4jQECBFicqSsthdwIp3VOM2K4bZccOocoVhYzuyaIw7XUV2H3giFiiMfE56N8nyTO+6tJCbF63FHET7kNaxVYcOnYU2ePnIMFxGks+3YGeffpi9Ig+KD2wBs8t2YIZl1+P0X3SERxog9vtQkNDIxi6ePeFV3H3d76LosP5+GzdQcyeezkyYkNQdXynAISE3hPQr5sLJXn7sWD9HkyfNhZFG7YgKCkRsdkD0Ts1GEv+8ncccsZh+qwx2PbpM6gKmQxbcCkef/RxOOsqsHZnHo4UnUFS02HsPX4GTnsdTta4EBcZgZiwQMTlTsU1Y1Mx/70F2N+YgXuGV6Oy9zxMz9bMB6bX4nZi74bVOFlUgolzpuHd+R/jYIkL06dOwpD0YOxY8ylOdhuBOSNzkRoXjrK8lfjzXw/hR3+7D8qu1u/AjdJj+7Fs1SokjLoes/onomjbAhxtBHqOnIs0H4O5pnAZfr27O350aV9EhtAzsxn25NFIldiLG7VnzuBoUQl69+sLdaobVUVFOHH8BJqiktAzMx3x0UFY+ezT6HXpFUgKOoVv/uwfSMjujZggBYOa7U3Yl38cM2/5Fr56aSY271yFv/1rA/onhaLElYxRE6fh5omZaG5uRnNzKZ5ZkI85E4diSO9kuBxNuP+hf+C33x+FF95aBafLJccdOFCOwYPTYLOFo1ef0Zg53IbSY5uQPulBBDcX46NDjUhwVgIRCUiOS0NGJPDjn36ERx6chqyseMB+CnO+uwYf/4kgw/pYErAkYEmg6yXQ5QCBNfzz//EUMi5/GGMzTYkILXSAE7vXLEWpOxLDxkxEouH+9xziqEdhpRNZSdFori/Hrv3CbOTzYcJfMrqnJyHQ7UJISCgqi49JLL3R0fro7P7DkBjpz+7tWqHWVhZh364NiBpyHXKjGlB86iROlVXJTWKTM5CeloyI4ADUVpbAFR6HqLBQT3mjs6kG23cfhC0wCN2y+iHHxOmgR6l4EBoQlzHUw4PQ+gncKMrbCXfyQKTHMePdDXtDLfYcOIL4hB7IzuwmXAunz9TBYQtFSlznKRkJbqpqGtDksCEp2obqRheCQ8IRHepNoWuqKsLhU9XonZONo/mF6D2wn5Re+ht/zenTqDlTi5SsTMnZ+EI/bicKCquEXyAyojW4FJDQZMepIyXokdsdZxrqUNkYgp7dQlFW3YBmFxDRcBpFp06hHgHI6JWDpG5xMm7KZe++4+iXm4GgoLafhMRV9oZqICAcxSeOISghHd3T0nCysBDl5eXy+AlZ/ZCREKWImI4twgeuWbgm2woxfKFzw7q4JYH/Ygl0OUCQzbS+CoVl9eiT1d2vaBn7Lz99BiHhUegW4x9E/Be/E+vRLQlYErAkYEnAksC/XQJfCED4tz+VNQBLApYELAlYErAkYEmgUxKwAEKnxGedbEnAkoAlAUsClgQuTglYAOHifK/WU1kSsCRgScCSgCWBTknAAgidEp91siUBSwKWBCwJWBK4OCVgAYSL871aT2VJwJKAJQFLApYEOiUBCyB0SnzWyZYELAlYErAkYEng4pSABRAuzvdqPZUlAUsClgQsCVgS6JQELIDQKfFZJ1sSsCRgScCSgCWBi1MCX1qA0FhZgFOBPdEz1h/TnvdluO11KKuxwxYWgyQfov7qEweRZ0/A4Mx44fQHnFi78H30mXMDkv0T5n2hb7mppgy7DpYio0cG0lJicXjrYji7T0DPlG6KHa8Tn/rK49i0pw4jhvdETHRLdj17Uy1WL34LM667x+8dHPZa7DtWhaioWOSkRrc5ivqaYgRGpxqUxe0fbFNNMTaX2DCgewLi2aPa+lgSsCRgScCSwJdeAl0OEEgtm7/uQxREDMecod1RdHg3XnjlbRSdrkN6ziBcffXVGJgZg60bVsMdlYTBw0Yg3I9yrC3Zg6f/vg3f/NEtOLFrH2oNUTY31OLg3p04HZKKO2+ci3B3DdatWgtneDwmTh7n7atANtqNi7GkvjduGd/b6ObYhD8+cC/m/OHVFu2oL9Rbqinej9c/3Isx48dg+KB0LPrLY3CMfwSzR/RGZ/Ummz89+0457vrKVKSnRWLL4lex7UQjXG7A0dyEvZtWYujES9WjBoUgp29/zJ4yXn48c3I3dhY3or78COLCghEcl2PQG7uwd9NyXH3TPYiKiUNV4Ub8/K3d+MPjd6Bg3wHUA7DXnkbJiUMIzRmN5NAAJCYlI9xehE2bNqKwQt3Oaa/B1vxT6JuVgbgob+eFgbO/gtGJ1Th4pNTPK3DheP4hVFdUYciEKUhNS0NiXAjeeHsZoqJDkZWZBHt9EXaURWNIepT0/agp2ICIGfdjhKlF9oV6t9Z9LAlYErAkcLFJoMsBgrP6KJ586jU88MRjSA4FCvP3oei0E7GRbuzauAvOkGTcdPeVqNi7BqsPVmHoqEkYmJ3QSq7O5gaseOMVhE6/HcMjm5C3ezU+WrYHwcmJGDtsCLKyeyIjLQWBcKHk8C7sK6pHY20Vyk4cQlWjulz1yXzkN8djcEYGbrj3TmTHuvGr22/E1c8sxJC2DeUv7B2fKdqDf767ExOnTMSYYVmoPHkE7pg0dIsK9/Rj6OjNy/NX4Y+vluKB+2ehR3oMqktPYse6d9FzxHVoaqjGolf/D/Pu+yEaaytwuvgAeg2bg8T4boC7GTuWLUKtKxih7uMIjc9Aeu5UsIMDPS4fPP0TXHPfjxETnwxHYw1WfvQOIifehCFhTjjZ7bLsGPZt+QxRU76K/lE2hISEINDF5lxlWPfp59iyay/q3W40NDaq3wUGIjKuP26/eRoS07MRF+JAbX1T68d2O7H5s2U4XnAc875+n7Q1DkITfv/nDzB8eF+MH9sX9RU78XpeCm4YnozYsACUrHoaR8d9DzNVN2nrY0nAkoAlAUsCnZBAlwOEQ5+9hLdO9MYP7poEuF1ottuBgGAEBzVj7cJPcSD/NG769lcQ0VSF997/COm9+mH8mOFG58SWT0KFbw+MxJL//TaiRl+BykMHsf5QBeZNG4WKmgYkDp+NGb1j4XLY0Wh3Stc9/nGypy6A45s/wif1vXDj2D7IzEhGaKAdvzQAQt/Aaqz76DU4kqdh9uT+aKguxZZ1K7Dl8GmMnzAJ40YM8gwmf9MCrNyUh+CE8Zh7xWjExYShsaIAr326C9dNzMHzb32KlJ798ZV5l8s5bGV8YM92fLh0FeKyB2DS1OkYkBKBlgAhG3tXvQZn9mz0S4vEB8++ianfuAvJgQFobqrF+g9fQ/KM+6VjY1nhYSx9ez6quvfBuGmzMDJd9a9oqi3FJ0uX48ChMowcHo+PV4fiEQEIsaLcty98GW8XhODJ+67AG3/9GW5+4PtY8/HLKE2YjptnjhIvQVN1Ed59dxnCE3qib/QeBKf0Rs6gmR6A8M7/PI45d/8Q0fHJck97/RnYgyPhrinHohUbcNWkIdi94WNEz3gAg8xtNVyN+PDF1xCVlIoBY0d5ZOmsr8D/t3ff4VFUCx/Hv+m9994TklBSIIQUeugd6aKiWK+9e/WqiFgRFS+oICBNwEKRHjqEEkhIgfTee2+72fY+u/EiSKyX+8L73jN/wbOzM2c+M5v5zTlnznnz49N89M59mJkaqmczor4slfXbj/y0jjbOnj5MmjWFrIMHKckrZe5Tj2k+U3Z38OEn+4iK7k9sdCAd9cl8neXEgoGOWBppU3V8BRn9n+0JCCoVdbVVxJ+6wILZM/6Nn4j4qhAQAkLgv1PglgeEb95bjO3Mzxjjd+MMgY2VeezbdwQd+3DmTRuMNipO7VpPq4UPUdHDsbm+2VwpISM5he3f7eLFd5fx9bPjKTaNQNnWSH5lC8FeTsiMrImd8xijnbtJOr2fRgN3+vq5kZiaQ2hIOH19XClO2MmuzgAWxQZgaaRu+5ZoAsKET3fQeHA1p0udefaZmeh11XFk325SyyHU35Kc8gb6hccwPnYAyQc3szezBW8PL7pLLtFqMZLFc6PRakhm9lMfEBE5lUHBVuRcPorMM46X751CQ2U2l0/vRG4WTHbaFbSsvJl773yMm6+vQfDk0BePIIt4gdH9PUlY+wIpfV/kxVgH6kvSeGXFN6xc8R7NRVfZvn4LRv1HYNaeQ61ci+gpiwkxb2PDuq20Y0CAlxN79uyhRRHBR8sW/hQQ1DfzNvJyS/Dxd2HbyjeZ/+RSKvMKsPPvi6mRuo5AQfbJg3z99VHCps4lyDSZinYt9MxcOJreQkSgM7mndvDQC8uwtLIk8VISZ37czPNvr9I0K7y1chPvP38/R3d8yukGOxzNnBgSNYrYKE9QSPjhi6/o1tHHc0C/a78upaSZVVuy+fKTRzAzM9KEyJKsI6y46sSbcW5IGss1U3g7jH2A0l4CwnsfbcPO3py+QW5IWvM5UmrNSH8rTPS1aEzdjcGs938KCEryc67y/urNfLbyQwz/O3/f4qiFgBAQAn9Z4JYHhM+evZuRS7YQfK0KX0F5Tio7Nu7GavB4Zo0bjJlBz7S3SUe3kdvtSGx0LG4W13deU6GQd/LOC0/z1PLP2fHqYka9thJ5/mU2HMnmubmjSExJQ+YzkqlBluReOkx+qzZ9B41Gmr2PI5nNjIsbj05xwk0BYen8u7AfM4G8AnNee3U2loY6FFw+x5fvfESbux8Wuioq6toZPX4S8yYM4v2PVlJQVoe9jTXqp99qhROfLH0Og7arzH1jB99/8SF6ulCVn8qHq/ax/J9L0Vcq6Gqt5eKFBHZ8txsLn4HMX/Q3PFW51zUxeHLgn/fTHfl3xoT40lV0ikXvHGbPuqVc+PZdzundxdOT3bl4+kfe/ee39AnwRyltp01hS9zk+UTY5BCf3k5IVBwh3haUpOzny11dPPH4BOzNpaRkFCCXK1AqFNSXpbNq4z7G3vcCkW76aGtro2tkjp2NDZKuWr47mkeQqzszJ4Vq+ix0NRXx0cEq5ozoj7e9EQaGRpppmeVyCev+vpCH399BTVke/1ixnhWvPELauf0YxjxAkKk2unp66Kq6OXIknmMnzqCuzNHWuX6aYxXSbiV2Lu689PTf0NGG4szDfJzfh0+netFZV0xxWjzmox6grNcahL0MjgwmJkpdg3CZTdlOzAt36KlBOPEJOaHPX2tiUB97l1SKsbExv93V9S//fsQXhYAQEAL/bwVueUD44uWHGfralz2dAFVySjJS+HbLUeIevYf+bs5oa//8pzrp2HZyJA6agOBu+cve7VKWPfMETyxfxcZnx5GnH4qyvYmi6lYC3B1QmtozfP7jTAu2Ji85nvxmCI4Yg5upjNqyFsytzahJ3X9TQHhr3iQUQRF0W4Xy7uOzNGXMPp/A9rU7CV04DU2u0dbH08cbFzM5yz/fjKWNE4G+npqLwMDUioEhwUgrL3H/u7v5/ssPNU/B1YVpvPzBDv65agl5F0+yfe9RRo1VN4ukUKc0I3bSQrzJ+9WAYEwbL94zjwWfbWTHs8/x/JoNmNNO4okDbDlUxKwpEZr96xlY4uXlQ2fBPpIbTAiPmYS/rS71ead+6oMwRlODoFL1tLM0VaTx/v5sPMoOEBE9GtthC/G4rnJHKWlhxw8JyGQyBoY4Ud/UzPYdR7lSXcfM+ZPp72iHgb4xkYNC0dWFtS/N4/4lGzhbVMGWL3sCwi+bGJTSNrbuSMXK3pbxcf43/3jkbbz14Iu8vn41OjraFKbu4ZGPjhHibIxC2oWNgw33vPKPmwKCQtrKRytPERUdREyUz283Mfy//cmKAxMCQkAI/O8I3PKAsOX9B7Gb8Rlj/QzpbK4l4dD31DiOZU6Um+aItLS10dHR1XTKO/n9WtqsfIiOHYn1L147VKm6ePuZJ3ly+ef88MZjjF+6CnluMl8dzuT5uaNJSUtD6TOC4T4m5CYdJq9Ji36Dx+BurqVpf1aqVOSe2MYl/cFMi/DGzEDAj+RRAAAgAElEQVT9qkRPE8PYD78ife27dARM4LG7RlJXlMaubRuwGjSXmcP7U5hVjo6+CX59rPjqvU9osPBnzqxx2GjVc6bWhGH+9igqzzN28TKe+XA9E30NiN/4OudaBvHec9NIOH2QI1eaePXBmRzetZULZSrm3v/YbwcEXUjfvYwVaaYYGjnzxYuzUCm6Sbt0ik82H+HJF1/Hz6yNmjYpRjaeGNZdYs13xwmKGMnoME+++uRdkkt9WLbkbk1AUMjllF7eyeoEfZY+MkzTxDBr8cucP5GATeQkBrgYoKOtjbKrmR07E9AxtuGuySGc3bMbXWsj9haZYibNYvGsWdjYOP7UiVLO509NwsRhIIHTFrJ2za8HhC07UrGxNaf56iG6dA2w8/FC1d3GD/G1LF8ym9UvL+H19Z9rAkJJ9hFWFgTw0aSeEKZZVArO/6IGQdpawkdbT2Oip4evkxnS9mLOVFgR5W2OsZ4WzVlHcLjvk2s1COqQJFco0FMnG7EIASEgBITAnxK45QGh5MwWthUH8NLCQbTUVbDxk1fZm1h+rVA+kWO4/6FHiXBUsG3rPpz9+hAb09Nh7uebg5KilGO8+uYanv1yEwbFF3DuPwhVWwNpWYVoNbeh5+BGyMC+6HTWcXjPN6RXGjJhygyCvSxpqyvlak4hrTJ9BkeEYGFirKkm19Xu5qNHHmDc8s24dZawevWnGPebwt+mRJGblsCGDeu4XNBG1MiJPLBwDh5OVrTWFbFjzaccOHsVlYUrj77wGiMG+CApO8f9b29njr8Ba49lEBQ2g7//40HsjRSU5aby+aqPyWw0I2KAL/6+7vQZMhUPCti6N4PBmtcc3Tn61VN0D3yaEX29UHeRkDUXMWnuiyzd+g0RNj3vEUg7GkjYu4UvvtpLl4kz46bdw8L5o7HQk3Hp1F7WbfqWilYV48cPprTSkyceHI2zrRZbPlqDcWwMM6MHI+ls0nRSXPTyx7Q31HDu6DG6rFyYNGooWt2tmoCg1NLDyqgWbRs/Qnyt+eJoNXNi/Si8fAKXyHH0c7ZGR97CE/e9y/Orl6LTmMd7q79h6dP3kZl0DNOhiwg06WlO0JJ3amoQbOzMab16mLzaegztbFHJJaTn6fPOP+5i7dIVLFm7Ep2bbt7q5iU5UqmExKPHqS6rYd7jD6kTA0XntnCq2ZEhg4cTYKN3rQZhXogVRjoqqk79k5KIFxlho67UUZCfncFnG0+z8v3H/9SPQqwsBISAEBACcMsDgqKzmrde/4zFb76Gm+mNHRWvPRwqFVRlXSShsJPg0IEEu6p73V+3dFXx8ebLPLYwhvj4/RT0+p68Ab5BAwjuY4mkvQtTU3NSLpyiqLIF1Y1xQ7Ph0XMfIdjR8Ja1RbcWn/25ieEOu5I66oup0XLEy6bneCVdzexa+yHznlymKalCJqGupp5OuQmeTjrsP3iR+upWJk0ego2LE9LmYtYcr2VydKCmD0Jm8hX8Q/qhq7mZq2itKeDS1ZJejlobB1c3fLwcObQvC0sbS3ydtTC3tsbCxhqUUuK/+Zbc2iqyDPrw6aOT0NW+cRAMpUJCYW4K+w5doEFphH/oEBaOHKB5M+TbLSdw8XEjKjZY89ZLV+NVvs+3J1r7EocTC2muzOOB11dqXq9VyrsozE3keH0ADw11usPOkCiOEBACQuDOF7jlAUEzUFLiXk7W2PHQ1KheBWTttZw6k4CRnRcRYaH/9iiCt4O5vewSz606zJfvvXY7dv+n9qlQyKgozMbd7+e3Cf7UBv4PrqxSyOhsrkJm7o5lT2WMWISAEBACQuBPCNzygPAn9v1/elV5VxPp+TWE9evzf/o4ROGFgBAQAkJACPQmIAKCuC6EgBAQAkJACAiBmwREQBAXhRAQAkJACAgBISACgrgGhIAQEAJCQAgIgd8XEDUIv28k1hACQkAICAEh8F8nIALCf90pFwcsBISAEBACQuD3BURA+H0jsYYQEAJCQAgIgf86AREQ/utOuThgISAEhIAQEAK/LyACwu8b9bpGV1M5V9osiHC/Nm3lX9yS+JoQEAJCQAgIgTtP4D8QEFR0NZZzIa+ZEYP7IeloISM1kZIGOT4BQQwI8ETe2Uh+aRUmlg64Odr2qlKffZbz9W5MirLj9Pd7qfnFWpb2zvQPH4I1DaTnFmNg6UI/H5cb1qrNTuSS1IXhgc6Y6KsH55Xxw8oVDHzwpRtmNPwrp0U9e+LaMm9eGdkzCdX1i0zSSl5ZOU16bkR79gSIzoYyknPLcHbzxcfV/trqzeVZnEnOpksqu2k72jq6OLh4EBsZfsNnrdX5XM6uwNozkGBP+14Glv55dfWcBKnxX3KyzJ5nHrzrxn2o5BSmp5GcV09wZCRBPw153VVfyNlSJSF+btiaGfwqj0LazpXEo5zK6OKpR+f9FUbxHSEgBISAELhDBW55QFAqpOz7chV24+4m0t2c8rw0Dlwqgo46miVyokdPJSrQmfRzx6hUmBE2aAiOpjePhdvVVMbaT9Yx8rGXsGgqJiv7Evqu4XRXXeFCZgXRscMYMigcA1UXaedPUdKlz6DoWFzNfp4Wsjhh503TPatnc5zy+Y/0/5MP/rKuFnLyiujokmpOZVNxEt/XuPLgYEfN/7V19bD3DsbDygBpWx0XMrKoMgxivFM7aSnJFJbXcDUjHxt7J9zcnAiMHEWwlxOVidtJlAUT6qSeTOr6q0RFS10VmafSWPjyEz99oKKhooD8jFQq2rUxMLPC2tyYxqIU8jptuGtSHK72ljdcavX5Z3lv2zkGuuhg6DWTaSM8fv5cKeHAxo1sWL+J8U88zV3TZ2GuB/UZB3nrhIyHpw27eZ6M67aulEvIz0zhUraEBbNH3KGXuCiWEBACQkAI/BWBWx4Q2ooTeH9rIX9/eSHG2kokHW00dCjQ6qji5NmzSMz8uH/aSNqqsth57Ap9+oUzeIBPL2VXUphyEaVHCA2JmzmVVEhOQR06Jka4ODrg5t+PmJFj8LczorOpmqpmKd3SLjpbGpDIezZXk3mO8xJX4vp6MTByINZGcs10z38lICgVMsoyEtiZVMv0uBik5Rf4vNSHf4xyIengKiqc5jF3qC/asnZyU85yPqeMJhNfoi1a6JQrsAuMwEwh1cx2qKevh5m1PeYmhhScXM/hBk/6OxjcFBBa62vIT8zhiXf+jvpmnJeVQ0FpLRaunlhaWOJkriLj+EmuNLTSf3A04YG+GBn8HLaaCs/x6apkpj05C1ftRo4dPIdT7GSGBjr0ACm6+GHtBhITjmMQHklExGgmR4dQm7qT5w7JeG7eGEI8rH7julLR3S1FIlFhbt77xFx/5aIU3xECQkAICIHbL3DLA8KJTUspcL2bxSO9bji62uI0Dh07hkXwVKZG+qBSSjnw7TcYuvgzJDoa4+ufnuWt7Nn8PRWYcvfd09m17AlCF79Ma2YyOxPLeOKuEVzJzUc3YCThhhUknjuNvtsgBvi50tghx9zMDAtDbUov7GN/py/zo/xxsrVAV1v6U0DYg6eklG1frGf0M0vwMe4mPTmRS5klTJ91F3mXTrDjhx+pbe1myoIHGT8sEnXFhFzSzsXju2j3jiNIlsrK0gCe8chnb54WM+OGYWOqh1Ihp7WulAuZuVQbBRJJHhXtEgJjJ+FsePMJzz2xnlSzsYz0MSPtu+XoTXieYIMOzv34MeEzXkZPIsfOyZ72pjpqqqowdXChOCOJipo6pDIDDC0c6B8ajJu9Jfq6P0+anXXsC3aXuTF7+ECMZMWktzgQYiMhKfEKhm79GB3d56eAsJHSmib8vYy50mXBxJlzcCg/eENAaCm+wHNPPUdySQdBcTMIu5jC9FO78JR1cjnxLLuOt7Ds9Znknd9P0qWTFDQacGT3YTyj5vHsk/fR39eUrSufRR52L9OHhJG05hkK3B9j8eQ+aGmpKEz8ltfWXmHbup7ZJsUiBISAEBACt1/glgeEr9/8G0GPrSTCvudmVV9ZxNbV73Ays4EBUSO5/8FHcLdQTxsMFw5upkzblZjoYTiZXpcQVEraWur4dNnbPPnex2x9aQ524x5GUVnA0ZRypg8dQEldE07Rs5jkb0LWxcOUSozoExxK+rFtWPhFExkWRu2FX29i8KeRwzu+ospxPIuGOXLq6DEKWq1ZOKkPP/y4D4WBPXFRoSiNbbGzMubK/r2klpTR1tVOt44RtJWS1GJNtIsunQo9zE2NsHH2ZvaMsdTlprF5y26UHgOJtJOgZ25GYOx4bHsO+4ZFHRDSzIZj1VZG5sGv0I1dhI9eF2knNhE87lEcbR0I7xeIUqFAqVTQVJnJycPxdOi74uuoR127JWGREXj8a8rs7ja++nojXt6h9B8Ygo25EZnHv2JHzUCWzBtAe1M9eVkpVDZ3EjlqPKc3bqS8UcKCh6ez9p3VeEQPJ8a7i1f/VYPgrMcD0yfhcc8rzAvzpaP8MlPueoPD9Zn4d7dz5thB1u1sYvPaxVyJ/5qN278lYMrLDHWFD7/awaixU5g3bRxVWSdY/PYhXr83hCU7c/h8ybN4OKqn+VbRVJ3L/lM13D1n6O3/RYgSCAEhIASEgEbglgeEj5+Yydh3fyDItEdYfWPr6mynramGM0dO0aLtwN2LpqB+mE46tp1cqQOxUbG4Wf7y7ill2TNP8MTy1ex49UHGvPEZsrzLrI/P5vl5o0i8nIrUewTTgq3JS44nvxmCB43GUlrIgb2ZDB4WgVbVuV/tg9DPSEJm0jFWHcjnxbuHcvZIPIEzniLUDpLPHWXr9/vAwp1Fd8+lX4AXMokUuUKBCmiryWLFhs0UdFnw4pMv0dem51jVzQcqhZTSrMuUdMipMw4mvPsqdZ1t9I+byY29A3q+ow4Ia87UYa4tpzbzAtq+g7HVkVGem4hzUCxmVo6Ex03DubucU+dS8AoMwtnOnMrqGurqWzDV00ZXDy7tPIDTzMXMHjEAPYUEXV0D9PV1UXdSvHLkC7ZURfDBfYNApUIulyFXKNHXU7FrbU9AePCVJ6lL3sMHuxKJ8TLhQL2/pokh0KKJ6ImL+XH39zjbWSPrrONp92E83mtA2EJCcipDH/mAIONOnvzHMgaGD+beOTNQKWWc3vQW7+84yAsfbGdosA862loaA/UU4TKZUlNesQgBISAEhMCdIXDLA8JXry0i5OkNDPzlywmKTk7/eJiM/DbufuEe1H0EEw9uolTb7eYaBI3NzwFh64uzsBixCEV1ESfSK5kU1Zfyxnbch825MSBEjMHdTIVCrkRbR5uSs7t+o5OiiobKIn5Y9wldviOQ1zXyzBMPoL5nqZ/UFd2dnD2yi0v1FkweO4o+zj2Jp7E4hQ0XKpniI2dNhTcj61MIXnAP7tea4FVIWmtJzMyhysAHj4Y02tplxE2bSs/t8Mbl7DefIItagHHyFrqiH8Ho4j9p6vMIIzx0aWpq5FKDAROCbNRJjo6mCpIvpVDRooeDuw++Xs642mhxaONW6s3cGDd2KPaWJjfs56aAcP3uNX0QfgoIf38aI7mE9cv/Rnx+CUVW81nz+HT623YTEDuTY8f24W5liaSxhFD/8ezsNSBs5ULaFYY++gEB+m08+Y93CAsbxH1zZqCUtPDk4/MwlEqRj3mTZXOiMNH/uUnkzvg5iFIIASEgBITAvwRueUA49tUbVIQ+yT3hNnQ01nF0xzout+qh19lIdWs3UZMWMH9UiLqHHAc3bUDbzZfoYcO5voWh56myjVfvfY4X163ihzceZcLbnyPLvcT7Gw4yyNyYDktHxi1ciI+ZDlfOfKepQQgbPgsPcy3qCtOIP51IVm4hYxY8RmQfN/R11LdnCcsWzmHy6j2atxi6O5o49eM61pypZ/7i55geZkdHQxlHT50hLb8KSWUh9pETmTkxDldTXbJOfMW+SgcemjYGackpPir25704W3Zt2IDJoBmMDXVBS0sLSVstiRlZZDVqY9FegbFHJFMHe/Zy1cn5ZvWbjJn/NOUnttAW+zhRZl3sWPEmhd0mFHTZ8uCM8URF+CGXtlNSXEW3liUB3mYc3bOFFoWCluZ2TJxCGDM8BpteXkn8vYCw86uNlDdIefDvT6HOOB1VV1mw6DHSzcey88PHCPEwY/czC3j6vIQpg71oLzlLZUIHH18LCIdYv6uRTWsWc+XIVhLTrjL0kffx12/nqdeXERYWwb2zp3Jm3XMcqBvBQ7MDeHTK3SzZH0+EhxVaqINaDtv2dfL4Q2HilykEhIAQEAJ3iMAtDwjtRSd5dUsZK15biI6WitaGKhJPnKPTyAS/PsEE+bhrDl3WXMr2/cn49OlLVLjfLzi62PreSrSczLja7cab947thUsLbW1tKnPOknDpMtUtujh6+hETE43jda86/uuLunr6aGvJSTp6BK+h47FRvw2pUtBQXUF6fi2RsQM1N0h1cCnPzuLq1Wy0HX0Y0C8QB1MVR777FqVlEDFDB2BirE9NxmFNQPhgohcKuZT009+SkmXKpIWxZB7dTVq1EjMXV+xoY8SkOZj28rDcUXmF5XvzeXzuGAr2f8DeamcGB7oQGjOc3B/3UKxlwtRZE7HQ0UWbnqYBJVpImis4ey6BqnZtRg0fiaer069eTuqAkHHsK7ZVD2TZwhvHU0A9DkJmDu0SBUHh/emp4FdRmHSYjA47hoT11YyDoJC2cWTrdxRLVYyYMor7I6fzXVkKTkoZleWlZBdJGTUskIayPGobGnAKHoKljoyEi8nY2drj7WLBwVMXiQgfhKOdLVUZR0nIdmTm9GC0UJD03RsccXuev0f91hsTd8gvRhRDCAgBIfBfInDLA4J6HITNHy4h6J5XGeRs0jujSsmV0wcplRkRFjkUJ9NftD13t5BSLifEywZJUwmHT6f0sh1dnN296RPshZ5SgZGRMWW56WTnFdNx85hDhAybgIeVfq/V/H/lXNflnmJNmTevjrp5oKQ/ur3W6lKkZg5YGxtQnnEKx+BYDLT+1VlTRVdrE+nnUjAODMVFr4nEhJPUK0ywsXImKCgIT/feB5m6Yf8qFY0VWeR12TPY7w+sf1PhlSTt/QL7fmPR1tXlxIZXWZlgw6XDn/7Rw/zN9dTXyzdvTWHSksO99tG4JTsRGxECQkAICIE/LXDLA4L6CVTSXE1KUQtDQvv0WiB5VzMllbUYmdtqOr6J5U4WUJF1bCP3vrSS9k4JDlFz+XjpS4Q4/foIi3fy0YiyCQEhIASEwB8T+A8EhD+2Y7GWEBACQkAICAEhcOcKiIBw554bUTIhIASEgBAQArdNQASE20YvdiwEhIAQEAJC4M4VEAHhzj03omRCQAgIASEgBG6bgAgIt41e7FgICAEhIASEwJ0rIALCnXtuRMmEgBAQAkJACNw2AREQbhu92LEQEAJCQAgIgTtXQASEO/fciJIJASEgBISAELhtAndsQOhuq6JRxxFH496mOPrZSyWX0NIlR0vPGAvD66aMVs8rUF9OhdwMLztz9DRzMfybi6yTwxfSiRkYgomRej7Kf2+RNpdyLFfOsP7umBj+ciZDFZKOdiryS3HxdaG1uRoblz6opG00tMvQM7bA2ujG8ZulbTXkthnib2+Gge6NFteXtLuzjbaWRkycPNCTdVFe14ZC2omltQXGZlb8i1HaUkG9lh0OpvqoN9dYmIrcNQR79TDVNywq6koLqK8qx9nbj26ZDGtnT27NVEwq6otLUKCNjZsTeXlV2NpaYmdrfhO+vLuVxEqI9rz5s5tWVinIzSvEzNwcJ0eHf+9E9vJthaSOwlYj3KxNMNTt/dpTqRSUl1Zy4VITs+7qf8vLIDYoBISAEPh3BG55QFBP3VuWdopshQdjwr1/KpuSivwMzp5Ow3dwHAN8TUhPSULbzJ7AwCD0e7mXtZSnsmVPGQ89Npbc80m0/LQlubSLitJCuoycmDF5Aqa0kHghGUxsiYgIQe86jfLkIxzt8mLGIC/MDXpuVztW3M3F+oEseedp1PMzKrrbyUg7T2qxhHtmTf5NS3lzAdOfW8ln77yGp4Pdn3ZXz2mQfjWTyup6zXel6mGkc+SMCvG4FhBsfAcRGWCvmSeiqjiffXuTmD4jnMLss/Qf/QDSyhzy6zuw8QzB0/xnOIWkhe83rqFQbkcfN9ueyan0TIgbM5x/3c/l0k7K81PJL66jrqoEm6AIXMwNyGtSoZJKsNepQd+xH0G+vpjoQWPeMS5rDSTK0wJjOvn4tTe57+0PsPpFlpG2NZCVkUy93BBbXSnFtU20K0wJ8vfHTFdGXUMTDt5BuNlZ8ucncFRyec9eJOgQOm4YmzedIiw8kIFhPjf4K2VdbF39BkldfRnT76f5t9XzmWtr4+DoRHioeoKw6xZFN19v3YGXty/DYob0ei4V3fW8vfYkcaHON32ulLYi0zPCOXgYbp1XyC0toUlpSW5mFrExMejkX+BonT6OtpYY6oBXRByBdjcO9a2eAjstJYNN28pZsXzSn76exBeEgBAQAv9JgVseEBQdVaxY8TWTH3yUPo6WmrJLWus4sXc7O89UMHn2YiYPcycv5RSXy7oJGxyDv7PFTcco62pm34aNOE5djI+ijqyrZ0nKakLHSAsnR1eCgvri5+uNvpaM0sxkcmq7MTI0QNpcfW0uhvq8y6R0OxLt58HIiWNwNNHj1Rk6lNg+TuiE+3lu2gDkXY0cPbidg6ltfPrWS79prexu4/TlHAaG9MPU8M8PNaxUdFNbUUJurRQrE0O0mrPZnNTNnOFBmOlIyG4xIDzAA2drYxSyLnJSjvNDsgR3vUqqyzLxi5iMfksRjU0NaDn0x9HDn/6Bflhpt3Py8Bm0zY2xd3LF2ECPwvPbON0ayJLHZvY8yauUNNaUsXffPupqG2msq8TStx9WukoK6iRo6xriYSYDEztGx8Xh5eJA/dXdnNMeSpyfNdKiUyz/Lpm4mHDNxFGd7S0UVDbx2KK5lBfnk13ciUxRx7kzCViY6FPfoSB85HQigzzRVUgwsbTFzNiAP1qRo+hqpVPSiq6VE5c3fUMXOgyZPZHPPj1AdEwIUYPcyGvSwcPaEO2OIras/5oumZzUNkdeWTRRc7z11UUcP3GagRPuIS7c/xcBQcrH//ySgD5BTBg7utfzLussZcyrCWx5fthNn8ubiyiurUMnYDr9Wo5Q2NqKvstAtny+ltExfbl4Mo3QUXH4eLmy7fPlzHn1I/xtzFDKJLz25tuMGxOHSiWnuLCME2fquf++QaDooNvEFle/CALFCOT/yb97YttCQAj8AYFbHhBKz33LhnQrXnskrufGpJRRmJ3Kru93omvijldoHFNG+iLrqOWHPcdx9wsiclB/eqsQb62rQGpkx9mNb9BhH0R9SQVZlc0MG9gPLX1DXAfGEeNprqkeb+2SIZfJkHd3IVf2HHl5cjxHuryZOcgXb08XjHS1+ccsfbwXnyF11yYefvtj/E3abwoIHfVlnD9/gfJWY4LdzZDYuhLo4YatroRt8eeZOCIGcxNjarLOcqnLEz9ZOieuVhMcN5NYd1MaSgu5mpSD58gxOOu3kZqRjYGpneZm3t1ez4FDB9F3CyPUrpN1iXIeifNl1471eAyYw5iYnmmhO5qq2PvFpxhOegGP9ssUZiUwYNQ9ZF24SFuXFDOVFuYObgwY7MeREylk5hfi6myjCS6q7g6OHo3Hu38Mvm72OAbFMjTYgW6phJrqKvIzMklOL2PWgkkgbeXQ0Rx0jK0YO8JX/ciNtY01rWXZpCQeJk3Rh3BXV5IPHiRiaDh9I9UzQqqoKc1n9TcJrHznEerLc2hs0ubCzh2YWNujCBhIR1st3v3DCfDyw93sD1yJv1ilsz6fC2lpyBxiML0cf1NA8DFK56R8AGP7+aEsPUmd3AprawdKsy9yZF8+riEOFEhNmRA5gD7eblga/9wuopC1cSXtMl+s26GpXQju0wczczP09HqqRtzUbnaGKLtKGfXEt7w+7xe1D+rLur2KJoUWLkPupl9LPOeuXKFa6UzC0WNYapswZmQYWe36WMorMPMcxLhR0Zjo6SKTdDBx+mw2f70e9WyamVdz+X5PFa+/NgqkleS2yNG2HUT0TxN0tpddpBJnnBxc6WWS0j8PK74hBISAEPiDArc8IHz/8eMYxL3D5L497cDNNSWcOvA9nSZB6LXWoO8dowkI6ie84zu/psvah+joYVhe366t6CLx5BkOnUnkuX+8wsbnp9DiOQZlYxXpRQ0MDvKiVaVP6JQHGG7XxsXTh+i08GdAgAdXc8vp0ycQP1c7ihN2sqszgEWxAVga9fzx/8csAyLfbsQoaR1fp+vzxZuzOX1dDUJ7TQEbNqwntagRPzdnCgsy6AiZzivzJ9PXsInhjy5l8/K3cHO0J2X7WzyyrZqJwwOQVOSTWKnDtg0fY9RSzI/f7aLaoA9jPFQkZJYzeNZswpytUCnk1FYU0KC0xlZVypoL3TwwzJncGikDfNyxNDdEpZRTcuUUn208yKRnlxMoSyMnLZ7AmFmcObATPVNHkBhhbuvI0JFh1FeX8+nGH5g0ZhTe7q5UXDlPt0sAnlZWNJYmszXHkWULw+horufcnr0klZdT2qRNdIgnRjb2lBQ24+dki6t+PTrOHgSEDYbONsrSfiSRSIY4KMiv1cKq6hipDOTBaWFUFuXy9qozrPrwfrqaKsgpLuLUmXzMKrKocg1E2tmIX79+GGipyCtvJDAojLiBvpgbXd8I9OtXqbo55nh8PBV1Evx0lTcGhKggsk99T//Jcwnr60/Ct1upUOiAlgJLYyPKypoxMNOnrVOOVmMT1l4u2Lp4EBrel7bSbAqrunGyt2bP/r34+PozcmgMOro6munD1YuhqSVG+trIO0sZtzyTz0e0cCil5sbCqhR4+QUwIm4Cuo251La1sGVvAW52ZsREBmFvo8/aVe9RdL6Roa++x5TBrpp+MOqAMHnmPA7t/5GbmhVLcG4AAA2ZSURBVBgkpaRWtdBh2O9aQMj6fjmH5X2ZOGYUftZ/zO4P/vbFakJACAiB3xS45QFh9Yv3EfvqBvpZaNHd0cLFk/tJarVm9iBPEk9dQMfrp4AAXDryDflyJ2KjhuJqcV2XNpWSzvZG3n/tFZ5b8Tk7Xn2AmOc/RF6QyubjuTx513CSr2SgCohjcoApmYkHKe4woN+gkTSn7yalRofRw0eiyD3Ra0CI/kBCpGERGz97C93+i/DRz/ipieEFLh/exIGkTAZOeYwIZ1MSdn7Ij7JgHp8xkxDjBvrPf4kfv/wYTxdHLm54gRcu9OG7d6bTXlvAmncfYdK7yUQ7dnPldDzbt+yg2j2IwWEx3DchisbiTHLyS2iTKpArtShK2sWRXDkLpo7HyMRU07FQS8uYqLgocnavpl6pRO4/j+6TG7lamYf3wNGY0oSnnQk5rT44OLoyeog3SBp47aOvWDD7LgL9fLj4zSfYzHgYb0MjanOOs+yUMSsfitRUb2dcusS+Q0mMnDmSLj0bQlyMuLg/Hm15FyVaZnj792H44H6aabFrf2piGOVjhr6ODqquJhIObsMuei6l+aUc2pvGPz+4h5zUi8SfOo23bxBZO3dSYuuGTNpGyMjJDApw4HBuB3ED/Ah3t0RH+492FlVRcvk4qTm51Nca4GFleK2JIcRLztVGG6ZNjMLXzYKOlla6FQpUWqDsauX5N46w8qM5qJRKZFIp2nr66OrrY2xkiEImoVsGBrqwas26321iGL+phUP3edLaeeMc4lpaWujrG2BiYkxr7mnqVHI27C1E2ViDv78L5hYWhPYLxFjPlPPpaVwqauKtv81H3Vdi1LjJLLp3IepOitWVNaSktzJhfB+QNSO18aJf1LRrAUHa2kC7ygAzU5OefiViEQJCQAj8Lwn8BwLCAwx/fR2BxjKK0xNY8tYaPKOisFK1UVRQholHKPNmjaOvrztJx7aTI3EgNjoWd8tf9uKXsuyZJ3hi+Wo2Pz+VroCJKBsquZxfT3R/H5pkOvSfeB/Tgq3JS44nvxmCI8bgbNBKYXYDjm4ONGYc6jUgxHwoJc6tm8zEQ7y94nNCRo+lqlLKp289y8nN68ksa2bKcy/iaqDFhZ3L2dLgxuLJk3oNCG/VT2LfC8NoqStm3dtTCHkunZHu0FKRxaoP3yWhxYG3311CmKMxCnk3MpkCFZCTuIec6mZOl+nijT73L56CoaZfgxYGhgZ0NlZw5ex3FJrGoZ1wkGHzR5FRXE63kRsGrdmU6vsTE9IPfxv9mwLC8dUv4LroDfyMTG8ICNK2ek7sXc+2i224WevQigVx0QMx6Srm6qk92MU+wMiRcTiY9pyLnoAQg0fDRfpHjkbWVce6zd/h7tePQFc7PttYwrsvhZB++HNazX1wChqOflkpl0pUyFVyYseEYaRqZeuVLsb186Kfk/GfuqylLWUcTy/i9O7LjBpg/1NA2Icy6xAjHnmSAeEDMdbTQinv5uDhI3R3d9PVWsjRAksmh6ob8VXU17dT22TCqy/OvHHfit77IFSn78I2IA5dA1MkNUd5J80Zl6IzvZZbS9uMfv3CCLIop0YpZ1N8B+FeDowa5sah+DM0NLZpaiUkkm5Gzp9PXzsb5JIOJs2Yyw/fbtPUIFxNz2b7DxUsWzoOJOVkNHQiNw+7FhD+FJhYWQgIASFwCwVueUDYtOwBXOZ/zkgPbRrK8zhw4iLaOrpIWurIzynGyCOMeTNH4e/pwumdX9Fs7k1U7Ehsb+rz93NA2PHqg4x585/Ic5NZF5/NC/NGczktHZXfKEb7md0QENTt3UqlCi0tyDu5jQTtQdwV6X3tLQZ1E4M6IIz1hK6Wan74cikvfn6GWQsXaDopZpzZzuYfjzBo4t+YEGLDu688wUXbMbz3t0W9BoSlTVPY+2ysJiCsXzaFAc+mM8yxleN7vif+8EVMvdxRGDny8rP3o7k9KiUc37OXdgsPBrgo2JSkYkGEMceP5rHooZno6PRUc3d3NJF87GsKTEajezaeSY9MJSkjB5V9GEWJ+5Gb2HHf7Knoqx8qb6hBcGf90/fQ0X8ij903n/q8k9dqEFCpkMu76Wxr4lJOHsV4c88gB5oLEth/rgDP0DEMC3HT1B50d9TxzeYNdBs5M3zCRBoTvqZaL4AJY0ajhYry/Ct8urGGj98bT3NpJkXZF5F6DaHg3EnSC+vRM7YlMjaaQBd9duUq/lJA0JRXKePspu3IdHSv1SAMjghk6NB+6Oj8XOskk6mf8OXsfOFhwpesw0ONrVSQcaWIHT+W8O5b4/5AQFBx5INF+Cx+D09rR+rjl5I35FUG6kupKbvCh0t38/qXr6Ho6qKu24wAK9DR0aU993hPQDjSRVQfd+KGmbPxsh4j/Oxxs9Ql7esFGC1cR7CRuSYg/Jkmhlv4WxebEgJCQAj8KYFbHhDyj37FrqYhvDArWFMQlUr9vAzNZXmciD+LrqYPgh8o2tm28QccfAIYOiySX9Yf1Gaf5uFH3+etH/ZC5lG8o0ejbKoiISkD7YYW9F29iYwNR7utjoM7v+ZymR4z5t5LiK8VzRW5JKZk0tCtT9zoodiam2pueurl+oAASiqyLvHhs8+hGjRZExDkkhZ2b17Jm++soNE8inmj3ejsO5aHx4/5YwHh6WSsyo/z2ZYDzH76dfp0nOPzHw7QZ+g9zA53Zv++I1j4RRA1qC9a9al8clrKY5PCMFLUs+GzDdhPfZS7+ttcCwh5BkMpWbcC/f4+KEztcHQMxEe3kmJ9L7zdPIkNdQN5F2eTrxLo709r1iF2l7oxxKKAzf88RsRLT+Nm5ciIfg4015SxZ+v31Mok1LR1ojD3IC7EhYqMCk5eqmP+w1PQzz2BV2g4SpkOzv5+mFhboa5OV9+s1WdS/W+lXEr2hZ0caIvi+fEetJTnUph1AccRcyk8Hs/5cxdQ2XsQFR1DqJsBq5JurEHIO/wRuw3n8+xQpz/wVoOCs728xRAbHXjjha7sZtvypWj1mcvcKT3XnrK7g8zsVI5Xu/PkGLdfrC/jm49XYRUYxMgJY1DnU/UT/d/ve5BnP3gPO3sbnlrwMJ98s46WsvN8sOxbHvvkY1z0ZZRcPcf+o6cIGPUgo0OcacmKJ/7MGb47A318HFmwIJCT9f6M6+OIh5UuKWtmoLtwA32NLP50QEhau4TuoFj6R47E9NYMLPGn/kCIlYWAEPjvFbjlAUHeWsqLr63h9RVLsNT9lb9oKpVm0J34K/X06R9GiPfP761rToWkiqUrjvD8U+PYsO17DLV7G5RIH0+/QFztlbS0tGFsYkZq0kWau3Qx0r+5M1fM5AX42RlcCwq/dsrV7dYKhRyl+m6o6mb7m49S7z2JOXNn4WL264MP/f4lJCcnNRNzS2ucPF01q3dUpLLyjJSHJ4Vgbaq+RSm4tO9bnEfPw07ZTOqJLdS5zcartYigmAiqCtO5UlCGR8gobFpzSW1W4e0biIcppB85RnpOKSbuA5kwbgDG6s6A3W188fkaWu0DeH7uJP7V/C/rbOR8Vh55nZZ41qdSrzAhwEOPbrk2Z85WM2JoKGERfW8+JFkn6zdvV6cEzKwdmDV1gmad1op8CjJOUWnVh7YGGWNHDcegpYy8nGTSM/OReA9jwuAQXEzV50XOtlceZcRrK3A06f31BpVSQVFhHidPn/ttVl0Dpk+ZSEfBIb7d30j4/HsZ5muCtLONrdu/07yRYe/kwqRxcb1up7utkrMXkigq6xmXQr0EDJvOIE8raE7mgxw3/j7YikMbN1P9iy2olBKMXNwIiZ6IrOgKWto69O/XYyaT5PPRlgsYdkswN9SmJnUX49/dygATc+TSDiZOvYu5s2fdXCZ5K3Jbb/pHTSHSsefjVW+vJjwmnMjhg3//EhNrCAEhIARuocAtDwjqG2zK0c1ckgbx8ORBvRZV1tHA8aPx6Nl6EjVkyLWR+27hcf3lTdXlXmbvwUNk1XejrCsgvQyeffk5xsaG9Poq5l/ekboav62W5HI5oT4OGP75EYQ0u1YPkHTmbDI2vkEEuDnePOiUSkV9aRrVBkH0dex5VUTdWbGioZGaFgWelmDi4IaRSk7WpSQatKwI7uuHldG/E4Z+Q0XZzYWjZwgfHoue/k1DMv47nP8vv3suqwZXWxPc7dTDeolFCAgBIfC/J3DLA8L/XtH/U3tSUZZ1iXPnL9CkZc2o4UPx83L/T+1MbFcICAEhIASEwB0pIALCHXlaRKGEgBAQAkJACNxeAREQbq+/2LsQEAJCQAgIgTtSQASEO/K0iEIJASEgBISAELi9AiIg3F5/sXchIASEgBAQAnekgAgId+RpEYUSAkJACAgBIXB7BURAuL3+Yu9CQAgIASEgBO5IAREQ7sjTIgolBISAEBACQuD2CoiAcHv9xd6FgBAQAkJACNyRAiIg3JGnRRRKCAgBISAEhMDtFRAB4fb6i70LASEgBISAELgjBURAuCNPiyiUEBACQkAICIHbKyACwu31F3sXAkJACAgBIXBHCoiAcEeeFlEoISAEhIAQEAK3V0AEhNvrL/YuBISAEBACQuCOFBAB4Y48LaJQQkAICAEhIARur4AICLfXX+xdCAgBISAEhMAdKSACwh15WkShhIAQEAJCQAjcXoH/ATZTCk1F+A0gAAAAAElFTkSuQmCC;" vertex="1" parent="1">
          <mxGeometry x="90" y="10" width="622.09" height="390" as="geometry" />
        </mxCell>
        <mxCell id="G6uqmPO4Gl4WN2USTSYM-2" value="客户端层" style="rounded=1;whiteSpace=wrap;html=1;" vertex="1" parent="1">
          <mxGeometry x="180" y="440" width="120" height="60" as="geometry" />
        </mxCell>
        <mxCell id="G6uqmPO4Gl4WN2USTSYM-23" style="edgeStyle=orthogonalEdgeStyle;rounded=0;orthogonalLoop=1;jettySize=auto;html=1;entryX=1;entryY=0.5;entryDx=0;entryDy=0;" edge="1" parent="1" source="G6uqmPO4Gl4WN2USTSYM-3" target="G6uqmPO4Gl4WN2USTSYM-2">
          <mxGeometry relative="1" as="geometry" />
        </mxCell>
        <mxCell id="G6uqmPO4Gl4WN2USTSYM-25" value="10.58.0.1" style="edgeLabel;html=1;align=center;verticalAlign=middle;resizable=0;points=[];" vertex="1" connectable="0" parent="G6uqmPO4Gl4WN2USTSYM-23">
          <mxGeometry x="0.2111" y="3" relative="1" as="geometry">
            <mxPoint as="offset" />
          </mxGeometry>
        </mxCell>
        <mxCell id="G6uqmPO4Gl4WN2USTSYM-3" value="DNS-server" style="rounded=0;whiteSpace=wrap;html=1;" vertex="1" parent="1">
          <mxGeometry x="480" y="440" width="120" height="60" as="geometry" />
        </mxCell>
        <mxCell id="G6uqmPO4Gl4WN2USTSYM-5" value="health-code.com&lt;br&gt;10.58.0.1&lt;br&gt;10.58.0.2" style="text;html=1;strokeColor=none;fillColor=none;align=center;verticalAlign=middle;whiteSpace=wrap;rounded=0;" vertex="1" parent="1">
          <mxGeometry x="700" y="445" width="110" height="50" as="geometry" />
        </mxCell>
        <mxCell id="G6uqmPO4Gl4WN2USTSYM-6" value="" style="rounded=0;whiteSpace=wrap;html=1;" vertex="1" parent="1">
          <mxGeometry x="60" y="570" width="320" height="110" as="geometry" />
        </mxCell>
        <mxCell id="G6uqmPO4Gl4WN2USTSYM-7" value="lvs&lt;br&gt;keepalived" style="rounded=0;whiteSpace=wrap;html=1;" vertex="1" parent="1">
          <mxGeometry x="70" y="605" width="120" height="60" as="geometry" />
        </mxCell>
        <mxCell id="G6uqmPO4Gl4WN2USTSYM-8" value="&lt;span&gt;lvs&lt;/span&gt;&lt;br&gt;&lt;span&gt;keepalived&lt;/span&gt;" style="rounded=0;whiteSpace=wrap;html=1;" vertex="1" parent="1">
          <mxGeometry x="250" y="605" width="120" height="60" as="geometry" />
        </mxCell>
        <mxCell id="G6uqmPO4Gl4WN2USTSYM-9" value="virtual IP" style="text;html=1;strokeColor=none;fillColor=none;align=center;verticalAlign=middle;whiteSpace=wrap;rounded=0;" vertex="1" parent="1">
          <mxGeometry x="190" y="570" width="60" height="30" as="geometry" />
        </mxCell>
        <mxCell id="G6uqmPO4Gl4WN2USTSYM-10" value="" style="rounded=0;whiteSpace=wrap;html=1;" vertex="1" parent="1">
          <mxGeometry x="400" y="570" width="320" height="110" as="geometry" />
        </mxCell>
        <mxCell id="G6uqmPO4Gl4WN2USTSYM-11" value="lvs&lt;br&gt;keepalived" style="rounded=0;whiteSpace=wrap;html=1;" vertex="1" parent="1">
          <mxGeometry x="410" y="605" width="120" height="60" as="geometry" />
        </mxCell>
        <mxCell id="G6uqmPO4Gl4WN2USTSYM-12" value="&lt;span&gt;lvs&lt;/span&gt;&lt;br&gt;&lt;span&gt;keepalived&lt;/span&gt;" style="rounded=0;whiteSpace=wrap;html=1;" vertex="1" parent="1">
          <mxGeometry x="590" y="605" width="120" height="60" as="geometry" />
        </mxCell>
        <mxCell id="G6uqmPO4Gl4WN2USTSYM-13" value="virtual IP" style="text;html=1;strokeColor=none;fillColor=none;align=center;verticalAlign=middle;whiteSpace=wrap;rounded=0;" vertex="1" parent="1">
          <mxGeometry x="530" y="570" width="60" height="30" as="geometry" />
        </mxCell>
        <mxCell id="G6uqmPO4Gl4WN2USTSYM-14" value="通过DNS轮询扩充入口性能" style="text;html=1;strokeColor=none;fillColor=none;align=center;verticalAlign=middle;whiteSpace=wrap;rounded=0;" vertex="1" parent="1">
          <mxGeometry x="750" y="605" width="70" height="45" as="geometry" />
        </mxCell>
        <mxCell id="G6uqmPO4Gl4WN2USTSYM-15" value="反向代理层" style="text;html=1;strokeColor=none;fillColor=none;align=center;verticalAlign=middle;whiteSpace=wrap;rounded=0;" vertex="1" parent="1">
          <mxGeometry x="10" y="565" width="40" height="120" as="geometry" />
        </mxCell>
        <mxCell id="G6uqmPO4Gl4WN2USTSYM-16" value="nginx" style="rounded=0;whiteSpace=wrap;html=1;" vertex="1" parent="1">
          <mxGeometry x="140" y="740" width="120" height="60" as="geometry" />
        </mxCell>
        <mxCell id="G6uqmPO4Gl4WN2USTSYM-17" value="nginx" style="rounded=0;whiteSpace=wrap;html=1;" vertex="1" parent="1">
          <mxGeometry x="300" y="740" width="120" height="60" as="geometry" />
        </mxCell>
        <mxCell id="G6uqmPO4Gl4WN2USTSYM-18" value="nginx" style="rounded=0;whiteSpace=wrap;html=1;" vertex="1" parent="1">
          <mxGeometry x="460" y="740" width="120" height="60" as="geometry" />
        </mxCell>
        <mxCell id="G6uqmPO4Gl4WN2USTSYM-19" value="tomcat" style="rounded=0;whiteSpace=wrap;html=1;" vertex="1" parent="1">
          <mxGeometry x="140" y="850" width="120" height="60" as="geometry" />
        </mxCell>
        <mxCell id="G6uqmPO4Gl4WN2USTSYM-20" value="tomcat" style="rounded=0;whiteSpace=wrap;html=1;" vertex="1" parent="1">
          <mxGeometry x="300" y="850" width="120" height="60" as="geometry" />
        </mxCell>
        <mxCell id="G6uqmPO4Gl4WN2USTSYM-21" value="tomcat" style="rounded=0;whiteSpace=wrap;html=1;" vertex="1" parent="1">
          <mxGeometry x="460" y="850" width="120" height="60" as="geometry" />
        </mxCell>
        <mxCell id="G6uqmPO4Gl4WN2USTSYM-22" value="" style="endArrow=classic;html=1;rounded=0;entryX=0;entryY=0.133;entryDx=0;entryDy=0;entryPerimeter=0;exitX=1;exitY=0.133;exitDx=0;exitDy=0;exitPerimeter=0;" edge="1" parent="1" source="G6uqmPO4Gl4WN2USTSYM-2" target="G6uqmPO4Gl4WN2USTSYM-3">
          <mxGeometry width="50" height="50" relative="1" as="geometry">
            <mxPoint x="310" y="490" as="sourcePoint" />
            <mxPoint x="360" y="440" as="targetPoint" />
          </mxGeometry>
        </mxCell>
        <mxCell id="G6uqmPO4Gl4WN2USTSYM-24" value="health-code.com" style="edgeLabel;html=1;align=center;verticalAlign=middle;resizable=0;points=[];" vertex="1" connectable="0" parent="G6uqmPO4Gl4WN2USTSYM-22">
          <mxGeometry x="-0.2222" y="2" relative="1" as="geometry">
            <mxPoint as="offset" />
          </mxGeometry>
        </mxCell>
        <mxCell id="G6uqmPO4Gl4WN2USTSYM-28" value="" style="endArrow=classic;html=1;rounded=0;entryX=0.5;entryY=0;entryDx=0;entryDy=0;exitX=0.25;exitY=1;exitDx=0;exitDy=0;" edge="1" parent="1" source="G6uqmPO4Gl4WN2USTSYM-2" target="G6uqmPO4Gl4WN2USTSYM-7">
          <mxGeometry width="50" height="50" relative="1" as="geometry">
            <mxPoint x="190" y="530" as="sourcePoint" />
            <mxPoint x="240" y="480" as="targetPoint" />
          </mxGeometry>
        </mxCell>
        <mxCell id="G6uqmPO4Gl4WN2USTSYM-30" value="10.58.0.1" style="edgeLabel;html=1;align=center;verticalAlign=middle;resizable=0;points=[];" vertex="1" connectable="0" parent="G6uqmPO4Gl4WN2USTSYM-28">
          <mxGeometry x="-0.2425" relative="1" as="geometry">
            <mxPoint as="offset" />
          </mxGeometry>
        </mxCell>
        <mxCell id="G6uqmPO4Gl4WN2USTSYM-29" value="" style="endArrow=classic;html=1;rounded=0;entryX=0.5;entryY=0;entryDx=0;entryDy=0;exitX=0.5;exitY=1;exitDx=0;exitDy=0;" edge="1" parent="1" source="G6uqmPO4Gl4WN2USTSYM-2" target="G6uqmPO4Gl4WN2USTSYM-11">
          <mxGeometry width="50" height="50" relative="1" as="geometry">
            <mxPoint x="210" y="540" as="sourcePoint" />
            <mxPoint x="260" y="490" as="targetPoint" />
          </mxGeometry>
        </mxCell>
        <mxCell id="G6uqmPO4Gl4WN2USTSYM-31" value="10.58.0.2" style="edgeLabel;html=1;align=center;verticalAlign=middle;resizable=0;points=[];" vertex="1" connectable="0" parent="G6uqmPO4Gl4WN2USTSYM-29">
          <mxGeometry x="-0.31" y="3" relative="1" as="geometry">
            <mxPoint y="-1" as="offset" />
          </mxGeometry>
        </mxCell>
        <mxCell id="G6uqmPO4Gl4WN2USTSYM-32" value="" style="endArrow=none;dashed=1;html=1;rounded=0;entryX=0;entryY=0.5;entryDx=0;entryDy=0;exitX=1;exitY=0.5;exitDx=0;exitDy=0;" edge="1" parent="1" source="G6uqmPO4Gl4WN2USTSYM-3" target="G6uqmPO4Gl4WN2USTSYM-5">
          <mxGeometry width="50" height="50" relative="1" as="geometry">
            <mxPoint x="600" y="500" as="sourcePoint" />
            <mxPoint x="650" y="450" as="targetPoint" />
          </mxGeometry>
        </mxCell>
        <mxCell id="G6uqmPO4Gl4WN2USTSYM-33" value="" style="endArrow=none;dashed=1;html=1;rounded=0;" edge="1" parent="1" source="G6uqmPO4Gl4WN2USTSYM-14">
          <mxGeometry width="50" height="50" relative="1" as="geometry">
            <mxPoint x="679.2893218813452" y="677.5" as="sourcePoint" />
            <mxPoint x="720" y="628" as="targetPoint" />
          </mxGeometry>
        </mxCell>
        <mxCell id="G6uqmPO4Gl4WN2USTSYM-34" value="通过lvs可以扩展多个nginx" style="text;html=1;strokeColor=none;fillColor=none;align=center;verticalAlign=middle;whiteSpace=wrap;rounded=0;" vertex="1" parent="1">
          <mxGeometry x="690" y="740" width="60" height="60" as="geometry" />
        </mxCell>
        <mxCell id="G6uqmPO4Gl4WN2USTSYM-35" value="" style="endArrow=none;dashed=1;html=1;rounded=0;entryX=0;entryY=0.5;entryDx=0;entryDy=0;exitX=1;exitY=0.5;exitDx=0;exitDy=0;" edge="1" parent="1" source="G6uqmPO4Gl4WN2USTSYM-18" target="G6uqmPO4Gl4WN2USTSYM-34">
          <mxGeometry width="50" height="50" relative="1" as="geometry">
            <mxPoint x="590" y="770" as="sourcePoint" />
            <mxPoint x="630" y="750" as="targetPoint" />
          </mxGeometry>
        </mxCell>
        <mxCell id="G6uqmPO4Gl4WN2USTSYM-36" value="" style="endArrow=classic;html=1;rounded=0;entryX=0.367;entryY=-0.083;entryDx=0;entryDy=0;entryPerimeter=0;exitX=0.5;exitY=1;exitDx=0;exitDy=0;" edge="1" parent="1" source="G6uqmPO4Gl4WN2USTSYM-7" target="G6uqmPO4Gl4WN2USTSYM-16">
          <mxGeometry width="50" height="50" relative="1" as="geometry">
            <mxPoint x="100" y="700" as="sourcePoint" />
            <mxPoint x="150" y="650" as="targetPoint" />
          </mxGeometry>
        </mxCell>
        <mxCell id="G6uqmPO4Gl4WN2USTSYM-37" value="" style="endArrow=classic;html=1;rounded=0;entryX=0.5;entryY=0;entryDx=0;entryDy=0;exitX=0.592;exitY=1.017;exitDx=0;exitDy=0;exitPerimeter=0;" edge="1" parent="1" source="G6uqmPO4Gl4WN2USTSYM-7">
          <mxGeometry width="50" height="50" relative="1" as="geometry">
            <mxPoint x="160" y="660" as="sourcePoint" />
            <mxPoint x="362" y="742" as="targetPoint" />
          </mxGeometry>
        </mxCell>
        <mxCell id="G6uqmPO4Gl4WN2USTSYM-38" value="" style="endArrow=classic;html=1;rounded=0;entryX=0.6;entryY=-0.033;entryDx=0;entryDy=0;entryPerimeter=0;exitX=1;exitY=1;exitDx=0;exitDy=0;" edge="1" parent="1" source="G6uqmPO4Gl4WN2USTSYM-7" target="G6uqmPO4Gl4WN2USTSYM-18">
          <mxGeometry width="50" height="50" relative="1" as="geometry">
            <mxPoint x="180" y="700" as="sourcePoint" />
            <mxPoint x="230" y="650" as="targetPoint" />
          </mxGeometry>
        </mxCell>
        <mxCell id="G6uqmPO4Gl4WN2USTSYM-39" value="" style="endArrow=classic;html=1;rounded=0;entryX=0.5;entryY=0;entryDx=0;entryDy=0;exitX=0.342;exitY=0.983;exitDx=0;exitDy=0;exitPerimeter=0;strokeColor=#3333FF;" edge="1" parent="1" source="G6uqmPO4Gl4WN2USTSYM-11" target="G6uqmPO4Gl4WN2USTSYM-16">
          <mxGeometry width="50" height="50" relative="1" as="geometry">
            <mxPoint x="450" y="680" as="sourcePoint" />
            <mxPoint x="500" y="630" as="targetPoint" />
          </mxGeometry>
        </mxCell>
        <mxCell id="G6uqmPO4Gl4WN2USTSYM-40" value="" style="endArrow=classic;html=1;rounded=0;entryX=0.608;entryY=0;entryDx=0;entryDy=0;entryPerimeter=0;exitX=0.367;exitY=0.983;exitDx=0;exitDy=0;exitPerimeter=0;strokeColor=#3333FF;" edge="1" parent="1" source="G6uqmPO4Gl4WN2USTSYM-11" target="G6uqmPO4Gl4WN2USTSYM-17">
          <mxGeometry width="50" height="50" relative="1" as="geometry">
            <mxPoint x="470" y="690" as="sourcePoint" />
            <mxPoint x="520" y="640" as="targetPoint" />
          </mxGeometry>
        </mxCell>
        <mxCell id="G6uqmPO4Gl4WN2USTSYM-41" value="" style="endArrow=classic;html=1;rounded=0;entryX=0.175;entryY=-0.05;entryDx=0;entryDy=0;entryPerimeter=0;strokeColor=#3333FF;" edge="1" parent="1">
          <mxGeometry width="50" height="50" relative="1" as="geometry">
            <mxPoint x="481" y="665" as="sourcePoint" />
            <mxPoint x="481" y="741" as="targetPoint" />
          </mxGeometry>
        </mxCell>
        <mxCell id="G6uqmPO4Gl4WN2USTSYM-42" value="" style="endArrow=classic;html=1;rounded=0;entryX=0.5;entryY=0;entryDx=0;entryDy=0;exitX=0.342;exitY=0.983;exitDx=0;exitDy=0;exitPerimeter=0;strokeColor=#3333FF;" edge="1" parent="1">
          <mxGeometry width="50" height="50" relative="1" as="geometry">
            <mxPoint x="451.03999999999996" y="663.98" as="sourcePoint" />
            <mxPoint x="200" y="740" as="targetPoint" />
          </mxGeometry>
        </mxCell>
      </root>
    </mxGraphModel>
  </diagram>
</mxfile>
